<svg width="1440" height="710" viewBox="0 0 1440 710" fill="none" xmlns="http://www.w3.org/2000/svg">
<path d="M1385.17 220.968L1381.74 223.154C1382.14 222.953 1382.53 222.762 1382.93 222.562C1384.2 221.795 1385.49 221.024 1386.77 220.245C1386.23 220.489 1385.7 220.725 1385.17 220.968ZM1363.22 233.473C1362.34 234.055 1361.45 234.647 1360.57 235.225L1360.94 235.028L1364.29 232.954L1363.22 233.473ZM1375.47 225.35C1373.53 226.641 1371.62 227.893 1369.69 229.18C1370.73 228.669 1371.77 228.137 1372.81 227.622C1374.71 226.422 1376.63 225.183 1378.54 223.961C1377.52 224.421 1376.49 224.893 1375.47 225.35ZM1340.98 246.643C1340.24 247.137 1339.52 247.605 1338.8 248.098L1338.81 248.087C1339.66 247.547 1340.51 246.989 1341.36 246.444L1340.98 246.643ZM1353.04 238.397C1351.31 239.576 1349.59 240.769 1347.87 241.939C1348.68 241.517 1349.49 241.103 1350.3 240.679C1352.26 239.404 1354.2 238.175 1356.17 236.886C1355.13 237.386 1354.08 237.9 1353.04 238.397ZM1365.85 229.579C1363.43 231.262 1361.04 232.897 1358.63 234.558C1359.93 233.932 1361.23 233.303 1362.53 232.671C1364.95 231.075 1367.38 229.457 1369.8 227.849C1368.48 228.429 1367.16 229.003 1365.85 229.579ZM278.843 410.042L279.837 410.077C280.551 409.932 281.264 409.791 281.979 409.648L281.066 409.655C280.326 409.783 279.584 409.914 278.843 410.042ZM1317.8 260.771L1317.05 261.29C1317.39 261.063 1317.73 260.847 1318.08 260.621L1317.8 260.771ZM1330.59 251.932C1328.99 253.052 1327.42 254.144 1325.83 255.243C1326.48 254.894 1327.11 254.554 1327.76 254.203C1329.45 253.079 1331.15 251.935 1332.84 250.81C1332.09 251.19 1331.34 251.555 1330.59 251.932ZM1343.23 242.998C1340.93 244.624 1338.62 246.26 1336.33 247.876C1337.64 247.205 1338.97 246.515 1340.29 245.838C1342.57 244.3 1344.86 242.729 1347.15 241.157C1345.84 241.772 1344.54 242.387 1343.23 242.998ZM1356.18 233.756C1353.43 235.74 1350.7 237.701 1347.98 239.641C1349.44 238.952 1350.9 238.283 1352.36 237.589C1355.19 235.642 1358.01 233.721 1360.84 231.77C1359.29 232.442 1357.73 233.092 1356.18 233.756ZM270.633 411.478C271.216 411.522 271.798 411.575 272.382 411.622L275.527 410.968C274.966 410.95 274.407 410.928 273.846 410.912C272.775 411.1 271.703 411.287 270.633 411.478ZM265.488 411.101L266.632 411.182L268.787 410.791L267.798 410.767C267.027 410.879 266.259 410.986 265.488 411.101ZM260.73 410.774L260.89 410.783L261.573 410.679L260.73 410.774ZM1307.44 266.26C1305.95 267.308 1304.45 268.372 1302.96 269.428L1305.24 268.134C1306.7 267.144 1308.18 266.111 1309.65 265.101C1308.91 265.49 1308.18 265.871 1307.44 266.26ZM1320.29 257.057C1318.13 258.633 1315.96 260.217 1313.82 261.748C1314.91 261.169 1316.01 260.557 1317.1 259.972C1319.43 258.367 1321.75 256.781 1324.08 255.174C1322.82 255.798 1321.55 256.437 1320.29 257.057ZM1333.44 247.514L1325.33 253.4C1326.85 252.641 1328.37 251.894 1329.89 251.129C1332.52 249.292 1335.18 247.402 1337.83 245.525C1336.36 246.199 1334.9 246.847 1333.44 247.514ZM1346.59 237.821C1343.57 240.076 1340.55 242.338 1337.57 244.522C1339.22 243.76 1340.88 242.967 1342.54 242.195C1345.64 239.988 1348.72 237.826 1351.84 235.595C1350.09 236.335 1348.34 237.09 1346.59 237.821ZM262.664 412.928C263.404 413.02 264.146 413.107 264.885 413.202C266.162 412.929 267.44 412.653 268.716 412.384C267.984 412.328 267.248 412.281 266.515 412.226C265.232 412.461 263.948 412.691 262.664 412.928ZM257.607 412.308C258.186 412.375 258.762 412.448 259.341 412.517C260.386 412.322 261.43 412.13 262.475 411.938L260.751 411.826C259.703 411.986 258.655 412.145 257.607 412.308ZM252.64 411.754L253.785 411.882C254.512 411.766 255.241 411.649 255.967 411.537C255.625 411.517 255.284 411.495 254.941 411.475C254.174 411.57 253.408 411.66 252.64 411.754ZM247.983 411.266L248.235 411.292L249.104 411.178L249.039 411.175L247.983 411.266ZM1283.99 281.154C1282.66 282.116 1281.33 283.094 1280 284.041C1280.45 283.782 1280.9 283.515 1281.34 283.254C1282.89 282.185 1284.42 281.138 1285.97 280.065L1283.99 281.154ZM1296.99 271.731C1294.89 273.263 1292.79 274.771 1290.69 276.299C1291.76 275.705 1292.83 275.134 1293.9 274.537C1296.04 273.036 1298.21 271.493 1300.37 269.967C1299.24 270.549 1298.11 271.154 1296.99 271.731ZM1310.25 261.941C1307.68 263.853 1305.12 265.776 1302.58 267.636C1303.97 266.916 1305.36 266.187 1306.74 265.457C1309.42 263.555 1312.07 261.697 1314.76 259.767C1313.25 260.501 1311.75 261.216 1310.25 261.941ZM1323.7 251.939C1320.66 254.216 1317.64 256.447 1314.6 258.706C1316.26 257.895 1317.93 257.078 1319.6 256.256C1322.6 254.095 1325.61 251.896 1328.63 249.702C1326.99 250.443 1325.34 251.207 1323.7 251.939ZM1337.22 241.674C1333.95 244.172 1330.68 246.691 1327.45 249.114C1329.22 248.318 1330.99 247.515 1332.75 246.709C1336.03 244.315 1339.31 241.905 1342.61 239.463C1340.81 240.206 1339.02 240.939 1337.22 241.674ZM254.863 414.394C255.68 414.538 256.494 414.688 257.31 414.835C258.781 414.514 260.25 414.199 261.721 413.883C260.878 413.778 260.035 413.673 259.191 413.571C257.749 413.843 256.305 414.12 254.863 414.394ZM249.847 413.542C250.575 413.664 251.303 413.784 252.03 413.907C253.304 413.663 254.577 413.424 255.851 413.182C255.106 413.096 254.361 413.015 253.616 412.932C252.36 413.133 251.103 413.339 249.847 413.542ZM244.94 412.746C245.537 412.84 246.14 412.927 246.738 413.023C247.778 412.852 248.817 412.688 249.856 412.519C249.255 412.456 248.649 412.4 248.047 412.339L244.94 412.746ZM240.188 412.015C240.576 412.072 240.962 412.135 241.349 412.193C242.099 412.092 242.847 411.998 243.597 411.898L242.486 411.792C241.72 411.866 240.955 411.937 240.188 412.015ZM235.624 411.366L235.986 411.417C236.309 411.384 236.632 411.347 236.953 411.314L236.768 411.298C236.386 411.323 236.006 411.342 235.624 411.366ZM1260.47 296.459C1259.15 297.426 1257.87 298.324 1256.56 299.279C1256.85 299.108 1257.13 298.948 1257.41 298.777C1258.82 297.789 1260.25 296.774 1261.66 295.78C1261.26 296.003 1260.86 296.237 1260.47 296.459ZM1273.35 286.916C1271.41 288.354 1269.46 289.807 1267.53 291.227C1268.54 290.653 1269.54 290.087 1270.55 289.509C1272.59 288.057 1274.61 286.636 1276.67 285.159C1275.56 285.757 1274.46 286.322 1273.35 286.916ZM1286.99 276.804C1284.34 278.788 1281.74 280.689 1279.11 282.649C1280.5 281.896 1281.9 281.113 1283.3 280.353C1285.86 278.506 1288.43 276.63 1291 274.767C1289.66 275.451 1288.32 276.129 1286.99 276.804ZM1300.21 266.757C1297.32 268.959 1294.42 271.171 1291.56 273.328C1293.15 272.518 1294.72 271.738 1296.31 270.918C1299.26 268.76 1302.23 266.576 1305.21 264.366C1303.55 265.162 1301.87 265.972 1300.21 266.757ZM1314.15 256.139C1310.83 258.695 1307.54 261.175 1304.24 263.696C1306.01 262.852 1307.79 261.988 1309.56 261.131C1312.82 258.72 1316.08 256.292 1319.35 253.858C1317.61 254.625 1315.88 255.382 1314.15 256.139ZM1327.89 245.448C1324.4 248.177 1320.89 250.918 1317.44 253.584C1319.3 252.763 1321.15 251.962 1323.01 251.131C1326.46 248.549 1329.94 245.891 1333.43 243.231C1331.58 243.979 1329.74 244.71 1327.89 245.448ZM247.1 415.892C247.993 416.098 248.891 416.297 249.782 416.508C251.378 416.15 252.972 415.791 254.569 415.438C253.659 415.279 252.75 415.123 251.84 414.968C250.26 415.271 248.679 415.581 247.1 415.892ZM242.255 414.795C243.071 414.974 243.885 415.16 244.698 415.343C246.128 415.059 247.558 414.77 248.987 414.491C248.167 414.356 247.35 414.212 246.53 414.08C245.105 414.313 243.68 414.554 242.255 414.795ZM237.44 413.762C238.161 413.913 238.878 414.071 239.597 414.225C240.842 414.012 242.089 413.797 243.334 413.587C242.595 413.473 241.858 413.356 241.12 413.245C239.895 413.412 238.666 413.592 237.44 413.762ZM232.684 412.795C233.283 412.914 233.882 413.032 234.48 413.154L237.557 412.722C236.953 412.636 236.347 412.552 235.744 412.467C234.725 412.574 233.704 412.684 232.684 412.795ZM228.075 411.895C228.497 411.975 228.922 412.048 229.343 412.129C230.087 412.047 230.828 411.971 231.571 411.891C231.161 411.837 230.748 411.788 230.339 411.736C229.584 411.789 228.83 411.839 228.075 411.895ZM223.72 411.091L224.154 411.17C224.501 411.143 224.85 411.112 225.197 411.086L224.897 411.049L223.72 411.091ZM1236.1 312.556C1235.06 313.32 1234.02 314.093 1232.97 314.861C1233.38 314.611 1233.78 314.369 1234.19 314.119C1235.25 313.362 1236.33 312.583 1237.4 311.811C1236.96 312.066 1236.54 312.304 1236.1 312.556ZM1249.69 302.466C1247.82 303.876 1245.96 305.27 1244.12 306.645C1244.93 306.168 1245.74 305.684 1246.55 305.206C1248.52 303.782 1250.51 302.344 1252.48 300.923C1251.55 301.443 1250.62 301.949 1249.69 302.466ZM1262.94 292.437C1260.46 294.314 1257.97 296.204 1255.5 298.069C1256.91 297.277 1258.34 296.471 1259.75 295.669C1262.18 293.899 1264.64 292.061 1267.09 290.236C1265.71 290.967 1264.32 291.712 1262.94 292.437ZM1276.69 281.968C1273.81 284.18 1270.97 286.35 1268.12 288.519C1269.63 287.718 1271.13 286.93 1272.65 286.121L1281.38 279.644C1279.81 280.429 1278.25 281.193 1276.69 281.968ZM1290.45 271.299C1287.22 273.809 1283.99 276.317 1280.79 278.79C1282.61 277.877 1284.46 276.926 1286.29 276.001C1289.38 273.68 1292.54 271.263 1295.68 268.868C1293.93 269.682 1292.19 270.496 1290.45 271.299ZM1304.52 260.313C1301.03 263.064 1297.57 265.77 1294.1 268.468C1295.91 267.626 1297.71 266.803 1299.52 265.948C1303.03 263.276 1306.54 260.628 1310.07 257.934C1308.22 258.736 1306.37 259.522 1304.52 260.313ZM1318.62 249.13C1314.91 252.083 1311.2 255.031 1307.52 257.934C1309.5 257.082 1311.48 256.195 1313.46 255.329C1317.05 252.573 1320.71 249.7 1324.35 246.853C1322.44 247.612 1320.53 248.384 1318.62 249.13ZM248.819 420.256C294.448 434.497 337.451 455.151 381.267 476.207C542.021 553.462 713.846 635.958 1067.63 424.565M239.417 417.416C240.332 417.68 241.243 417.958 242.155 418.229C243.87 417.837 245.586 417.446 247.301 417.061C246.36 416.843 245.416 416.627 244.472 416.413C242.788 416.745 241.104 417.075 239.417 417.416ZM234.698 416.085C235.569 416.328 236.44 416.573 237.31 416.821C238.891 416.498 240.469 416.182 242.048 415.869C241.154 415.671 240.254 415.483 239.356 415.291C237.805 415.553 236.252 415.813 234.698 416.085ZM230.029 414.814C230.841 415.031 231.655 415.24 232.464 415.461C233.877 415.211 235.29 414.963 236.702 414.72C235.877 414.547 235.049 414.382 234.223 414.214C232.826 414.411 231.428 414.61 230.029 414.814ZM225.42 413.606C226.136 413.789 226.851 413.974 227.564 414.16C228.781 413.979 230 413.788 231.216 413.613C230.496 413.47 229.781 413.321 229.061 413.183C227.85 413.319 226.634 413.465 225.42 413.606ZM220.849 412.467C221.443 412.612 222.034 412.764 222.628 412.911L225.658 412.555C225.057 412.444 224.457 412.33 223.855 412.222L220.849 412.467ZM216.36 411.407L217.64 411.704C218.384 411.639 219.124 411.583 219.866 411.522L218.614 411.31C217.862 411.344 217.112 411.371 216.36 411.407ZM212.221 410.462L212.718 410.57L213.746 410.513L213.322 410.448C212.956 410.45 212.587 410.459 212.221 410.462ZM1212.01 328.759C1211.12 329.426 1210.22 330.106 1209.34 330.765L1209.58 330.617C1210.68 329.82 1211.78 329.04 1212.88 328.243L1212.01 328.759ZM1225.47 318.643C1223.55 320.08 1221.64 321.515 1219.72 322.961C1220.65 322.4 1221.6 321.806 1222.54 321.241C1224.38 319.893 1226.25 318.5 1228.11 317.128C1227.23 317.633 1226.35 318.141 1225.47 318.643ZM1238.78 308.487C1236.53 310.228 1234.27 311.985 1232.04 313.679C1233.16 313.035 1234.26 312.417 1235.38 311.767C1237.92 309.894 1240.42 308.065 1242.96 306.178C1241.57 306.938 1240.17 307.734 1238.78 308.487ZM1252.72 297.744L1244.21 304.302C1245.8 303.431 1247.39 302.549 1248.98 301.668C1251.7 299.63 1254.45 297.531 1257.2 295.446C1255.7 296.226 1254.22 296.973 1252.72 297.744ZM1266.58 286.917C1263.44 289.394 1260.31 291.869 1257.21 294.282C1258.88 293.416 1260.55 292.525 1262.22 291.648C1265.48 289.18 1268.69 286.781 1271.96 284.283C1270.16 285.163 1268.37 286.05 1266.58 286.917ZM1280.73 275.753C1277.28 278.477 1273.85 281.189 1270.41 283.893C1272.27 282.985 1274.12 282.085 1275.99 281.164C1279.33 278.597 1282.71 275.956 1286.09 273.327C1284.3 274.149 1282.52 274.943 1280.73 275.753ZM1294.99 264.358C1291.32 267.316 1287.66 270.258 1284.03 273.146C1285.93 272.278 1287.84 271.378 1289.75 270.497C1293.44 267.624 1297.11 264.794 1300.83 261.879C1298.89 262.706 1296.94 263.544 1294.99 264.358ZM1309.51 252.635C1305.62 255.784 1301.75 258.911 1297.88 262.026C1299.86 261.19 1301.84 260.351 1303.83 259.502C1307.61 256.531 1311.45 253.47 1315.27 250.422C1313.35 251.169 1311.43 251.899 1309.51 252.635ZM231.752 418.998C232.683 419.329 233.616 419.656 234.544 419.991C236.348 419.569 238.151 419.154 239.953 418.739C238.986 418.458 238.017 418.178 237.047 417.903C235.282 418.267 233.517 418.631 231.752 418.998ZM227.242 417.427C228.136 417.733 229.032 418.037 229.925 418.349C231.598 417.998 233.271 417.654 234.944 417.31C234.024 417.052 233.108 416.788 232.186 416.537C230.538 416.832 228.89 417.126 227.242 417.427ZM222.743 415.909C223.586 416.186 224.423 416.474 225.263 416.757C226.805 416.474 228.344 416.201 229.886 415.926C229.012 415.694 228.141 415.457 227.266 415.231C225.759 415.455 224.253 415.675 222.743 415.909ZM218.233 414.462C219.018 414.71 219.801 414.963 220.585 415.217C221.976 414.998 223.366 414.79 224.755 414.582C223.941 414.375 223.124 414.174 222.308 413.971C220.95 414.132 219.592 414.292 218.233 414.462ZM213.773 413.088C214.486 413.303 215.201 413.514 215.914 413.734C217.114 413.582 218.317 413.422 219.517 413.276C218.78 413.099 218.037 412.933 217.298 412.759C216.124 412.862 214.948 412.98 213.773 413.088ZM209.383 411.783C209.982 411.957 210.581 412.128 211.179 412.304C212.169 412.209 213.158 412.121 214.148 412.027C213.55 411.892 212.953 411.753 212.354 411.619C211.364 411.674 210.375 411.725 209.383 411.783ZM205.102 410.57C205.528 410.688 205.95 410.81 206.374 410.93C207.1 410.885 207.823 410.841 208.547 410.8C208.125 410.71 207.708 410.617 207.288 410.53C206.56 410.541 205.832 410.555 205.102 410.57ZM201.057 409.484L201.591 409.626L202.658 409.596L202.191 409.505L201.057 409.484ZM1187.97 345.21L1187.79 345.345L1188 345.187L1187.97 345.21ZM1200.81 335.384C1199.15 336.651 1197.48 337.935 1195.83 339.191C1196.55 338.75 1197.25 338.333 1197.96 337.891C1199.9 336.463 1201.79 335.099 1203.74 333.65C1202.76 334.221 1201.78 334.817 1200.81 335.384ZM1214.79 324.686C1212.44 326.496 1210.13 328.235 1207.79 330.039C1208.96 329.346 1210.13 328.659 1211.31 327.961C1213.56 326.277 1215.83 324.558 1218.09 322.86C1216.98 323.484 1215.89 324.067 1214.79 324.686ZM1228.45 313.997C1225.71 316.154 1222.96 318.324 1220.24 320.434C1221.73 319.591 1223.24 318.712 1224.74 317.861C1227.53 315.747 1230.3 313.661 1233.12 311.51C1231.56 312.348 1230 313.169 1228.45 313.997ZM1242.51 302.974C1239.38 305.439 1236.27 307.86 1233.14 310.321C1234.79 309.435 1236.42 308.59 1238.07 307.691C1241.2 305.289 1244.36 302.846 1247.52 300.409C1245.85 301.259 1244.17 302.136 1242.51 302.974ZM1256.66 291.67C1253.32 294.357 1249.97 297.063 1246.68 299.678C1248.45 298.774 1250.23 297.863 1252.01 296.948C1255.36 294.344 1258.71 291.749 1262.1 289.097C1260.28 289.971 1258.47 290.807 1256.66 291.67ZM1271.09 280.084C1267.42 283.038 1263.77 285.956 1260.11 288.901C1262.03 287.98 1263.95 287.048 1265.88 286.113C1269.47 283.291 1273.1 280.423 1276.72 277.552C1274.85 278.394 1272.96 279.254 1271.09 280.084ZM1285.64 268.219C1281.83 271.347 1278.02 274.493 1274.27 277.532C1276.19 276.674 1278.11 275.815 1280.03 274.944C1283.83 271.926 1287.64 268.902 1291.47 265.826C1289.53 266.636 1287.58 267.422 1285.64 268.219ZM1300.44 256.071C1296.38 259.41 1292.36 262.7 1288.31 266.023C1290.31 265.2 1292.3 264.384 1294.3 263.549C1298.26 260.363 1302.26 257.126 1306.27 253.882C1304.33 254.619 1302.38 255.344 1300.44 256.071ZM224.11 420.614C225.039 421.008 225.963 421.411 226.889 421.812C228.758 421.365 230.629 420.91 232.498 420.468C231.537 420.123 230.576 419.778 229.614 419.441C227.78 419.826 225.945 420.221 224.11 420.614ZM219.798 418.807C220.698 419.176 221.593 419.559 222.488 419.934C224.247 419.556 226.006 419.17 227.762 418.797C226.823 418.473 225.879 418.158 224.936 417.84C223.225 418.156 221.51 418.483 219.798 418.807ZM215.457 417.063C216.329 417.408 217.201 417.754 218.071 418.107C219.708 417.795 221.345 417.484 222.981 417.179C222.073 416.879 221.162 416.589 220.252 416.294C218.655 416.547 217.056 416.804 215.457 417.063ZM211.116 415.374C211.952 415.693 212.791 416.005 213.626 416.33C215.125 416.086 216.621 415.85 218.118 415.611C217.265 415.341 216.413 415.069 215.558 414.805C214.078 414.992 212.598 415.177 211.116 415.374ZM206.818 413.756C207.586 414.038 208.351 414.327 209.116 414.614C210.473 414.432 211.826 414.257 213.18 414.084C212.386 413.845 211.595 413.599 210.798 413.364C209.473 413.491 208.145 413.622 206.818 413.756ZM202.54 412.218C203.232 412.461 203.919 412.715 204.609 412.961C205.779 412.84 206.953 412.71 208.123 412.593C207.411 412.388 206.697 412.187 205.983 411.986C204.837 412.059 203.687 412.139 202.54 412.218ZM198.268 410.753C198.864 410.953 199.46 411.152 200.055 411.357C201.039 411.287 202.022 411.225 203.006 411.158C202.398 410.994 201.787 410.837 201.178 410.675C200.208 410.701 199.241 410.722 198.268 410.753ZM194.185 409.4C194.625 409.543 195.07 409.677 195.509 409.821C196.214 409.794 196.922 409.758 197.626 409.735C197.184 409.622 196.738 409.518 196.295 409.407C195.594 409.4 194.888 409.404 194.185 409.4ZM190.304 408.169L190.852 408.343C191.223 408.342 191.593 408.346 191.965 408.346C191.805 408.309 191.648 408.268 191.488 408.23L190.304 408.169ZM1162.73 362.661L1160.37 364.45L1160.56 364.33C1161.41 363.703 1162.28 363.04 1163.14 362.404L1162.73 362.661ZM1176.37 352.228C1174.93 353.355 1173.47 354.498 1172.04 355.594L1173.43 354.725C1175.06 353.513 1176.69 352.292 1178.3 351.091C1177.65 351.48 1177.02 351.842 1176.37 352.228ZM1190.1 341.553C1187.86 343.29 1185.61 345.044 1183.38 346.777C1184.66 346.004 1185.95 345.205 1187.24 344.426C1189.35 342.829 1191.5 341.169 1193.65 339.525C1192.46 340.21 1191.28 340.873 1190.1 341.553ZM1204.16 330.563C1201.39 332.749 1198.67 334.868 1195.92 337.02C1197.31 336.218 1198.69 335.411 1200.08 334.601C1202.87 332.464 1205.67 330.317 1208.46 328.181C1207.03 328.976 1205.59 329.777 1204.16 330.563ZM1217.99 319.543C1215 321.931 1212 324.329 1209.03 326.682C1210.71 325.752 1212.37 324.842 1214.06 323.9C1217.03 321.601 1220.04 319.242 1223.05 316.879C1221.36 317.769 1219.67 318.664 1217.99 319.543ZM1232.56 307.916C1229.12 310.685 1225.74 313.352 1222.32 316.092C1224.12 315.144 1225.93 314.164 1227.73 313.203C1231.07 310.593 1234.4 307.976 1237.75 305.351C1236.01 306.218 1234.29 307.061 1232.56 307.916ZM1246.74 296.357C1243.2 299.254 1239.65 302.159 1236.14 304.992C1238.03 304.054 1239.9 303.137 1241.78 302.184C1245.33 299.379 1248.91 296.512 1252.5 293.634C1250.58 294.536 1248.65 295.468 1246.74 296.357ZM1261.65 284.209C1257.76 287.398 1253.94 290.481 1250.07 293.646C1252.02 292.728 1253.99 291.796 1255.95 290.864C1259.72 287.842 1263.5 284.812 1267.29 281.759C1265.41 282.589 1263.53 283.391 1261.65 284.209ZM1276.3 272.019C1272.34 275.325 1268.37 278.648 1264.47 281.868C1266.44 281.007 1268.41 280.155 1270.38 279.279C1274.31 276.099 1278.28 272.86 1282.26 269.602C1280.27 270.412 1278.28 271.223 1276.3 272.019ZM1291.43 259.418C1287.21 262.943 1283.04 266.394 1278.83 269.91C1280.86 269.089 1282.9 268.24 1284.94 267.407C1289.06 264.027 1293.2 260.639 1297.35 257.218C1295.38 257.952 1293.4 258.696 1291.43 259.418ZM216.451 422.271C217.369 422.735 218.285 423.202 219.2 423.672C221.143 423.196 223.086 422.725 225.03 422.259C224.07 421.847 223.105 421.444 222.141 421.038C220.244 421.446 218.348 421.854 216.451 422.271ZM212.327 420.236C213.231 420.677 214.137 421.111 215.036 421.559C216.865 421.153 218.692 420.755 220.52 420.359C219.585 419.971 218.649 419.582 217.711 419.202C215.919 419.542 214.123 419.885 212.327 420.236ZM208.202 418.259C209.08 418.672 209.956 419.085 210.831 419.506C212.543 419.168 214.256 418.833 215.968 418.504C215.06 418.141 214.156 417.771 213.244 417.416C211.566 417.691 209.885 417.975 208.202 418.259ZM204.077 416.339C204.918 416.721 205.753 417.118 206.591 417.506C208.181 417.235 209.774 416.959 211.363 416.695C210.487 416.357 209.608 416.023 208.729 415.692C207.179 415.904 205.628 416.121 204.077 416.339ZM199.894 414.48C200.704 414.835 201.512 415.197 202.319 415.558C203.794 415.348 205.267 415.147 206.74 414.943C205.896 414.632 205.046 414.335 204.198 414.03C202.764 414.178 201.332 414.322 199.894 414.48ZM195.765 412.713C196.521 413.031 197.28 413.344 198.033 413.669C199.354 413.519 200.674 413.376 201.991 413.237C201.203 412.959 200.411 412.686 199.62 412.414C198.337 412.508 197.05 412.612 195.765 412.713ZM191.656 411.013C192.342 411.291 193.03 411.566 193.714 411.848C194.856 411.755 195.999 411.663 197.139 411.574C196.448 411.342 195.762 411.102 195.069 410.875C193.932 410.921 192.795 410.963 191.656 411.013ZM187.606 409.4C188.175 409.621 188.737 409.853 189.304 410.076C190.262 410.03 191.217 409.994 192.173 409.955C191.578 409.767 190.983 409.574 190.386 409.388C189.461 409.389 188.533 409.394 187.606 409.4ZM183.627 407.903L184.918 408.387C185.615 408.377 186.313 408.369 187.009 408.362L185.706 407.976L183.627 407.903ZM179.841 406.526L180.461 406.743L181.519 406.772L180.941 406.614L179.841 406.526ZM1151.77 369.372C1150.31 370.514 1148.86 371.648 1147.41 372.768L1148.95 371.779C1150.46 370.643 1151.99 369.471 1153.51 368.32C1152.93 368.676 1152.35 369.018 1151.77 369.372ZM1165.47 358.65C1163.21 360.411 1160.95 362.19 1158.69 363.952C1159.78 363.285 1160.88 362.573 1161.97 361.901C1164.32 360.11 1166.63 358.373 1168.99 356.576C1167.81 357.269 1166.64 357.962 1165.47 358.65ZM1179.28 347.731C1176.75 349.754 1174.22 351.779 1171.72 353.754C1173.04 352.969 1174.35 352.216 1175.67 351.424C1178.28 349.414 1180.93 347.34 1183.56 345.285C1182.14 346.092 1180.7 346.934 1179.28 347.731ZM1193.61 336.296C1190.6 338.704 1187.59 341.101 1184.58 343.5C1186.18 342.593 1187.78 341.676 1189.38 340.758C1192.4 338.404 1195.38 336.098 1198.4 333.738C1196.79 334.613 1195.21 335.433 1193.61 336.296ZM1207.9 324.734C1204.59 327.428 1201.28 330.138 1198.02 332.764C1199.81 331.79 1201.64 330.762 1203.44 329.775C1206.64 327.243 1209.9 324.628 1213.15 322.029C1211.4 322.937 1209.65 323.838 1207.9 324.734ZM1222.47 312.882C1218.89 315.815 1215.36 318.659 1211.8 321.559C1213.63 320.615 1215.45 319.698 1217.28 318.74C1220.9 315.856 1224.48 313.012 1228.1 310.118C1226.23 311.037 1224.34 311.976 1222.47 312.882ZM1237.15 300.737C1233.38 303.866 1229.61 307.001 1225.88 310.066C1227.86 309.098 1229.86 308.098 1231.85 307.116C1235.48 304.186 1239.18 301.148 1242.87 298.132C1240.96 299.011 1239.06 299.869 1237.15 300.737ZM1252.06 288.341C1248.08 291.672 1244.14 294.944 1240.19 298.221C1242.14 297.327 1244.08 296.459 1246.03 295.551C1250.03 292.289 1254.01 289.061 1258.02 285.781C1256.04 286.634 1254.05 287.502 1252.06 288.341ZM1267.16 275.632C1263.01 279.141 1258.86 282.637 1254.74 286.086C1256.81 285.204 1258.88 284.294 1260.94 283.397C1264.95 280.097 1269.04 276.679 1273.11 273.281C1271.12 274.07 1269.14 274.857 1267.16 275.632ZM1282.45 262.653C1278.15 266.324 1273.86 269.974 1269.61 273.571C1271.61 272.782 1273.6 272 1275.6 271.2C1279.89 267.627 1284.15 264.094 1288.45 260.5C1286.45 261.229 1284.45 261.938 1282.45 262.653ZM208.8 423.991C209.7 424.52 210.601 425.048 211.498 425.586C213.483 425.087 215.468 424.596 217.452 424.106C216.516 423.628 215.583 423.147 214.643 422.679C212.696 423.113 210.75 423.549 208.8 423.991ZM204.884 421.715C205.769 422.22 206.65 422.733 207.53 423.246C209.42 422.814 211.309 422.393 213.198 421.972C212.274 421.517 211.348 421.064 210.42 420.616C208.576 420.978 206.731 421.341 204.884 421.715ZM200.957 419.501C201.821 419.979 202.676 420.47 203.536 420.956C205.329 420.59 207.121 420.239 208.913 419.887C208.001 419.453 207.083 419.031 206.167 418.604C204.432 418.9 202.696 419.195 200.957 419.501ZM197 417.362C197.847 417.814 198.694 418.269 199.537 418.73C201.211 418.432 202.885 418.14 204.556 417.852C203.666 417.443 202.772 417.044 201.878 416.643C200.254 416.876 198.627 417.121 197 417.362ZM193.025 415.278C193.854 415.705 194.686 416.124 195.512 416.559C197.052 416.329 198.592 416.092 200.129 415.867C199.28 415.493 198.434 415.115 197.583 414.748C196.064 414.921 194.546 415.097 193.025 415.278ZM189.058 413.265C189.841 413.653 190.62 414.047 191.399 414.442C192.828 414.269 194.251 414.108 195.677 413.944C194.863 413.6 194.054 413.251 193.237 412.915C191.846 413.027 190.454 413.141 189.058 413.265ZM185.118 411.338C185.845 411.686 186.565 412.046 187.289 412.4C188.568 412.283 189.848 412.164 191.125 412.056C190.359 411.746 189.592 411.441 188.822 411.138C187.59 411.199 186.353 411.271 185.118 411.338ZM181.118 409.476C181.792 409.785 182.465 410.095 183.135 410.41C184.265 410.344 185.392 410.287 186.518 410.226C185.819 409.957 185.112 409.701 184.41 409.437C183.314 409.448 182.219 409.456 181.118 409.476ZM177.243 407.736C177.819 407.989 178.398 408.233 178.971 408.489C179.882 408.468 180.797 408.439 181.706 408.423C181.119 408.208 180.529 408 179.94 407.787C179.043 407.765 178.141 407.754 177.243 407.736ZM173.438 406.085C173.866 406.264 174.289 406.452 174.717 406.635C175.4 406.644 176.08 406.662 176.763 406.673C176.335 406.527 175.914 406.371 175.486 406.226C174.802 406.181 174.123 406.126 173.438 406.085ZM169.837 404.61L170.444 404.859L171.477 404.911L170.894 404.72C170.543 404.683 170.189 404.648 169.837 404.61ZM1126.8 386.976C1125.38 388.096 1123.95 389.236 1122.54 390.332C1123.15 389.939 1123.77 389.525 1124.37 389.131C1125.82 388.028 1127.3 386.881 1128.77 385.755L1126.8 386.976ZM1140.49 376.196L1134.22 381.14C1135.21 380.516 1136.19 379.925 1137.18 379.297C1139.44 377.566 1141.68 375.85 1143.94 374.111C1142.79 374.799 1141.63 375.514 1140.49 376.196ZM1154.47 365.067C1152.01 367.045 1149.54 369.039 1147.1 370.973C1148.46 370.153 1149.81 369.338 1151.17 368.51C1153.63 366.597 1156.13 364.633 1158.61 362.684C1157.22 363.49 1155.85 364.272 1154.47 365.067ZM1168.93 353.467C1165.9 355.913 1162.9 358.296 1159.88 360.723C1161.53 359.765 1163.2 358.767 1164.85 357.799C1167.81 355.47 1170.75 353.183 1173.73 350.821C1172.12 351.716 1170.53 352.582 1168.93 353.467ZM1183.14 341.879C1179.91 344.52 1176.68 347.17 1173.49 349.762C1175.21 348.801 1176.92 347.865 1178.65 346.891C1181.92 344.29 1185.22 341.649 1188.52 339.012C1186.73 339.966 1184.93 340.938 1183.14 341.879ZM1197.82 329.855C1194.29 332.766 1190.8 335.615 1187.3 338.485C1189.18 337.482 1191.06 336.485 1192.96 335.466C1196.4 332.7 1199.86 329.901 1203.34 327.078C1201.49 328.015 1199.66 328.932 1197.82 329.855ZM1212.58 317.593C1208.81 320.734 1205.04 323.866 1201.3 326.962C1203.27 325.967 1205.26 324.917 1207.24 323.905C1210.96 320.885 1214.69 317.858 1218.42 314.811C1216.47 315.747 1214.53 316.671 1212.58 317.593ZM1227.5 305.104C1223.58 308.404 1219.68 311.68 1215.8 314.916C1217.81 313.958 1219.8 313.03 1221.81 312.057C1225.65 308.906 1229.55 305.656 1233.45 302.423C1231.46 303.32 1229.48 304.222 1227.5 305.104ZM1242.73 292.242C1238.58 295.76 1234.45 299.236 1230.32 302.717C1232.37 301.799 1234.43 300.843 1236.49 299.909C1240.59 296.51 1244.66 293.157 1248.79 289.711C1246.77 290.563 1244.75 291.405 1242.73 292.242ZM1258.02 279.171C1253.78 282.822 1249.52 286.482 1245.33 290.047C1247.35 289.2 1249.37 288.371 1251.4 287.511C1255.58 284.012 1259.81 280.44 1264.04 276.866C1262.03 277.648 1260.03 278.402 1258.02 279.171ZM1273.61 265.792C1269.14 269.644 1264.74 273.401 1260.31 277.213C1262.37 276.42 1264.43 275.613 1266.49 274.805C1270.85 271.119 1275.22 267.416 1279.62 263.667C1277.62 264.381 1275.61 265.09 1273.61 265.792ZM201.144 425.758C202.014 426.352 202.877 426.956 203.742 427.56C205.775 427.039 207.808 426.511 209.839 425.997C208.922 425.451 208.003 424.915 207.082 424.377C205.104 424.83 203.124 425.295 201.144 425.758ZM197.431 423.256C198.293 423.829 199.149 424.408 200.005 424.99C201.942 424.537 203.88 424.077 205.815 423.632C204.907 423.107 203.995 422.595 203.084 422.078C201.201 422.465 199.317 422.862 197.431 423.256ZM193.682 420.814C194.538 421.365 195.396 421.913 196.248 422.472C198.083 422.086 199.916 421.706 201.751 421.326C200.86 420.828 199.969 420.331 199.075 419.841C197.279 420.162 195.481 420.483 193.682 420.814ZM189.926 418.438C190.764 418.959 191.605 419.48 192.438 420.011C194.176 419.688 195.912 419.38 197.646 419.071C196.773 418.599 195.904 418.121 195.027 417.658C193.329 417.913 191.63 418.171 189.926 418.438ZM186.17 416.131C186.987 416.621 187.796 417.124 188.608 417.622C190.237 417.365 191.865 417.109 193.492 416.863C192.63 416.413 191.764 415.967 190.897 415.526C189.324 415.719 187.746 415.928 186.17 416.131ZM182.367 413.887C183.163 414.347 183.952 414.819 184.743 415.288C186.259 415.09 187.775 414.894 189.29 414.704C188.457 414.286 187.616 413.886 186.779 413.477C185.309 413.611 183.841 413.74 182.367 413.887ZM178.569 411.733C179.328 412.157 180.087 412.579 180.841 413.009C182.234 412.869 183.623 412.741 185.011 412.612C184.212 412.227 183.408 411.852 182.606 411.475C181.263 411.553 179.916 411.645 178.569 411.733ZM174.757 409.644C175.481 410.032 176.206 410.414 176.926 410.81C178.159 410.725 179.394 410.636 180.625 410.558C179.894 410.221 179.165 409.879 178.43 409.548C177.206 409.58 175.985 409.606 174.757 409.644ZM171.005 407.656C171.642 407.984 172.274 408.325 172.907 408.659C174.001 408.62 175.09 408.593 176.179 408.564C175.502 408.268 174.828 407.969 174.149 407.679C173.103 407.665 172.053 407.662 171.005 407.656ZM167.238 405.761C167.797 406.036 168.35 406.32 168.906 406.599C169.802 406.601 170.701 406.601 171.596 406.606C171.02 406.367 170.441 406.13 169.862 405.894C168.987 405.85 168.115 405.801 167.238 405.761ZM163.578 403.996C163.999 404.194 164.422 404.392 164.84 404.594C165.504 404.62 166.168 404.645 166.829 404.674C166.383 404.499 165.931 404.332 165.482 404.158C164.85 404.098 164.211 404.052 163.578 403.996ZM160.132 402.385C160.349 402.483 160.568 402.575 160.785 402.675C161.131 402.702 161.475 402.735 161.822 402.763C161.609 402.685 161.394 402.613 161.181 402.535C160.831 402.486 160.482 402.433 160.132 402.385ZM1101.5 405.015C1100.17 406.07 1098.82 407.145 1097.49 408.189C1098 407.85 1098.5 407.535 1099.02 407.196C1100.46 406.089 1101.94 404.937 1103.4 403.811C1102.77 404.209 1102.13 404.62 1101.5 405.015ZM1115.39 394.035C1113.43 395.598 1111.5 397.108 1109.54 398.661C1110.52 398.034 1111.5 397.421 1112.49 396.79C1114.53 395.209 1116.54 393.661 1118.59 392.073C1117.53 392.723 1116.45 393.389 1115.39 394.035ZM1129.56 382.66C1127.08 384.66 1124.59 386.674 1122.12 388.646C1123.49 387.802 1124.88 386.934 1126.26 386.08C1128.68 384.182 1131.13 382.239 1133.58 380.316C1132.23 381.112 1130.9 381.873 1129.56 382.66ZM1143.95 371.042C1140.96 373.474 1138.01 375.848 1135.04 378.246C1136.65 377.292 1138.28 376.302 1139.9 375.336C1142.84 373.008 1145.77 370.689 1148.74 368.321C1147.14 369.233 1145.54 370.143 1143.95 371.042ZM1158.16 359.401C1155.02 361.98 1151.87 364.563 1148.74 367.118C1150.45 366.14 1152.15 365.194 1153.87 364.203C1157.09 361.624 1160.33 359.022 1163.57 356.422C1161.77 357.404 1159.95 358.433 1158.16 359.401ZM1172.97 347.18C1169.5 350.064 1166.04 352.931 1162.61 355.757C1164.5 354.723 1166.41 353.667 1168.31 352.617C1171.65 349.915 1175.03 347.148 1178.41 344.383C1176.59 345.338 1174.79 346.24 1172.97 347.18ZM1187.83 334.803C1184.08 337.933 1180.36 341.03 1176.62 344.134C1178.58 343.117 1180.54 342.08 1182.5 341.044C1186.24 337.989 1189.94 334.984 1193.7 331.894C1191.74 332.869 1189.78 333.844 1187.83 334.803ZM1202.76 322.213C1198.91 325.481 1195.04 328.763 1191.24 331.956C1193.22 330.977 1195.19 330.011 1197.18 329.016C1200.99 325.868 1204.85 322.651 1208.7 319.44C1206.72 320.372 1204.74 321.295 1202.76 322.213ZM1218.07 309.24C1213.91 312.781 1209.82 316.236 1205.7 319.729C1207.76 318.765 1209.85 317.747 1211.92 316.765C1215.96 313.396 1220 310.029 1224.08 306.604C1222.07 307.49 1220.07 308.369 1218.07 309.24ZM1233.39 296.079C1229.16 299.727 1224.93 303.364 1220.74 306.946C1222.77 306.054 1224.8 305.177 1226.84 304.268C1231.04 300.74 1235.24 297.186 1239.47 293.604C1237.44 294.441 1235.42 295.257 1233.39 296.079ZM1248.95 282.633C1244.54 286.461 1240.16 290.247 1235.8 294.008C1237.89 293.156 1239.98 292.278 1242.07 291.41C1246.37 287.753 1250.72 284.031 1255.08 280.293C1253.04 281.071 1250.99 281.869 1248.95 282.633ZM1264.75 268.86C1260.2 272.843 1255.68 276.772 1251.17 280.7C1253.23 279.921 1255.3 279.128 1257.36 278.335C1261.87 274.468 1266.35 270.647 1270.89 266.733C1268.84 267.446 1266.79 268.16 1264.75 268.86ZM193.45 427.573C194.29 428.237 195.126 428.903 195.96 429.576C198.035 429.032 200.107 428.496 202.179 427.961C201.294 427.351 200.408 426.74 199.518 426.137C197.497 426.61 195.475 427.087 193.45 427.573ZM189.943 424.85C190.78 425.493 191.623 426.128 192.455 426.779C194.431 426.304 196.406 425.835 198.38 425.371C197.505 424.781 196.631 424.186 195.75 423.607C193.816 424.016 191.88 424.43 189.943 424.85ZM186.418 422.186C187.246 422.802 188.074 423.42 188.897 424.047C190.781 423.637 192.664 423.228 194.545 422.828C193.673 422.26 192.802 421.692 191.926 421.134C190.093 421.476 188.254 421.834 186.418 422.186ZM182.867 419.575C183.686 420.164 184.497 420.769 185.309 421.369C187.101 421.022 188.893 420.679 190.683 420.341C189.821 419.798 188.954 419.267 188.088 418.734C186.35 419.01 184.61 419.287 182.867 419.575ZM179.285 417.046C180.086 417.606 180.886 418.171 181.684 418.74C183.383 418.456 185.078 418.189 186.771 417.919C185.92 417.401 185.062 416.893 184.206 416.384C182.567 416.598 180.927 416.821 179.285 417.046ZM175.679 414.585C176.473 415.12 177.269 415.647 178.059 416.191C179.634 415.971 181.208 415.75 182.779 415.541C181.953 415.056 181.127 414.571 180.297 414.096C178.76 414.254 177.22 414.418 175.679 414.585ZM172.058 412.193C172.826 412.692 173.595 413.19 174.359 413.697C175.827 413.535 177.292 413.383 178.757 413.23C177.96 412.78 177.165 412.325 176.362 411.883C174.929 411.981 173.495 412.082 172.058 412.193ZM168.454 409.886C169.183 410.342 169.904 410.812 170.629 411.275C171.974 411.168 173.319 411.061 174.662 410.963C173.889 410.546 173.114 410.134 172.336 409.724C171.045 409.773 169.75 409.831 168.454 409.886ZM164.792 407.656C165.483 408.07 166.168 408.492 166.854 408.913C168.076 408.855 169.292 408.81 170.511 408.76C169.781 408.382 169.042 408.02 168.308 407.65C167.137 407.648 165.967 407.648 164.792 407.656ZM161.166 405.533C161.801 405.9 162.439 406.259 163.072 406.631C164.117 406.619 165.168 406.598 166.21 406.592C165.552 406.269 164.891 405.953 164.231 405.635C163.211 405.597 162.19 405.565 161.166 405.533ZM157.578 403.505C158.121 403.806 158.667 404.102 159.208 404.406C160.082 404.428 160.949 404.464 161.819 404.493C161.26 404.231 160.706 403.959 160.144 403.702C159.29 403.634 158.435 403.567 157.578 403.505ZM154.101 401.62C154.508 401.834 154.911 402.061 155.317 402.278C155.95 402.321 156.584 402.359 157.216 402.404C156.796 402.219 156.379 402.028 155.959 401.846C155.339 401.769 154.721 401.692 154.101 401.62ZM150.716 399.881L151.342 400.201C151.66 400.235 151.98 400.263 152.297 400.299L151.65 400.032C151.341 399.978 151.027 399.934 150.716 399.881ZM1075.95 423.424C1074.85 424.292 1073.74 425.177 1072.64 426.046C1073.12 425.728 1073.59 425.42 1074.07 425.1C1075.25 424.19 1076.45 423.251 1077.64 422.332C1077.08 422.689 1076.51 423.069 1075.95 423.424ZM1090.36 411.967C1088.45 413.497 1086.57 414.997 1084.69 416.502C1085.63 415.889 1086.58 415.27 1087.53 414.653C1089.5 413.123 1091.42 411.654 1093.39 410.106C1092.37 410.74 1091.37 411.338 1090.36 411.967ZM1104.49 400.57C1101.95 402.611 1099.41 404.669 1096.88 406.708C1098.24 405.855 1099.64 404.944 1101.01 404.083C1103.49 402.13 1105.98 400.147 1108.47 398.185C1107.14 398.986 1105.81 399.776 1104.49 400.57ZM1118.69 389.007C1115.91 391.292 1113.13 393.582 1110.38 395.816C1111.88 394.91 1113.35 394.051 1114.85 393.135C1117.71 390.854 1120.61 388.529 1123.5 386.197C1121.9 387.127 1120.29 388.087 1118.69 389.007ZM1133.28 377.041C1130.11 379.65 1126.97 382.217 1123.81 384.809C1125.53 383.807 1127.25 382.806 1128.98 381.79C1132.13 379.25 1135.27 376.735 1138.43 374.174C1136.71 375.141 1134.99 376.088 1133.28 377.041ZM1147.96 364.826C1144.52 367.703 1141.07 370.59 1137.67 373.409C1139.55 372.356 1141.46 371.248 1143.35 370.181C1146.68 367.468 1150.06 364.689 1153.43 361.922C1151.6 362.905 1149.78 363.858 1147.96 364.826ZM1162.85 352.379C1159.16 355.482 1155.51 358.518 1151.86 361.577C1153.76 360.557 1155.64 359.585 1157.55 358.55C1161.25 355.507 1164.94 352.474 1168.68 349.382C1166.74 350.378 1164.78 351.399 1162.85 352.379ZM1177.9 339.631C1174.03 342.911 1170.17 346.184 1166.34 349.416C1168.34 348.399 1170.33 347.373 1172.33 346.338C1176.13 343.189 1179.94 340.01 1183.76 336.818C1181.8 337.775 1179.85 338.69 1177.9 339.631ZM1193.14 326.619C1189.07 330.112 1185.02 333.583 1180.99 337.009C1183.05 336.012 1185.12 334.979 1187.19 333.964C1191.16 330.636 1195.17 327.248 1199.19 323.847C1197.17 324.777 1195.15 325.705 1193.14 326.619ZM1208.62 313.317C1204.38 316.971 1200.17 320.579 1195.96 324.194C1198.01 323.256 1200.06 322.331 1202.11 321.376C1206.31 317.822 1210.49 314.308 1214.72 310.71C1212.68 311.592 1210.65 312.451 1208.62 313.317ZM1224.16 299.792C1219.81 303.594 1215.45 307.415 1211.16 311.129C1213.24 310.238 1215.33 309.313 1217.41 308.405C1221.68 304.763 1226 301.035 1230.32 297.312C1228.27 298.14 1226.21 298.979 1224.16 299.792ZM1240.05 285.908C1235.5 289.899 1231.02 293.807 1226.51 297.747C1228.58 296.918 1230.66 296.085 1232.74 295.241C1237.19 291.402 1241.64 287.57 1246.14 283.671C1244.1 284.427 1242.08 285.165 1240.05 285.908ZM1255.98 271.818C1251.35 275.931 1246.72 280.026 1242.14 284.059C1244.19 283.303 1246.23 282.566 1248.28 281.799C1252.86 277.828 1257.45 273.824 1262.06 269.785C1260.04 270.475 1258.01 271.139 1255.98 271.818ZM185.736 429.448C186.543 430.18 187.349 430.91 188.151 431.651C190.254 431.086 192.356 430.529 194.458 429.975C193.611 429.294 192.766 428.613 191.915 427.946C189.856 428.442 187.797 428.939 185.736 429.448ZM182.44 426.493C183.242 427.2 184.04 427.915 184.836 428.632C186.859 428.132 188.879 427.645 190.899 427.158C190.051 426.5 189.201 425.849 188.348 425.199C186.381 425.625 184.412 426.052 182.44 426.493ZM179.135 423.609C179.929 424.287 180.713 424.985 181.501 425.674C183.437 425.238 185.369 424.816 187.303 424.394C186.456 423.755 185.602 423.132 184.749 422.504C182.88 422.865 181.008 423.235 179.135 423.609ZM175.772 420.789C176.566 421.447 177.358 422.11 178.146 422.778C179.979 422.409 181.812 422.041 183.642 421.686C182.805 421.074 181.965 420.468 181.121 419.865C179.34 420.167 177.556 420.477 175.772 420.789ZM172.374 418.023C173.168 418.66 173.965 419.289 174.754 419.937C176.488 419.633 178.22 419.336 179.95 419.039C179.129 418.458 178.31 417.871 177.482 417.3C175.78 417.536 174.08 417.771 172.374 418.023ZM168.987 415.346C169.76 415.946 170.53 416.55 171.297 417.159C172.942 416.914 174.583 416.68 176.222 416.449C175.404 415.891 174.583 415.337 173.76 414.789C172.172 414.967 170.579 415.158 168.987 415.346ZM165.565 412.727C166.324 413.293 167.072 413.88 167.825 414.456C169.361 414.273 170.899 414.083 172.433 413.908C171.634 413.384 170.828 412.874 170.025 412.361C168.539 412.48 167.055 412.595 165.565 412.727ZM162.107 410.204C162.84 410.732 163.572 411.266 164.302 411.805C165.737 411.675 167.167 411.56 168.597 411.443C167.812 410.949 167.019 410.465 166.229 409.979C164.859 410.045 163.482 410.126 162.107 410.204ZM158.615 407.743C159.335 408.241 160.061 408.731 160.776 409.24C162.068 409.163 163.363 409.085 164.65 409.017C163.915 408.573 163.179 408.126 162.438 407.689C161.165 407.705 159.893 407.715 158.615 407.743ZM155.165 405.394C155.831 405.837 156.494 406.282 157.155 406.732C158.327 406.703 159.494 406.682 160.661 406.665C159.957 406.258 159.256 405.845 158.547 405.446C157.424 405.42 156.293 405.413 155.165 405.394ZM151.692 403.118C152.302 403.508 152.904 403.915 153.512 404.311C154.532 404.322 155.55 404.34 156.569 404.357C155.93 404.006 155.289 403.658 154.647 403.313C153.661 403.248 152.681 403.174 151.692 403.118ZM148.251 400.986C148.777 401.308 149.302 401.632 149.825 401.959C150.664 402.002 151.505 402.035 152.34 402.084C151.783 401.793 151.22 401.513 150.66 401.228C149.859 401.143 149.055 401.065 148.251 400.986ZM144.854 398.955C145.267 399.196 145.683 399.431 146.095 399.675C146.729 399.733 147.355 399.803 147.986 399.865C147.547 399.649 147.102 399.445 146.662 399.234C146.06 399.141 145.459 399.043 144.854 398.955ZM141.753 397.157C141.951 397.268 142.144 397.386 142.342 397.498L143.287 397.627C143.089 397.535 142.892 397.437 142.695 397.346L141.753 397.157ZM1050.89 441.606L1047.56 444.251L1048.79 443.424C1049.91 442.55 1051.05 441.658 1052.18 440.784C1051.75 441.064 1051.32 441.327 1050.89 441.606ZM1065.01 430.288C1063.12 431.81 1061.23 433.349 1059.36 434.845C1060.35 434.202 1061.35 433.525 1062.33 432.878C1064.2 431.41 1066.09 429.919 1067.98 428.422C1066.99 429.051 1066 429.665 1065.01 430.288ZM1079.25 418.781C1076.78 420.792 1074.35 422.737 1071.89 424.73C1073.1 423.963 1074.27 423.246 1075.49 422.471C1078.05 420.437 1080.61 418.418 1083.18 416.372C1081.87 417.172 1080.55 417.988 1079.25 418.781ZM1093.3 407.254C1090.61 409.462 1087.92 411.685 1085.25 413.865C1086.78 412.924 1088.3 412.001 1089.84 411.05C1092.55 408.875 1095.3 406.643 1098.04 404.429C1096.47 405.363 1094.87 406.332 1093.3 407.254ZM1108.12 395.029C1104.97 397.649 1101.85 400.224 1098.72 402.802C1100.44 401.78 1102.19 400.722 1103.92 399.686C1107 397.193 1110.06 394.725 1113.16 392.195C1111.47 393.16 1109.81 394.074 1108.12 395.029ZM1122.83 382.758C1119.39 385.633 1115.95 388.504 1112.53 391.35C1114.38 390.295 1116.24 389.218 1118.09 388.148C1121.49 385.37 1124.91 382.559 1128.32 379.75C1126.49 380.759 1124.65 381.763 1122.83 382.758ZM1137.59 370.327C1134.03 373.34 1130.48 376.353 1126.97 379.301C1128.87 378.256 1130.76 377.239 1132.68 376.178C1136.24 373.234 1139.84 370.231 1143.45 367.221C1141.5 368.246 1139.53 369.317 1137.59 370.327ZM1152.92 357.334C1149.02 360.655 1145.17 363.904 1141.29 367.187C1143.3 366.134 1145.32 365.046 1147.34 363.975C1151.15 360.799 1154.93 357.662 1158.76 354.449C1156.8 355.433 1154.87 356.367 1152.92 357.334ZM1168.07 344.313C1164.07 347.763 1160.06 351.222 1156.11 354.6C1158.14 353.587 1160.16 352.576 1162.2 351.545C1166.15 348.216 1170.16 344.81 1174.16 341.411C1172.13 342.38 1170.09 343.363 1168.07 344.313ZM1183.61 330.901C1179.4 334.554 1175.23 338.148 1171.06 341.743C1173.12 340.765 1175.18 339.786 1177.25 338.791C1181.37 335.288 1185.5 331.777 1189.66 328.213C1187.64 329.126 1185.63 330.003 1183.61 330.901ZM1199.22 317.281C1194.87 321.092 1190.52 324.88 1186.21 328.631C1188.29 327.698 1190.39 326.739 1192.48 325.789C1196.78 322.108 1201.09 318.403 1205.42 314.668C1203.35 315.541 1201.28 316.424 1199.22 317.281ZM1215.07 303.345C1210.59 307.3 1206.12 311.245 1201.7 315.122C1203.78 314.248 1205.87 313.371 1207.96 312.48C1212.33 308.7 1216.75 304.842 1221.18 300.98C1219.14 301.784 1217.11 302.553 1215.07 303.345ZM1231.12 289.151C1226.48 293.276 1221.88 297.324 1217.27 301.398C1219.35 300.588 1221.42 299.783 1223.5 298.956C1228.09 294.949 1232.66 290.986 1237.29 286.921C1235.23 287.67 1233.18 288.415 1231.12 289.151ZM1247.25 274.721C1242.52 278.965 1237.79 283.22 1233.13 287.365C1235.21 286.615 1237.3 285.833 1239.38 285.071C1244.01 281.003 1248.7 276.846 1253.39 272.686C1251.34 273.367 1249.29 274.051 1247.25 274.721ZM178.013 431.386C178.777 432.181 179.535 432.986 180.293 433.792C182.428 433.206 184.564 432.615 186.697 432.037C185.883 431.287 185.063 430.551 184.244 429.81C182.169 430.327 180.09 430.86 178.013 431.386ZM174.926 428.209C175.689 428.982 176.445 429.769 177.203 430.552C179.252 430.034 181.302 429.511 183.35 429C182.54 428.273 181.723 427.558 180.908 426.843C178.915 427.295 176.921 427.748 174.926 428.209ZM171.791 425.097C172.559 425.849 173.325 426.604 174.086 427.368C176.049 426.912 178.01 426.467 179.97 426.024C179.163 425.322 178.356 424.622 177.544 423.931C175.628 424.314 173.712 424.699 171.791 425.097ZM168.65 422.061C169.412 422.788 170.176 423.51 170.934 424.246C172.81 423.856 174.682 423.476 176.554 423.099C175.748 422.421 174.945 421.738 174.135 421.071C172.308 421.393 170.479 421.727 168.65 422.061ZM165.472 419.08C166.232 419.78 166.987 420.488 167.741 421.2C169.525 420.872 171.31 420.54 173.09 420.224C172.288 419.571 171.482 418.925 170.674 418.283C168.942 418.544 167.208 418.807 165.472 419.08ZM162.277 416.175C163.024 416.841 163.762 417.523 164.505 418.201C166.206 417.932 167.902 417.675 169.599 417.42C168.8 416.791 167.991 416.18 167.187 415.562C165.553 415.76 163.916 415.963 162.277 416.175ZM159.028 413.349C159.772 413.988 160.517 414.631 161.255 415.281C162.847 415.074 164.438 414.866 166.026 414.671C165.24 414.076 164.453 413.486 163.661 412.901C162.119 413.044 160.574 413.195 159.028 413.349ZM155.754 410.594C156.49 411.201 157.226 411.801 157.956 412.419C159.443 412.268 160.927 412.129 162.41 411.988C161.646 411.43 160.885 410.864 160.116 410.317C158.665 410.403 157.211 410.494 155.754 410.594ZM152.477 407.923C153.187 408.489 153.894 409.063 154.599 409.637C155.977 409.54 157.356 409.442 158.73 409.357C157.983 408.834 157.238 408.313 156.487 407.801C155.151 407.838 153.816 407.877 152.477 407.923ZM149.183 405.341C149.857 405.856 150.522 406.39 151.193 406.916C152.469 406.867 153.739 406.834 155.01 406.798C154.284 406.311 153.549 405.838 152.817 405.359C151.609 405.346 150.397 405.342 149.183 405.341ZM145.838 402.849C146.487 403.325 147.134 403.804 147.778 404.289C148.908 404.285 150.043 404.272 151.169 404.279C150.492 403.843 149.804 403.425 149.123 403C148.028 402.948 146.937 402.892 145.838 402.849ZM142.523 400.468C143.115 400.884 143.714 401.291 144.303 401.715C145.289 401.748 146.269 401.795 147.25 401.841C146.621 401.458 145.992 401.073 145.359 400.696C144.418 400.611 143.467 400.545 142.523 400.468ZM139.228 398.187C139.744 398.535 140.258 398.889 140.772 399.243C141.578 399.303 142.38 399.367 143.183 399.431C142.654 399.125 142.131 398.811 141.6 398.51C140.808 398.404 140.022 398.287 139.228 398.187ZM136.032 396.084C136.417 396.332 136.797 396.588 137.179 396.838C137.757 396.906 138.34 396.963 138.916 397.036C138.512 396.815 138.11 396.594 137.707 396.378C137.151 396.276 136.59 396.183 136.032 396.084ZM132.891 394.113L133.525 394.504C133.828 394.553 134.125 394.611 134.428 394.662L133.765 394.326C133.472 394.258 133.184 394.181 132.891 394.113ZM1025.73 460.028C1024.5 461.014 1023.31 461.952 1022.09 462.927L1022.89 462.38L1026.8 459.328L1025.73 460.028ZM1039.5 448.9C1037.61 450.419 1035.72 451.959 1033.84 453.477C1034.73 452.886 1035.61 452.314 1036.5 451.718C1038.44 450.192 1040.4 448.62 1042.35 447.073C1041.4 447.681 1040.44 448.298 1039.5 448.9ZM1053.56 437.464C1051.35 439.285 1049.14 441.097 1046.95 442.881C1048.13 442.12 1049.29 441.384 1050.48 440.616C1052.88 438.702 1055.25 436.83 1057.67 434.89C1056.31 435.734 1054.92 436.629 1053.56 437.464ZM1068.14 425.487C1065.4 427.739 1062.67 429.983 1059.94 432.226C1061.46 431.275 1063 430.31 1064.52 429.347C1067.16 427.22 1069.82 425.063 1072.47 422.926C1071.01 423.804 1069.59 424.618 1068.14 425.487ZM1082.75 413.345C1079.64 415.946 1076.52 418.565 1073.45 421.108C1075.19 420.058 1076.98 418.936 1078.72 417.873C1081.72 415.432 1084.76 412.931 1087.8 410.432C1086.11 411.415 1084.43 412.375 1082.75 413.345ZM1097.56 400.973C1094.16 403.828 1090.82 406.603 1087.45 409.423C1089.22 408.389 1090.97 407.41 1092.75 406.363C1096.2 403.523 1099.62 400.727 1103.1 397.855C1101.26 398.89 1099.39 399.953 1097.56 400.973ZM1112.41 388.388C1108.85 391.412 1105.28 394.438 1101.76 397.412C1103.68 396.334 1105.6 395.254 1107.54 394.161C1111.03 391.262 1114.56 388.302 1118.09 385.349C1116.19 386.375 1114.3 387.379 1112.41 388.388ZM1127.63 375.405C1123.78 378.713 1119.94 381.986 1116.13 385.235C1118.14 384.151 1120.2 382.999 1122.22 381.897C1125.97 378.758 1129.72 375.603 1133.51 372.406C1131.54 373.422 1129.59 374.406 1127.63 375.405ZM1142.89 362.287C1138.9 365.721 1134.94 369.132 1130.98 372.528C1132.98 371.498 1134.96 370.514 1136.98 369.467C1140.97 366.085 1144.99 362.684 1149.01 359.262C1146.98 360.265 1144.92 361.301 1142.89 362.287ZM1158.42 348.791C1154.28 352.407 1150.13 356.036 1146.05 359.572C1148.12 358.558 1150.2 357.524 1152.28 356.492C1156.3 353.062 1160.38 349.54 1164.46 346.03C1162.43 346.974 1160.44 347.864 1158.42 348.791ZM1174.15 335.066C1169.79 338.89 1165.49 342.627 1161.17 346.397C1163.25 345.431 1165.34 344.457 1167.43 343.473C1171.73 339.767 1176.01 336.092 1180.36 332.332C1178.29 333.244 1176.21 334.171 1174.15 335.066ZM1189.97 321.077C1185.53 325.019 1181.08 328.961 1176.68 332.826C1178.77 331.912 1180.86 330.993 1182.96 330.062C1187.31 326.287 1191.7 322.442 1196.1 318.594C1194.05 319.442 1192.02 320.244 1189.97 321.077ZM1205.98 306.855C1201.39 310.95 1196.83 315.01 1192.29 319.033C1194.38 318.177 1196.47 317.316 1198.57 316.443C1203.09 312.484 1207.64 308.483 1212.21 304.45C1210.14 305.249 1208.05 306.07 1205.98 306.855ZM1222.25 292.288C1217.52 296.538 1212.82 300.751 1208.13 304.936C1210.22 304.138 1212.32 303.315 1214.42 302.502C1219.07 298.392 1223.74 294.27 1228.44 290.101C1226.38 290.834 1224.31 291.567 1222.25 292.288ZM1238.62 277.504C1233.81 281.867 1228.99 286.242 1224.24 290.51C1226.32 289.78 1228.39 289.052 1230.47 288.309C1235.17 284.121 1239.96 279.818 1244.74 275.529C1242.7 276.192 1240.66 276.851 1238.62 277.504ZM1221.6 291.442C1226.41 287.122 1231.28 282.708 1236.16 278.299C1047.01 338.403 863.688 351.506 680.581 364.595C569.388 372.543 458.275 380.491 345.99 398.96C443.347 386.47 539.381 382.644 635.973 378.799C824.398 371.297 1014.96 363.696 1221.6 291.442ZM1205.34 306.005C1210.07 301.787 1214.84 297.513 1219.62 293.221C1013.69 364.782 823.721 372.339 635.865 379.819C534.016 383.874 432.79 387.913 329.988 402.115C420.106 393.113 508.585 392.655 597.909 392.2C788.486 391.232 982.917 390.25 1205.34 306.005ZM1067.63 424.565C1070.91 421.857 1074.2 419.127 1077.52 416.366C741.392 608.481 564.791 536.843 398.954 469.503C351.138 450.086 304.214 431.04 254.603 418.806M170.25 433.377C170.971 434.237 171.687 435.107 172.401 435.979C174.565 435.371 176.728 434.773 178.891 434.177C178.12 433.363 177.348 432.552 176.572 431.75C174.467 432.286 172.358 432.828 170.25 433.377ZM167.362 429.99C168.089 430.833 168.816 431.671 169.536 432.524C171.612 431.982 173.689 431.446 175.763 430.917C174.993 430.124 174.226 429.328 173.449 428.548C171.422 429.02 169.392 429.506 167.362 429.99ZM164.446 426.659C165.174 427.48 165.903 428.299 166.625 429.131C168.618 428.654 170.611 428.173 172.601 427.707C171.831 426.94 171.062 426.172 170.288 425.417C168.342 425.826 166.395 426.238 164.446 426.659ZM161.507 423.395C162.232 424.186 162.952 424.988 163.672 425.792C165.589 425.377 167.506 424.972 169.421 424.568C168.647 423.82 167.866 423.087 167.086 422.35C165.228 422.692 163.37 423.038 161.507 423.395ZM158.538 420.206C159.261 420.969 159.977 421.747 160.695 422.524C162.525 422.171 164.353 421.826 166.18 421.488C165.403 420.762 164.62 420.046 163.838 419.33C162.075 419.613 160.305 419.912 158.538 420.206ZM155.507 417.075C156.236 417.819 156.966 418.562 157.69 419.318C159.421 419.028 161.151 418.736 162.879 418.456C162.117 417.767 161.354 417.077 160.586 416.4C158.896 416.619 157.204 416.839 155.507 417.075ZM152.478 414.042C153.197 414.751 153.917 415.454 154.629 416.173C156.274 415.942 157.915 415.724 159.556 415.507C158.795 414.842 158.037 414.172 157.269 413.519C155.676 413.684 154.076 413.864 152.478 414.042ZM149.397 411.056C150.112 411.735 150.821 412.424 151.531 413.114C153.078 412.94 154.625 412.761 156.168 412.598C155.417 411.968 154.663 411.346 153.908 410.728C152.405 410.833 150.905 410.934 149.397 411.056ZM146.318 408.184C147.01 408.815 147.694 409.466 148.38 410.108C149.841 409.986 151.298 409.878 152.753 409.773C152.001 409.167 151.239 408.58 150.481 407.986C149.099 408.041 147.706 408.117 146.318 408.184ZM143.159 405.37C143.846 405.974 144.533 406.577 145.214 407.191C146.553 407.123 147.89 407.057 149.225 406.998C148.506 406.442 147.784 405.892 147.06 405.346C145.762 405.35 144.464 405.353 143.159 405.37ZM140.014 402.671C140.675 403.227 141.34 403.776 141.996 404.342C143.216 404.321 144.433 404.304 145.646 404.295C144.957 403.785 144.273 403.265 143.577 402.764C142.393 402.726 141.203 402.699 140.014 402.671ZM136.853 400.053C137.471 400.552 138.085 401.061 138.698 401.569C139.8 401.588 140.896 401.624 141.995 401.654C141.339 401.191 140.682 400.726 140.023 400.27C138.968 400.192 137.911 400.121 136.853 400.053ZM133.685 397.55C134.252 397.988 134.814 398.442 135.377 398.887C136.324 398.942 137.277 398.986 138.222 399.049C137.624 398.646 137.02 398.255 136.419 397.86C135.507 397.756 134.599 397.647 133.685 397.55ZM130.524 395.176C131.012 395.537 131.502 395.898 131.988 396.264C132.79 396.343 133.585 396.433 134.382 396.523C133.837 396.175 133.282 395.847 132.735 395.506C132.002 395.387 131.259 395.289 130.524 395.176ZM127.416 392.928C127.812 393.207 128.215 393.474 128.608 393.757C129.178 393.839 129.745 393.928 130.312 394.011C129.91 393.77 129.505 393.532 129.1 393.292C128.537 393.174 127.981 393.043 127.416 392.928ZM124.541 390.928C124.729 391.055 124.913 391.19 125.1 391.317C125.379 391.371 125.66 391.42 125.939 391.474C125.744 391.365 125.553 391.249 125.358 391.14L124.541 390.928ZM1261.31 260.656C1259.28 261.251 1257.26 261.854 1255.23 262.441C1250.25 266.978 1245.36 271.393 1240.44 275.852C1242.49 275.193 1244.54 274.54 1246.6 273.867C1251.5 269.475 1256.37 265.12 1261.31 260.656ZM1269.72 258.169C1267.71 258.773 1265.69 259.369 1263.67 259.964C1258.79 264.377 1253.96 268.697 1249.12 273.045C1251.19 272.364 1253.26 271.661 1255.33 270.971C1260.11 266.725 1264.89 262.48 1269.72 258.169ZM1278.19 255.601C1276.18 256.219 1274.16 256.825 1272.15 257.431C1267.38 261.689 1262.64 265.911 1257.92 270.101C1259.98 269.41 1262.04 268.719 1264.09 268.015C1268.76 263.924 1273.48 259.762 1278.19 255.601ZM1286.73 252.95C1284.7 253.585 1282.68 254.228 1280.65 254.854C1276.02 258.941 1271.37 263.064 1266.79 267.082C1268.84 266.375 1270.9 265.667 1272.95 264.948C1277.5 261.014 1282.13 256.958 1286.73 252.95ZM1295.31 250.241C1293.3 250.885 1291.28 251.52 1289.27 252.155C1284.72 256.125 1280.15 260.117 1275.65 264.012C1277.69 263.292 1279.74 262.545 1281.79 261.814C1286.28 257.99 1290.78 254.14 1295.31 250.241ZM1303.87 247.473C1301.9 248.117 1299.93 248.75 1297.96 249.385C1293.48 253.241 1289.05 257.015 1284.62 260.799C1286.66 260.064 1288.7 259.337 1290.75 258.591C1295.07 254.956 1299.49 251.181 1303.87 247.473ZM1312.58 244.589C1310.57 245.259 1308.57 245.937 1306.56 246.598C1302.31 250.204 1297.98 253.926 1293.77 257.467C1295.77 256.731 1297.76 255.99 1299.76 255.243C1304 251.742 1308.29 248.162 1312.58 244.589ZM1321.31 241.646C1319.32 242.324 1317.34 242.993 1315.35 243.66C1311.18 247.142 1306.98 250.683 1302.85 254.096C1304.84 253.345 1306.84 252.571 1308.83 251.808C1312.97 248.451 1317.12 245.072 1321.31 241.646ZM1330.1 238.614C1328.13 239.301 1326.16 239.974 1324.2 240.65C1320.15 243.973 1316.09 247.304 1312.08 250.562C1314.03 249.809 1315.98 249.071 1317.94 248.308C1321.99 245.087 1326.01 241.9 1330.1 238.614ZM1338.98 235.471C1337.01 236.172 1335.05 236.878 1333.09 237.568C1329.16 240.728 1325.27 243.845 1321.38 246.941C1323.33 246.175 1325.27 245.4 1327.22 244.623C1331.14 241.565 1335.02 238.588 1338.98 235.471ZM1347.77 232.307C1345.87 232.998 1343.97 233.688 1342.07 234.37C1338.27 237.367 1334.53 240.278 1330.76 243.218C1332.69 242.44 1334.62 241.637 1336.56 240.85C1340.29 238.003 1344 235.203 1347.77 232.307ZM1356.57 229.076C1354.76 229.749 1352.95 230.403 1351.15 231.066C1347.51 233.866 1343.95 236.543 1340.35 239.293C1342.2 238.527 1344.06 237.778 1345.92 237.003C1349.46 234.377 1353 231.748 1356.57 229.076ZM1365.48 225.711C1363.71 226.384 1361.93 227.057 1360.16 227.721C1356.77 230.273 1353.42 232.737 1350.04 235.253C1351.87 234.486 1353.69 233.713 1355.51 232.935C1358.82 230.556 1362.15 228.132 1365.48 225.711ZM1374.37 222.291C1372.66 222.955 1370.96 223.626 1369.25 224.282C1366.11 226.575 1362.99 228.824 1359.86 231.086C1361.64 230.322 1363.41 229.53 1365.18 228.757C1368.23 226.64 1371.31 224.447 1374.37 222.291ZM1383.2 218.835C1381.63 219.461 1380.05 220.069 1378.47 220.688C1375.65 222.685 1372.83 224.674 1370.01 226.643C1371.61 225.94 1373.2 225.242 1374.8 224.531C1377.59 222.662 1380.4 220.736 1383.2 218.835ZM1392.12 215.246C1390.67 215.834 1389.22 216.415 1387.77 216.998C1385.33 218.658 1382.89 220.337 1380.46 221.975C1381.82 221.364 1383.17 220.757 1384.52 220.14C1387.05 218.514 1389.58 216.896 1392.12 215.246ZM1400.72 211.72C1399.52 212.216 1398.32 212.719 1397.12 213.211C1395.19 214.471 1393.25 215.769 1391.33 217.015C1392.34 216.546 1393.36 216.068 1394.38 215.595C1396.49 214.301 1398.6 213.03 1400.72 211.72ZM1408.56 208.463C1407.92 208.733 1407.28 208.993 1406.65 209.259C1405.4 210.038 1404.13 210.842 1402.89 211.614C1403.36 211.388 1403.84 211.154 1404.31 210.928L1408.56 208.463ZM182.735 438.316C180.462 438.985 178.192 439.659 175.918 440.34C198.584 468.9 218.47 502.884 238.728 537.525C278.144 604.927 319 674.789 384.616 711.624C480.809 765.625 630.456 748.648 907.21 549.17C640.231 734.431 493.935 744.941 396.952 690.01C334.499 654.637 292.56 592.15 252.004 531.72C229.573 498.296 207.56 465.511 182.735 438.316ZM190.846 435.932C188.6 436.585 186.353 437.252 184.106 437.913C208.846 465.108 230.809 497.814 253.185 531.157C293.681 591.497 335.559 653.894 397.813 689.154C497.605 745.675 649.985 732.452 933.435 529.424C658.885 718.594 509.51 724.811 408.496 667.049C349.943 633.566 307.7 578.602 266.745 525.314C242.074 493.213 217.869 461.725 190.846 435.932ZM198.928 433.623C196.707 434.252 194.488 434.885 192.267 435.526C219.175 461.309 243.305 492.705 267.898 524.705C308.799 577.923 350.985 632.813 409.365 666.196C513.313 725.638 668.831 716.904 960.405 509.281C676.564 703.545 523.632 704.493 417.895 643.403C363.899 612.206 322.26 564.855 281.777 518.814C254.757 488.086 228.248 457.955 198.928 433.623ZM206.984 431.353C204.785 431.967 202.587 432.582 200.388 433.206C229.564 457.527 255.976 487.551 282.893 518.162C323.331 564.149 364.919 611.445 418.763 642.554C527.011 705.094 684.99 702.31 983.442 492.076L984.757 491.049C691.538 689.613 535.309 683.58 424.354 618.758C375.827 590.407 335.99 550.823 297.131 512.21C267.643 482.908 238.716 454.175 206.984 431.353ZM214.992 429.132C212.827 429.727 210.661 430.333 208.495 430.935C240.048 453.742 268.85 482.347 298.204 511.515C337.019 550.085 376.81 589.624 425.229 617.912C537.456 683.477 696.277 688.576 997.459 481.135C998.756 480.116 1000.02 479.143 1001.33 478.115C701.092 677.06 542.864 661.321 426.509 592.52C384.762 567.835 348.427 536.335 312.845 505.489C280.753 477.666 249.271 450.38 214.992 429.132ZM222.977 426.979C220.847 427.55 218.718 428.12 216.587 428.7C250.642 449.934 281.957 477.08 313.878 504.752C349.426 535.571 385.727 567.041 427.39 591.677C544.658 661.018 704.65 676.254 1010.84 470.562C1012.75 469.047 1014.68 467.511 1016.59 465.995C623.033 720.344 470.506 605.383 328.978 498.64C294.131 472.357 259.944 446.587 222.977 426.979ZM230.94 424.861C228.844 425.412 226.748 425.969 224.652 426.528C261.346 446.125 295.325 471.741 329.956 497.86C472.224 605.162 625.657 720.75 1025.38 458.993C1027.46 457.331 1029.57 455.61 1031.67 453.911C652.62 692.288 493.586 588.34 345.579 491.637C307.809 466.959 270.757 442.757 230.94 424.861ZM238.845 422.796C236.802 423.326 234.758 423.861 232.714 424.397C272.201 442.288 308.997 466.318 346.497 490.82C495.159 587.951 655.039 692.302 1039.08 447.914C1041.81 445.702 1044.51 443.541 1047.26 441.306C682.368 664.244 517.002 571.273 362.714 484.465C321.823 461.458 281.706 438.9 238.845 422.796ZM246.749 420.781C244.755 421.284 242.761 421.785 240.767 422.298C283.225 438.406 323.02 460.791 363.575 483.61C518.401 570.719 684.373 664.097 1053.09 436.524C1056.15 434.016 1059.25 431.458 1062.34 428.912C711.901 636.268 540.693 554.098 380.474 477.099C336.25 455.846 292.858 435.002 246.749 420.781ZM262.439 416.879C260.592 417.331 258.748 417.784 256.901 418.24C305.927 430.515 352.365 449.37 399.676 468.58C566.026 536.13 743.246 607.979 1082.2 412.449C1085.7 409.534 1089.2 406.613 1092.71 403.672C770.85 580.839 589.358 519.491 418.277 461.643C366.58 444.162 315.832 427.01 262.439 416.879ZM270.251 414.996C268.484 415.416 266.718 415.833 264.951 416.262C317.659 426.462 367.831 443.416 418.928 460.695C590.528 518.718 772.63 580.249 1096.98 400.102C1100.67 396.997 1104.42 393.802 1108.16 390.622C800.421 553.263 614.514 502.025 438.597 453.472C382.677 438.038 327.761 422.889 270.251 414.996ZM278.014 413.149C276.384 413.531 274.754 413.924 273.123 414.312C329.802 422.313 384.001 437.271 439.178 452.499C615.583 501.187 802.03 552.614 1111.82 387.513C1115.77 384.16 1119.71 380.823 1123.69 377.417C830.03 525.902 640.377 484.411 460.111 444.932C399.553 431.67 340.054 418.642 278.014 413.149ZM285.782 411.353C284.281 411.701 282.782 412.044 281.281 412.392C342.324 418.047 400.961 430.877 460.618 443.943C641.378 483.529 831.594 525.132 1127.03 374.543C1131.07 371.08 1135.15 367.57 1139.23 364.052C859.703 498.685 667.072 466.603 483.066 435.949C417.395 425.009 352.82 414.261 285.782 411.353ZM293.513 409.591C292.196 409.887 290.879 410.179 289.562 410.479C355.404 413.613 418.922 424.191 483.502 434.949C668.01 465.687 861.198 497.875 1142.26 361.44C1146.5 357.783 1150.77 354.066 1155.06 350.332C889.654 471.574 694.855 448.564 507.79 426.432C436.408 417.987 366.147 409.682 293.513 409.591ZM301.208 407.865C300.153 408.099 299.097 408.34 298.043 408.574C369.2 408.989 438.137 417.138 508.152 425.421C695.725 447.614 891.081 470.691 1157.8 347.939C1162.17 344.127 1166.54 340.331 1170.95 336.469C919.83 444.691 723.962 430.225 534.712 416.26C456.885 410.517 380.178 404.86 301.208 407.865ZM308.948 406.175L306.762 406.65C383.882 404.098 458.91 409.627 535.008 415.242C724.786 429.247 921.24 443.726 1173.51 334.225C1177.97 330.306 1182.5 326.279 1187.02 322.272C950.453 417.871 754.763 411.496 564.421 405.264C479.257 402.476 395.161 399.724 308.948 406.175ZM316.58 404.528L315.983 404.653C399.823 398.853 481.733 401.528 564.651 404.242C755.53 410.49 951.789 416.883 1189.34 320.227C1193.96 316.133 1198.59 312.027 1203.26 307.865C981.66 391.251 787.782 392.256 597.742 393.222C504.045 393.7 411.278 394.172 316.58 404.528ZM734.734 346.846C611.42 359.176 487.204 371.599 362.253 395.335C469.035 378.706 574.8 371.141 680.635 363.577C864.319 350.446 1048.22 337.286 1237.98 276.648C1242.95 272.149 1247.89 267.686 1252.92 263.1C1082.29 312.091 909.417 329.381 734.734 346.846ZM293.515 408.561L295.57 408.1L294.798 408.131C294.058 408.275 293.317 408.415 292.576 408.561L293.515 408.561ZM285.814 410.314C286.853 410.076 287.894 409.831 288.933 409.594C288.409 409.595 287.887 409.591 287.363 409.595L284.137 410.241L285.814 410.314ZM278.098 412.098C279.408 411.791 280.718 411.493 282.027 411.189C281.281 411.159 280.532 411.138 279.785 411.113C278.499 411.374 277.211 411.648 275.924 411.913C276.649 411.974 277.374 412.033 278.098 412.098ZM270.369 413.936L274.808 412.877L272.286 412.669C270.804 412.977 269.323 413.28 267.839 413.595C268.682 413.708 269.526 413.82 270.369 413.936ZM262.592 415.807C264.223 415.409 265.855 415.014 267.486 414.623C266.576 414.502 265.669 414.375 264.757 414.259C263.142 414.607 261.526 414.952 259.91 415.303C260.805 415.468 261.698 415.638 262.592 415.807ZM254.795 417.724C256.552 417.288 258.308 416.859 260.063 416.428C259.09 416.248 258.113 416.077 257.138 415.901C255.424 416.277 253.709 416.662 251.995 417.044C252.928 417.271 253.863 417.494 254.795 417.724ZM246.987 419.684C248.82 419.221 250.654 418.749 252.487 418.29C251.517 418.056 250.548 417.813 249.576 417.583C247.755 417.988 245.933 418.394 244.109 418.81C245.07 419.097 246.028 419.39 246.987 419.684ZM239.12 421.685C241.05 421.187 242.979 420.699 244.909 420.212C243.91 419.908 242.909 419.616 241.907 419.32C240.029 419.752 238.151 420.185 236.272 420.624C237.223 420.975 238.172 421.329 239.12 421.685ZM231.267 423.737C233.247 423.218 235.227 422.699 237.206 422.185C236.221 421.818 235.24 421.45 234.252 421.092C232.307 421.549 230.361 422.017 228.416 422.481C229.367 422.897 230.32 423.312 231.267 423.737ZM223.35 425.838C225.391 425.291 227.432 424.745 229.473 424.205C228.503 423.774 227.528 423.351 226.555 422.928C224.56 423.404 222.564 423.881 220.568 424.37C221.498 424.853 222.423 425.347 223.35 425.838ZM215.414 427.976C217.502 427.406 219.588 426.849 221.676 426.29C220.727 425.791 219.774 425.294 218.82 424.804C216.781 425.307 214.743 425.811 212.705 426.322C213.608 426.872 214.513 427.42 215.414 427.976ZM207.455 430.18C209.576 429.59 211.698 428.999 213.819 428.416C212.9 427.851 211.982 427.287 211.06 426.729C208.984 427.254 206.905 427.788 204.828 428.32C205.706 428.936 206.582 429.554 207.455 430.18ZM199.448 432.428C201.613 431.814 203.778 431.204 205.943 430.601C205.054 429.965 204.16 429.344 203.265 428.722C201.157 429.262 199.049 429.804 196.939 430.357C197.779 431.04 198.613 431.737 199.448 432.428ZM191.419 434.723C193.61 434.091 195.8 433.467 197.99 432.845C197.14 432.145 196.291 431.446 195.435 430.756C193.296 431.32 191.157 431.887 189.014 432.463C189.819 433.212 190.621 433.964 191.419 434.723ZM183.357 437.085C185.569 436.433 187.783 435.775 189.994 435.131C189.186 434.366 188.379 433.603 187.567 432.846C185.402 433.431 183.236 434.028 181.072 434.622C181.836 435.438 182.599 436.257 183.357 437.085ZM175.244 439.494C177.492 438.82 179.74 438.152 181.987 437.489C181.218 436.652 180.443 435.831 179.667 435.007C177.479 435.608 175.291 436.212 173.101 436.827C173.819 437.71 174.531 438.601 175.244 439.494ZM-60.6615 532.562C17.7604 493.377 95.959 463.389 173.9 439.902C173.181 439.001 172.456 438.106 171.729 437.216C94.9047 458.861 17.2548 487.759 -61.6063 527.164L-62.2063 526.324C16.6296 486.931 94.2452 458.026 171.031 436.37C170.308 435.489 169.588 434.609 168.86 433.741C93.2068 453.518 16.1436 481.302 -63.1514 520.923L-63.752 520.082C15.5066 480.478 92.5266 452.688 168.132 432.893C167.403 432.033 166.671 431.179 165.937 430.331C91.4834 448.205 15.0314 474.845 -64.6966 514.685L-65.2968 513.844C14.3908 474.026 90.7964 447.37 165.2 429.471C164.464 428.628 163.718 427.802 162.976 426.971C89.7489 442.903 13.9241 468.388 -66.2411 508.447L-66.8418 507.605C13.2685 467.577 89.0371 442.071 162.203 426.104C161.471 425.293 160.737 424.491 159.999 423.692C88.0184 437.639 12.8339 461.923 -67.7867 502.207L-68.3866 501.367C12.1605 461.118 87.2777 436.814 159.189 422.818C158.455 422.03 157.724 421.24 156.984 420.464C86.2758 432.391 11.7479 455.452 -69.3319 495.966L-69.9322 495.126C11.052 454.659 85.4983 431.566 156.122 419.578C155.389 418.817 154.656 418.056 153.916 417.308C84.5115 427.174 10.6651 448.983 -70.8764 489.727L-71.4772 488.887C9.95154 448.198 83.7093 426.349 153.026 416.408C152.29 415.671 151.548 414.952 150.805 414.228C82.7342 421.988 9.58782 442.511 -72.4217 483.49L-73.0219 482.649C8.8465 441.74 81.8896 421.162 149.86 413.3C149.129 412.594 148.39 411.903 147.652 411.211C80.9426 416.824 8.51689 436.033 -73.9674 477.248L-74.5675 476.408C7.7401 435.28 80.0422 416.004 146.637 410.262C145.917 409.595 145.196 408.927 144.469 408.271C79.1479 411.693 7.45947 429.551 -75.5119 471.01L-76.1124 470.169C6.6289 428.826 78.1684 410.867 143.352 407.28C142.65 406.656 141.953 406.025 141.245 405.412C77.3411 406.591 6.4115 423.064 -77.0569 464.772L-77.6573 463.931C5.52929 422.364 76.2829 405.775 140.033 404.384C139.335 403.789 138.631 403.2 137.926 402.616C75.4856 401.518 5.34778 416.584 -78.6022 458.532L-79.2021 457.693C4.41321 415.911 74.3537 400.696 136.628 401.533C135.957 400.987 135.273 400.461 134.596 399.925C73.6395 396.49 4.31123 410.089 -80.1477 452.292L-80.7477 451.452C3.27688 409.466 72.3633 395.666 133.124 398.759C132.486 398.264 131.843 397.778 131.2 397.294C71.7657 391.481 3.27247 403.598 -81.6924 446.054L-82.2927 445.213C2.12055 403.034 70.3149 390.672 129.521 396.043C128.945 395.619 128.374 395.184 127.793 394.766C69.9063 386.511 2.26285 397.093 -83.2371 439.815L-83.8376 438.974C0.91045 396.627 68.1715 385.697 125.77 393.357C125.276 393.011 124.784 392.662 124.286 392.323C67.9905 381.584 1.23856 390.591 -84.7826 433.574L-85.383 432.734C-0.356348 390.247 65.9144 380.768 121.86 390.708C121.466 390.449 121.069 390.192 120.673 389.936C66.0178 376.686 0.18863 384.104 -86.3276 427.335L-86.928 426.495C-1.72261 383.92 63.4836 375.888 117.718 388.069C117.508 387.941 117.296 387.816 117.086 387.689C64.088 371.834 -0.80112 377.588 -87.8724 421.097L-88.4729 420.256C-3.91296 378.004 59.8125 371.135 112.038 385.033C60.9758 367.097 -2.58208 371.468 -89.4176 414.858L-90.0178 414.018C-7.24043 372.656 54.4828 366.503 104.388 381.277C55.659 362.447 -5.9052 366.116 -90.9629 408.617L-91.5633 407.777C-10.6301 367.338 49.1242 361.818 96.8049 377.301C50.3095 357.751 -9.29341 360.797 -92.5078 402.379L-93.1083 401.538C-1.3003 355.663 61.9282 356.311 110.494 382.421C113.196 383.581 115.846 384.828 118.471 386.122C121.25 387.208 124.003 388.344 126.709 389.562C129.537 390.562 132.326 391.637 135.089 392.759C138.067 393.7 141.019 394.693 143.933 395.754C146.938 396.595 149.913 397.494 152.861 398.445C156.048 399.22 159.205 400.054 162.336 400.94C165.544 401.609 168.732 402.32 171.893 403.087C175.286 403.674 178.649 404.325 181.996 405.01C185.514 405.501 189.017 406.034 192.493 406.618C196.013 406.993 199.517 407.408 203.001 407.866C206.725 408.14 210.428 408.468 214.117 408.824C218.017 408.988 221.899 409.194 225.766 409.437C229.764 409.484 233.75 409.559 237.721 409.678C241.788 409.605 245.844 409.557 249.888 409.548C254.105 409.349 258.312 409.175 262.509 409.037C266.864 408.707 271.213 408.403 275.551 408.128C280.058 407.662 284.561 407.218 289.057 406.806C293.563 406.219 298.064 405.661 302.559 405.121C307.381 404.368 312.198 403.644 317.012 402.938C321.888 402.056 326.762 401.197 331.635 400.358C466.93 372.614 601.362 359.167 734.741 345.83C910.002 328.308 1083.44 310.966 1254.58 261.579C1337.7 185.738 1428.29 99.0855 1527.14 0.390039L1528.13 0.946609C1429.82 99.1044 1339.68 185.338 1256.91 260.897C1258.95 260.306 1260.98 259.706 1263.02 259.105C1344.14 185.826 1432.42 102.092 1528.69 6.62675L1529.68 7.18744C1433.96 102.106 1346.15 185.419 1265.38 258.413C1267.42 257.808 1269.46 257.191 1271.5 256.578C1350.61 185.876 1436.57 105.075 1530.23 12.8649L1531.22 13.4303C1438.14 105.07 1352.66 185.438 1273.92 255.842C1275.95 255.227 1277.98 254.624 1280 253.999C1357.11 185.89 1440.75 108.032 1531.78 19.1021L1532.77 19.6691C1442.34 108.002 1359.2 185.418 1282.5 253.218C1284.54 252.586 1286.58 251.944 1288.62 251.302C1363.68 185.818 1444.98 110.924 1533.33 25.339L1534.31 25.9113C1446.59 110.887 1365.8 185.338 1291.16 250.506C1293.21 249.856 1295.26 249.195 1297.3 248.537C1370.29 185.705 1449.25 113.769 1534.88 31.5742L1535.85 32.1517C1450.89 113.7 1372.48 185.185 1299.95 247.681C1301.93 247.04 1303.91 246.408 1305.89 245.758C1376.87 185.547 1453.44 116.672 1536.42 37.812L1537.4 38.3956C1455.11 116.594 1379.12 184.975 1308.62 244.845C1310.64 244.175 1312.66 243.5 1314.68 242.821C1383.58 185.296 1457.76 119.455 1537.97 44.0475L1538.94 44.6358C1459.44 119.376 1385.86 184.714 1317.46 241.893C1319.48 241.208 1321.5 240.508 1323.53 239.813C1390.33 184.991 1462.1 122.204 1539.52 50.2828L1540.48 50.8774C1463.81 122.099 1392.68 184.355 1326.42 238.817C1328.42 238.124 1330.41 237.437 1332.41 236.735C1397.11 184.634 1466.46 124.92 1541.07 56.5207L1542.02 57.1205C1468.21 124.787 1399.56 183.937 1335.44 235.659C1337.43 234.955 1339.42 234.249 1341.41 233.535C1403.98 184.184 1470.87 127.58 1542.62 62.756L1543.56 63.3629C1472.64 127.439 1406.48 183.461 1344.52 232.423C1346.51 231.702 1348.5 230.961 1350.49 230.231C1410.91 183.654 1475.32 130.194 1544.17 68.9929L1545.1 69.6053C1477.14 130.02 1413.51 182.865 1353.75 229.032C1355.67 228.323 1357.58 227.61 1359.5 226.891C1417.81 183.079 1479.73 132.822 1545.72 75.2255L1546.64 75.8481C1481.68 132.551 1420.64 182.182 1363.1 225.527C1364.93 224.834 1366.76 224.15 1368.59 223.448C1424.78 182.429 1484.19 135.397 1547.27 81.4609L1548.18 82.0945C1486.22 135.076 1427.78 181.43 1372.47 221.948C1374.25 221.255 1376.04 220.555 1377.82 219.855C1431.85 181.663 1488.7 137.902 1548.82 87.6955L1549.72 88.3359C1490.8 137.545 1435 180.587 1381.93 218.252C1383.66 217.568 1385.38 216.863 1387.11 216.17C1438.96 180.828 1493.26 140.359 1550.37 93.9266L1551.26 94.5832C1495.5 139.915 1442.42 179.578 1391.67 214.334C1393.28 213.684 1394.88 213.036 1396.48 212.379C1446.14 179.916 1497.85 142.763 1551.93 100.161L1552.8 100.83C1500.29 142.2 1450 178.43 1401.66 210.232C1403.11 209.629 1404.56 209.034 1406.01 208.427C1453.44 178.88 1502.52 145.087 1553.48 106.391L1554.33 107.077C1505.21 144.371 1457.85 177.092 1412.02 205.877C1413.26 205.352 1414.49 204.824 1415.73 204.293C1460.88 177.704 1507.26 147.33 1555.04 112.621L1555.86 113.325C1510.38 146.37 1466.17 175.452 1423.07 201.123C1423.79 200.808 1424.51 200.486 1425.23 200.17C1468.19 176.519 1511.94 149.597 1556.6 118.849L1557.39 119.574C1516.41 147.786 1476.2 172.774 1436.66 194.984C1476.82 174.534 1517.3 151.389 1558.17 125.075L1558.92 125.83C1523.88 148.389 1489.13 168.62 1454.62 186.831C1489.77 170.342 1524.81 151.933 1559.74 131.3L1560.43 132.083C1518.91 156.614 1477.24 178.016 1435.41 196.771C1428.67 200.193 1421.94 203.55 1415.22 206.822C1408.12 210.648 1401.06 214.353 1394.01 218.008C1386.78 222.1 1379.57 226.112 1372.41 230.013C1364.87 234.464 1357.37 238.831 1349.92 243.059C1342.34 247.68 1334.83 252.154 1327.36 256.557C1319.81 261.288 1312.31 265.918 1304.87 270.436C1296.95 275.53 1289.1 280.518 1281.32 285.364C1273.13 290.752 1265.03 295.969 1256.99 301.085C1249.23 306.276 1241.54 311.35 1233.92 316.299C1226.2 321.561 1218.53 326.718 1210.94 331.739C1201.78 338.098 1192.75 344.225 1183.8 350.226C1175.83 355.801 1167.95 361.251 1160.14 366.56C1152.29 372.131 1144.51 377.573 1136.81 382.892C1127.71 389.426 1118.7 395.809 1109.81 402.006C1101.35 408.136 1092.99 414.118 1084.73 419.938C1076.19 426.179 1067.74 432.28 1059.41 438.203C1050.72 444.617 1042.11 450.893 1033.63 456.976C1025.16 463.254 1016.79 469.409 1008.53 475.382C1000.22 481.59 992.007 487.666 983.902 493.58C975.579 499.849 967.371 505.95 959.256 511.92C648.645 747.582 486.153 769.96 383.759 712.478C317.909 675.511 276.994 605.548 237.521 538.047C217.225 503.342 197.305 469.3 174.576 440.748C96.6009 464.225 18.3752 494.209 -60.0614 533.402L-60.6615 532.562Z" fill="url(#paint0_linear_0_196)"/>
<defs>
<linearGradient id="paint0_linear_0_196" x1="1193.53" y1="995.401" x2="336.793" y2="47.8669" gradientUnits="userSpaceOnUse">
<stop stop-color="#D149E7"/>
<stop offset="1" stop-color="#DC06FF"/>
</linearGradient>
</defs>
</svg>
