<svg width="268" height="286" viewBox="0 0 268 286" fill="none" xmlns="http://www.w3.org/2000/svg">
<path d="M296.754 -356.691L295.455 -355.02C295.555 -355.207 295.646 -355.392 295.745 -355.58C296.183 -356.199 296.623 -356.82 297.071 -357.442C296.963 -357.192 296.861 -356.942 296.754 -356.691ZM289.892 -346.129C289.538 -345.698 289.176 -345.263 288.826 -344.833L288.929 -345.009L290.139 -346.635L289.892 -346.129ZM294.832 -352.143C294.044 -351.193 293.288 -350.255 292.503 -349.307C292.75 -349.798 293.016 -350.292 293.266 -350.784C293.974 -351.712 294.715 -352.65 295.442 -353.584C295.241 -353.104 295.03 -352.622 294.832 -352.143ZM282.455 -335.376C282.15 -335.016 281.869 -334.664 281.566 -334.305L281.572 -334.314C281.894 -334.727 282.229 -335.145 282.555 -335.559L282.455 -335.376ZM287.56 -341.323C286.828 -340.474 286.086 -339.62 285.363 -338.774C285.578 -339.16 285.785 -339.544 286.002 -339.93C286.768 -340.891 287.494 -341.838 288.272 -342.803C288.038 -342.311 287.791 -341.815 287.56 -341.323ZM293.04 -347.645C291.987 -346.451 290.975 -345.271 289.941 -344.083C290.237 -344.696 290.535 -345.309 290.836 -345.923C291.804 -347.11 292.791 -348.303 293.769 -349.493C293.523 -348.876 293.282 -348.261 293.04 -347.645ZM379.161 129.563L378.889 129.148C378.858 128.831 378.823 128.516 378.79 128.2L379.002 128.585C379.057 128.911 379.107 129.237 379.161 129.563ZM274.311 -324.129L273.989 -323.756C274.126 -323.925 274.254 -324.092 274.39 -324.261L274.311 -324.129ZM279.818 -330.442C279.114 -329.654 278.432 -328.875 277.746 -328.093C277.931 -328.4 278.108 -328.705 278.294 -329.012C278.978 -329.843 279.68 -330.679 280.366 -331.51C280.177 -331.153 280.003 -330.799 279.818 -330.442ZM285.451 -336.708C284.425 -335.567 283.392 -334.424 282.375 -333.286C282.71 -333.913 283.061 -334.544 283.4 -335.172C284.346 -336.292 285.32 -337.422 286.294 -338.554C286.012 -337.938 285.729 -337.322 285.451 -336.708ZM291.309 -343.133C290.043 -341.768 288.796 -340.411 287.567 -339.061C287.885 -339.748 288.185 -340.432 288.507 -341.121C289.717 -342.517 290.904 -343.907 292.116 -345.305C291.838 -344.58 291.58 -343.857 291.309 -343.133ZM379.742 133.175C379.558 132.934 379.367 132.694 379.181 132.452L379.06 131.058C379.212 131.293 379.368 131.526 379.518 131.761C379.593 132.233 379.669 132.704 379.742 133.175ZM381.344 135.305L380.99 134.831L380.852 133.882L381.113 134.296C381.19 134.633 381.27 134.968 381.344 135.305ZM382.805 137.277L382.758 137.211L382.694 136.912L382.805 137.277ZM271.475 -319.185C270.815 -318.447 270.143 -317.705 269.476 -316.965L270.183 -318.063C270.794 -318.781 271.441 -319.514 272.068 -320.239C271.868 -319.887 271.674 -319.537 271.475 -319.185ZM277.317 -325.568C276.308 -324.49 275.292 -323.409 274.32 -322.347C274.621 -322.867 274.949 -323.396 275.254 -323.918C276.253 -325.067 277.236 -326.209 278.235 -327.359C277.933 -326.763 277.616 -326.163 277.317 -325.568ZM283.419 -332.109L279.655 -328.075C280.026 -328.795 280.387 -329.513 280.763 -330.235C281.915 -331.535 283.112 -332.851 284.297 -334.164C283.994 -333.476 283.716 -332.795 283.419 -332.109ZM289.668 -338.665C288.205 -337.157 286.736 -335.645 285.333 -334.16C285.674 -334.937 286.045 -335.72 286.396 -336.499C287.792 -338.039 289.15 -339.564 290.566 -341.112C290.268 -340.297 289.957 -339.479 289.668 -338.665ZM380.249 136.687C379.982 136.384 379.72 136.081 379.449 135.779C379.407 135.212 379.368 134.644 379.323 134.078C379.553 134.381 379.776 134.686 380.005 134.99C380.085 135.555 380.171 136.12 380.249 136.687ZM382.067 138.755C381.863 138.517 381.653 138.282 381.447 138.045C381.385 137.584 381.321 137.124 381.255 136.663L381.779 137.378C381.875 137.837 381.973 138.295 382.067 138.755ZM383.798 140.791L383.399 140.322C383.336 140.003 383.275 139.684 383.21 139.366C383.311 139.508 383.415 139.649 383.516 139.792C383.608 140.125 383.705 140.457 383.798 140.791ZM385.391 142.704L385.306 142.6L385.208 142.222L385.226 142.249L385.391 142.704ZM262.653 -307.743C262.039 -307.082 261.411 -306.416 260.809 -305.761C260.953 -305.975 261.106 -306.192 261.253 -306.406C261.918 -307.17 262.565 -307.927 263.234 -308.693L262.653 -307.743ZM268.675 -314.209C267.694 -313.161 266.734 -312.121 265.756 -311.074C266.074 -311.589 266.372 -312.098 266.694 -312.614C267.635 -313.673 268.613 -314.748 269.576 -315.816C269.281 -315.282 268.966 -314.742 268.675 -314.209ZM274.991 -320.821C273.751 -319.541 272.502 -318.257 271.305 -316.995C271.671 -317.654 272.046 -318.315 272.42 -318.976C273.624 -320.303 274.79 -321.615 276.017 -322.951C275.667 -322.239 275.334 -321.531 274.991 -320.821ZM281.466 -327.539C279.988 -326.017 278.548 -324.51 277.085 -322.993C277.473 -323.78 277.865 -324.568 278.262 -325.358C279.639 -326.847 281.048 -328.35 282.453 -329.85C282.129 -329.081 281.783 -328.307 281.466 -327.539ZM288.18 -334.311C286.54 -332.673 284.883 -331.028 283.306 -329.416C283.654 -330.243 284.01 -331.072 284.367 -331.901C285.904 -333.532 287.454 -335.168 289.031 -336.816C288.742 -335.98 288.461 -335.146 288.18 -334.311ZM380.702 140.129C380.365 139.8 380.024 139.472 379.686 139.144C379.644 138.49 379.596 137.837 379.549 137.184C379.853 137.529 380.159 137.873 380.46 138.219C380.542 138.855 380.621 139.493 380.702 140.129ZM382.734 142.156C382.441 141.861 382.149 141.567 381.855 141.273C381.786 140.71 381.712 140.149 381.64 139.586C381.903 139.891 382.16 140.197 382.42 140.502C382.527 141.053 382.63 141.605 382.734 142.156ZM384.687 144.142C384.452 143.899 384.223 143.655 383.985 143.412C383.902 142.956 383.811 142.501 383.725 142.045C383.931 142.292 384.13 142.541 384.335 142.789L384.687 144.142ZM386.539 146.069C386.39 145.911 386.235 145.755 386.086 145.598C386.005 145.271 385.916 144.946 385.832 144.62L386.203 145.077C386.314 145.407 386.429 145.737 386.539 146.069ZM388.265 147.926L388.128 147.778C388.084 147.639 388.042 147.499 387.996 147.36L388.056 147.436C388.124 147.6 388.197 147.762 388.265 147.926ZM253.452 -296.226C252.83 -295.57 252.264 -294.937 251.653 -294.285C251.75 -294.423 251.838 -294.557 251.936 -294.695C252.556 -295.393 253.199 -296.099 253.824 -296.799C253.702 -296.609 253.572 -296.416 253.452 -296.226ZM259.617 -302.656C258.687 -301.687 257.746 -300.714 256.831 -299.752C257.147 -300.235 257.455 -300.717 257.775 -301.201C258.694 -302.214 259.588 -303.215 260.527 -304.236C260.213 -303.706 259.928 -303.185 259.617 -302.656ZM266.156 -309.46C264.866 -308.137 263.645 -306.844 262.375 -305.529C262.771 -306.194 263.195 -306.867 263.598 -307.534C264.775 -308.806 265.976 -310.089 267.167 -311.367C266.825 -310.73 266.49 -310.095 266.156 -309.46ZM272.73 -316.085C271.287 -314.636 269.836 -313.185 268.431 -311.752C268.835 -312.506 269.214 -313.252 269.627 -314.008C271.012 -315.478 272.419 -316.957 273.847 -318.445C273.475 -317.659 273.092 -316.869 272.73 -316.085ZM279.685 -323.074C278.003 -321.404 276.385 -319.761 274.732 -318.104C275.126 -318.939 275.536 -319.779 275.942 -320.617C277.5 -322.241 279.073 -323.87 280.65 -325.502C280.323 -324.691 280.003 -323.883 279.685 -323.074ZM286.759 -329.984C284.951 -328.225 283.132 -326.462 281.375 -324.725C281.725 -325.595 282.056 -326.461 282.415 -327.333C284.095 -329.054 285.837 -330.802 287.58 -332.55C287.298 -331.693 287.032 -330.839 286.759 -329.984ZM381.113 143.559C380.699 143.204 380.29 142.846 379.871 142.492C379.835 141.782 379.8 141.073 379.759 140.362C380.132 140.729 380.501 141.096 380.871 141.464C380.956 142.162 381.035 142.861 381.113 143.559ZM383.342 145.488C382.973 145.162 382.597 144.839 382.224 144.515C382.155 143.882 382.092 143.249 382.02 142.617C382.348 142.949 382.684 143.278 383.01 143.61C383.126 144.235 383.235 144.862 383.342 145.488ZM385.503 147.41C385.183 147.122 384.858 146.836 384.535 146.549C384.443 146.002 384.352 145.453 384.256 144.907C384.544 145.206 384.835 145.505 385.121 145.805C385.253 146.339 385.374 146.875 385.503 147.41ZM387.585 149.315C387.325 149.075 387.067 148.834 386.804 148.595L386.485 147.252C386.713 147.498 386.94 147.745 387.168 147.99C387.309 148.431 387.448 148.873 387.585 149.315ZM389.566 151.164C389.388 150.995 389.214 150.823 389.034 150.654C388.936 150.332 388.831 150.012 388.73 149.69C388.881 149.857 389.028 150.026 389.177 150.193C389.306 150.517 389.439 150.84 389.566 151.164ZM391.393 152.917L391.212 152.742C391.155 152.593 391.102 152.443 391.044 152.293L391.152 152.416L391.393 152.917ZM243.684 -284.27C243.193 -283.752 242.693 -283.23 242.198 -282.711C242.343 -282.908 242.481 -283.103 242.627 -283.3C243.106 -283.828 243.603 -284.363 244.094 -284.896C243.952 -284.685 243.824 -284.48 243.684 -284.27ZM250.213 -291.052C249.293 -290.118 248.386 -289.189 247.494 -288.267C247.763 -288.658 248.037 -289.052 248.307 -289.444C249.214 -290.425 250.134 -291.411 251.039 -292.391C250.758 -291.943 250.49 -291.499 250.213 -291.052ZM256.761 -297.69C255.535 -296.447 254.299 -295.2 253.083 -293.962C253.512 -294.641 253.952 -295.325 254.389 -296.007C255.526 -297.213 256.717 -298.444 257.899 -299.67C257.522 -299.01 257.132 -298.347 256.761 -297.69ZM263.619 -304.578C262.163 -303.136 260.74 -301.709 259.318 -300.283C259.733 -301.002 260.137 -301.719 260.559 -302.441L264.745 -306.801C264.361 -306.057 263.995 -305.319 263.619 -304.578ZM270.667 -311.496C269.006 -309.873 267.348 -308.249 265.718 -306.638C266.165 -307.504 266.645 -308.381 267.103 -309.25C268.612 -310.798 270.199 -312.38 271.77 -313.954C271.398 -313.134 271.028 -312.314 270.667 -311.496ZM277.948 -318.578C276.117 -316.817 274.323 -315.074 272.536 -313.332C272.92 -314.181 273.286 -315.026 273.681 -315.878C275.429 -317.64 277.158 -319.393 278.924 -321.163C278.59 -320.299 278.271 -319.44 277.948 -318.578ZM285.414 -325.691C283.439 -323.817 281.469 -321.945 279.536 -320.091C279.888 -321.012 280.272 -321.942 280.637 -322.867C282.449 -324.668 284.359 -326.511 286.246 -328.345C285.969 -327.46 285.679 -326.573 285.414 -325.691ZM376.464 143.29C351.673 125.536 321.287 109.56 290.315 93.2826C176.684 33.5638 55.3036 -30.2763 175.456 -201.534M381.481 146.958C381.004 146.6 380.516 146.245 380.034 145.889C380.002 145.124 379.969 144.36 379.931 143.596C380.368 143.971 380.805 144.346 381.239 144.722C381.322 145.467 381.407 146.211 381.481 146.958ZM383.907 148.809C383.462 148.467 383.015 148.125 382.565 147.785C382.499 147.084 382.426 146.386 382.351 145.687C382.757 146.044 383.156 146.403 383.559 146.762C383.677 147.443 383.798 148.125 383.907 148.809ZM386.263 150.645C385.858 150.326 385.459 150.004 385.051 149.686C384.953 149.064 384.854 148.442 384.751 147.822C385.117 148.151 385.476 148.483 385.838 148.814C385.982 149.424 386.125 150.034 386.263 150.645ZM388.544 152.462C388.195 152.18 387.843 151.898 387.491 151.616C387.374 151.084 387.266 150.55 387.144 150.019C387.456 150.308 387.772 150.594 388.079 150.883C388.239 151.408 388.389 151.936 388.544 152.462ZM390.748 154.271C390.465 154.036 390.175 153.802 389.89 153.567L389.507 152.252C389.759 152.494 390.014 152.735 390.263 152.978L390.748 154.271ZM392.856 156.053L392.26 155.544C392.144 155.224 392.021 154.906 391.901 154.587L392.409 155.093C392.557 155.413 392.711 155.732 392.856 156.053ZM394.768 157.7L394.544 157.502L394.352 157.062L394.517 157.234C394.603 157.389 394.683 157.545 394.768 157.7ZM233.747 -272.419C233.313 -271.975 232.869 -271.526 232.441 -271.085L232.529 -271.199C233.036 -271.748 233.53 -272.291 234.038 -272.841L233.747 -272.419ZM240.332 -279.15C239.397 -278.193 238.464 -277.236 237.521 -276.277C237.842 -276.728 238.19 -277.191 238.514 -277.643C239.379 -278.562 240.281 -279.497 241.166 -280.424C240.887 -279.999 240.607 -279.573 240.332 -279.15ZM246.99 -285.825C245.841 -284.693 244.679 -283.556 243.57 -282.441C243.926 -282.98 244.26 -283.51 244.622 -284.049C245.832 -285.313 247.004 -286.56 248.226 -287.829C247.822 -287.164 247.387 -286.488 246.99 -285.825ZM254.067 -292.823L249.747 -288.551C250.211 -289.311 250.685 -290.074 251.157 -290.837C252.482 -292.196 253.857 -293.578 255.219 -294.955C254.824 -294.24 254.456 -293.536 254.067 -292.823ZM261.243 -299.801C259.594 -298.219 257.945 -296.638 256.348 -295.08C256.788 -295.872 257.249 -296.672 257.699 -297.468C259.313 -299.098 260.87 -300.702 262.508 -302.342C262.086 -301.494 261.656 -300.645 261.243 -299.801ZM268.68 -306.93C266.864 -305.193 265.058 -303.462 263.258 -301.732C263.694 -302.61 264.121 -303.485 264.568 -304.366C266.256 -306.043 268.006 -307.748 269.745 -309.447C269.378 -308.605 269.037 -307.77 268.68 -306.93ZM276.313 -314.136C274.324 -312.279 272.348 -310.428 270.417 -308.596C270.803 -309.488 271.217 -310.388 271.614 -311.283C273.515 -313.142 275.38 -314.984 277.315 -316.857C276.98 -315.95 276.635 -315.041 276.313 -314.136ZM284.201 -321.484C282.079 -319.515 279.975 -317.555 277.882 -315.598C278.216 -316.52 278.555 -317.444 278.902 -318.369C280.877 -320.274 282.926 -322.211 284.965 -324.143C284.701 -323.255 284.453 -322.37 284.201 -321.484ZM381.788 150.355C381.243 149.997 380.702 149.638 380.153 149.282C380.129 148.477 380.099 147.674 380.068 146.87C380.573 147.249 381.078 147.628 381.578 148.008C381.649 148.79 381.72 149.573 381.788 150.355ZM384.397 152.093C383.885 151.748 383.374 151.402 382.858 151.058C382.796 150.316 382.727 149.575 382.659 148.833C383.131 149.194 383.607 149.553 384.073 149.915C384.182 150.641 384.293 151.367 384.397 152.093ZM386.952 153.832C386.48 153.505 385.999 153.182 385.523 152.858C385.427 152.178 385.322 151.5 385.219 150.822C385.654 151.166 386.093 151.509 386.523 151.854C386.668 152.513 386.816 153.171 386.952 153.832ZM389.441 155.583C389.011 155.277 388.577 154.974 388.143 154.669C388.02 154.06 387.888 153.452 387.756 152.845C388.153 153.166 388.544 153.49 388.938 153.813C389.108 154.402 389.278 154.992 389.441 155.583ZM391.847 157.32C391.466 157.041 391.09 156.762 390.705 156.484C390.564 155.963 390.429 155.438 390.283 154.917C390.632 155.21 390.972 155.505 391.319 155.799C391.5 156.305 391.669 156.813 391.847 157.32ZM394.168 159.035C393.855 158.8 393.545 158.565 393.231 158.332C393.085 157.904 392.933 157.478 392.786 157.051C393.061 157.289 393.34 157.526 393.613 157.764C393.798 158.188 393.986 158.61 394.168 159.035ZM396.375 160.713C396.158 160.546 395.938 160.381 395.72 160.214C395.589 159.904 395.458 159.594 395.323 159.284C395.512 159.453 395.703 159.619 395.888 159.787C396.052 160.095 396.214 160.404 396.375 160.713ZM398.402 162.305L398.136 162.095L397.908 161.642L398.108 161.83L398.402 162.305ZM223.558 -260.562L223.47 -260.473L223.572 -260.58L223.558 -260.562ZM230.009 -267.003C229.178 -266.172 228.332 -265.335 227.509 -264.508C227.766 -264.855 228.002 -265.195 228.259 -265.543C229.18 -266.508 230.049 -267.448 230.987 -268.421C230.668 -267.95 230.327 -267.472 230.009 -267.003ZM237.033 -274.015C235.84 -272.836 234.706 -271.683 233.519 -270.506C233.909 -271.073 234.296 -271.637 234.691 -272.206C235.785 -273.331 236.906 -274.469 238.012 -275.599C237.672 -275.066 237.368 -274.546 237.033 -274.015ZM244.124 -280.893C242.689 -279.511 241.245 -278.125 239.849 -276.76C240.309 -277.477 240.799 -278.205 241.266 -278.924C242.647 -280.321 244.006 -281.709 245.416 -283.12C244.978 -282.375 244.554 -281.635 244.124 -280.893ZM251.444 -287.972C249.804 -286.394 248.201 -284.832 246.564 -283.256C247.029 -284.042 247.458 -284.817 247.933 -285.608C249.511 -287.179 251.124 -288.767 252.731 -290.352C252.306 -289.56 251.859 -288.761 251.444 -287.972ZM259.016 -295.119C257.21 -293.431 255.389 -291.735 253.642 -290.075C254.093 -290.917 254.551 -291.761 255.011 -292.607C256.732 -294.294 258.445 -295.978 260.205 -297.683C259.794 -296.824 259.417 -295.975 259.016 -295.119ZM266.793 -302.415C264.807 -300.559 262.853 -298.716 260.875 -296.863C261.307 -297.769 261.749 -298.678 262.193 -299.588C264.068 -301.398 265.982 -303.226 267.896 -305.055C267.53 -304.175 267.148 -303.292 266.793 -302.415ZM274.814 -309.787C272.692 -307.857 270.554 -305.921 268.505 -304.023C268.878 -304.921 269.251 -305.82 269.633 -306.721C271.649 -308.639 273.67 -310.559 275.733 -312.499C275.415 -311.593 275.119 -310.692 274.814 -309.787ZM283.046 -317.299C280.781 -315.24 278.554 -313.199 276.301 -311.145C276.622 -312.072 276.935 -312.997 277.265 -313.927C279.404 -315.932 281.584 -317.957 283.771 -319.984C283.522 -319.088 283.285 -318.194 283.046 -317.299ZM382.056 153.747C381.45 153.396 380.837 153.049 380.225 152.7C380.21 151.865 380.202 151.029 380.182 150.194C380.747 150.564 381.313 150.933 381.872 151.303C381.939 152.117 381.997 152.932 382.056 153.747ZM384.847 155.376C384.272 155.035 383.686 154.698 383.106 154.36C383.05 153.578 383.002 152.797 382.942 152.017C383.482 152.379 384.015 152.744 384.55 153.109C384.655 153.863 384.75 154.62 384.847 155.376ZM387.584 157.025C387.038 156.693 386.493 156.361 385.942 156.031C385.85 155.308 385.759 154.586 385.662 153.864C386.172 154.215 386.672 154.57 387.177 154.923C387.316 155.622 387.451 156.323 387.584 157.025ZM390.266 158.679C389.756 158.36 389.25 158.038 388.735 157.72C388.611 157.063 388.481 156.407 388.353 155.751C388.82 156.083 389.289 156.413 389.751 156.746C389.925 157.39 390.101 158.033 390.266 158.679ZM392.87 160.322C392.412 160.028 391.947 159.735 391.485 159.443C391.335 158.852 391.179 158.263 391.022 157.674C391.445 157.984 391.874 158.291 392.294 158.603C392.489 159.175 392.681 159.748 392.87 160.322ZM395.391 161.966C394.989 161.699 394.577 161.436 394.173 161.171C394.009 160.665 393.852 160.156 393.685 159.65C394.055 159.929 394.422 160.209 394.789 160.489C394.993 160.98 395.192 161.474 395.391 161.966ZM397.84 163.614C397.502 163.383 397.166 163.153 396.824 162.924C396.655 162.501 396.479 162.08 396.308 161.658C396.613 161.897 396.913 162.139 397.216 162.379C397.424 162.79 397.637 163.2 397.84 163.614ZM400.135 165.194C399.891 165.024 399.653 164.85 399.408 164.68C399.265 164.38 399.129 164.078 398.982 163.778C399.199 163.953 399.406 164.13 399.621 164.305C399.797 164.6 399.962 164.898 400.135 165.194ZM402.262 166.702L401.962 166.49C401.873 166.333 401.781 166.177 401.691 166.021C401.766 166.084 401.843 166.146 401.919 166.21L402.262 166.702ZM212.685 -248.098L211.516 -246.917L211.587 -247.008C211.992 -247.432 212.424 -247.87 212.836 -248.298L212.685 -248.098ZM219.533 -254.941C218.786 -254.214 218.027 -253.48 217.305 -252.764L217.816 -253.44C218.602 -254.252 219.395 -255.067 220.172 -255.874C219.951 -255.56 219.752 -255.255 219.533 -254.941ZM226.596 -261.843C225.447 -260.718 224.285 -259.588 223.139 -258.465C223.582 -259.086 224.046 -259.715 224.494 -260.339C225.536 -261.395 226.631 -262.476 227.711 -263.551C227.332 -262.978 226.971 -262.413 226.596 -261.843ZM233.883 -268.919C232.427 -267.525 231.024 -266.155 229.595 -264.773C230.041 -265.44 230.492 -266.109 230.944 -266.778C232.347 -268.179 233.758 -269.584 235.16 -270.985C234.734 -270.296 234.302 -269.605 233.883 -268.919ZM241.256 -275.902C239.657 -274.391 238.05 -272.877 236.48 -271.379C236.979 -272.184 237.462 -272.982 237.971 -273.791C239.488 -275.283 241.055 -276.798 242.625 -278.314C242.167 -277.51 241.704 -276.704 241.256 -275.902ZM249.04 -283.259C247.179 -281.52 245.402 -279.818 243.564 -278.09C244.052 -278.946 244.568 -279.813 245.067 -280.674C246.799 -282.352 248.537 -284.032 250.282 -285.716C249.857 -284.894 249.453 -284.079 249.04 -283.259ZM256.851 -290.447C254.89 -288.651 252.924 -286.851 251.016 -285.078C251.474 -285.969 251.915 -286.854 252.385 -287.749C254.257 -289.536 256.179 -291.347 258.109 -293.161C257.694 -292.258 257.253 -291.347 256.851 -290.447ZM265.06 -298.002C262.898 -296.029 260.824 -294.097 258.683 -292.133C259.103 -293.054 259.536 -293.98 259.968 -294.905C261.995 -296.812 264.027 -298.721 266.08 -300.639C265.728 -299.757 265.4 -298.881 265.06 -298.002ZM273.37 -305.453C271.111 -303.439 268.84 -301.418 266.653 -299.437C267.014 -300.358 267.368 -301.277 267.744 -302.201C269.886 -304.19 272.077 -306.202 274.282 -308.22C273.974 -307.297 273.665 -306.374 273.37 -305.453ZM281.964 -313.149C279.556 -311.002 277.209 -308.884 274.808 -306.742C275.116 -307.684 275.451 -308.632 275.769 -309.577C278.058 -311.671 280.353 -313.768 282.676 -315.877C282.438 -314.968 282.19 -314.057 281.964 -313.149ZM382.289 157.149C381.618 156.81 380.944 156.473 380.268 156.137C380.263 155.267 380.253 154.399 380.239 153.531C380.869 153.892 381.492 154.257 382.118 154.621C382.178 155.464 382.238 156.306 382.289 157.149ZM385.256 158.676C384.611 158.341 383.971 158.004 383.32 157.671C383.275 156.858 383.222 156.046 383.167 155.234C383.768 155.588 384.371 155.942 384.965 156.297C385.066 157.089 385.164 157.882 385.256 158.676ZM388.166 160.209C387.554 159.882 386.942 159.556 386.324 159.231C386.24 158.473 386.154 157.716 386.061 156.959C386.632 157.305 387.208 157.647 387.772 157.995C387.909 158.731 388.037 159.469 388.166 160.209ZM391.022 161.748C390.448 161.433 389.863 161.122 389.284 160.81C389.165 160.111 389.05 159.41 388.925 158.713C389.463 159.047 389.999 159.382 390.531 159.719C390.698 160.394 390.86 161.071 391.022 161.748ZM393.831 163.318C393.292 163.013 392.746 162.71 392.202 162.407C392.052 161.764 391.892 161.122 391.736 160.479C392.241 160.803 392.734 161.13 393.233 161.456C393.435 162.076 393.639 162.695 393.831 163.318ZM396.539 164.874C396.049 164.588 395.563 164.301 395.066 164.017C394.894 163.445 394.716 162.873 394.534 162.303C394.993 162.607 395.448 162.912 395.902 163.217C396.12 163.768 396.328 164.322 396.539 164.874ZM399.177 166.429C398.742 166.169 398.31 165.908 397.872 165.649C397.687 165.157 397.503 164.666 397.314 164.176C397.706 164.443 398.103 164.707 398.49 164.976C398.719 165.46 398.952 165.944 399.177 166.429ZM401.716 167.969C401.365 167.752 401.004 167.539 400.652 167.323C400.466 166.914 400.272 166.508 400.08 166.101C400.406 166.332 400.736 166.563 401.06 166.795C401.281 167.185 401.499 167.577 401.716 167.969ZM404.126 169.49L403.346 168.996C403.188 168.702 403.028 168.406 402.867 168.112L403.555 168.621L404.126 169.49ZM406.372 170.943L406.013 170.704L405.731 170.261L406.023 170.488L406.372 170.943ZM208.805 -242.778C208.047 -242.042 207.296 -241.31 206.557 -240.583L207.146 -241.337C207.886 -242.091 208.656 -242.859 209.408 -243.619C209.203 -243.337 209.009 -243.059 208.805 -242.778ZM215.921 -249.671C214.753 -248.537 213.571 -247.396 212.402 -246.262C212.789 -246.788 213.214 -247.33 213.605 -247.858C214.779 -249.035 215.909 -250.193 217.087 -251.374C216.697 -250.806 216.307 -250.237 215.921 -249.671ZM223.198 -256.638C221.843 -255.359 220.487 -254.079 219.17 -252.819C219.614 -253.459 220.031 -254.088 220.481 -254.73C221.806 -256.04 223.182 -257.372 224.544 -258.698C224.102 -258.015 223.631 -257.319 223.198 -256.638ZM230.855 -263.873C229.241 -262.351 227.637 -260.833 226.031 -259.315C226.528 -260.083 227.033 -260.853 227.539 -261.625C229.099 -263.142 230.62 -264.642 232.185 -266.162C231.723 -265.392 231.307 -264.639 230.855 -263.873ZM238.642 -271.105C236.821 -269.431 234.988 -267.751 233.222 -266.103C233.736 -266.96 234.296 -267.836 234.822 -268.698C236.508 -270.315 238.263 -271.963 240.004 -273.605C239.545 -272.77 239.092 -271.936 238.642 -271.105ZM246.643 -278.49C244.657 -276.672 242.744 -274.888 240.786 -273.083C241.263 -273.953 241.716 -274.815 242.205 -275.689C244.136 -277.513 246.034 -279.323 247.973 -281.151C247.532 -280.265 247.074 -279.372 246.643 -278.49ZM254.904 -285.947C252.773 -284.03 250.637 -282.111 248.558 -280.22C249.021 -281.157 249.511 -282.103 249.986 -283.044C251.957 -284.882 254.017 -286.761 256.058 -288.63C255.664 -287.732 255.288 -286.841 254.904 -285.947ZM263.351 -293.53C261.075 -291.503 258.848 -289.498 256.616 -287.491C257.014 -288.406 257.391 -289.314 257.802 -290.234C260.007 -292.261 262.185 -294.276 264.405 -296.309C264.054 -295.383 263.69 -294.453 263.351 -293.53ZM272.059 -301.224C269.652 -299.105 267.255 -296.991 264.896 -294.896C265.257 -295.857 265.642 -296.826 266.016 -297.791C268.256 -299.825 270.592 -301.904 272.912 -303.975C272.623 -303.057 272.335 -302.139 272.059 -301.224ZM280.981 -309.026C278.452 -306.83 275.939 -304.64 273.471 -302.472C273.757 -303.396 274.035 -304.319 274.331 -305.246C276.769 -307.427 279.174 -309.592 281.629 -311.781C281.403 -310.861 281.195 -309.944 280.981 -309.026ZM382.459 160.555C381.728 160.231 381 159.906 380.262 159.584C380.269 158.695 380.268 157.807 380.267 156.919C380.956 157.263 381.647 157.607 382.328 157.954C382.374 158.82 382.419 159.687 382.459 160.555ZM385.609 161.969C384.906 161.648 384.197 161.33 383.487 161.013C383.452 160.171 383.406 159.33 383.362 158.49C384.025 158.832 384.687 159.175 385.346 159.52C385.437 160.335 385.528 161.151 385.609 161.969ZM388.702 163.394C388.031 163.079 387.349 162.77 386.67 162.458C386.594 161.664 386.504 160.872 386.415 160.079C387.056 160.418 387.686 160.761 388.32 161.103C388.45 161.865 388.581 162.628 388.702 163.394ZM391.73 164.839C391.087 164.529 390.442 164.219 389.792 163.912C389.678 163.175 389.56 162.439 389.437 161.704C390.048 162.036 390.651 162.372 391.254 162.707C391.419 163.416 391.573 164.127 391.73 164.839ZM394.708 166.297C394.094 165.992 393.487 165.685 392.867 165.382C392.72 164.709 392.58 164.035 392.428 163.363C392.996 163.682 393.566 163.999 394.127 164.32C394.324 164.979 394.518 165.637 394.708 166.297ZM397.616 167.76C397.051 167.47 396.481 167.183 395.911 166.896C395.735 166.275 395.549 165.658 395.365 165.04C395.895 165.347 396.428 165.652 396.951 165.961C397.176 166.559 397.401 167.158 397.616 167.76ZM400.433 169.22C399.921 168.95 399.398 168.684 398.881 168.416C398.686 167.864 398.494 167.312 398.292 166.762C398.778 167.053 399.258 167.344 399.737 167.637C399.974 168.163 400.202 168.692 400.433 169.22ZM403.202 170.712C402.74 170.46 402.277 170.209 401.811 169.959C401.603 169.476 401.387 168.995 401.176 168.513C401.605 168.78 402.023 169.051 402.448 169.32C402.701 169.783 402.957 170.246 403.202 170.712ZM405.822 172.164C405.438 171.948 405.063 171.73 404.676 171.515C404.477 171.128 404.286 170.739 404.083 170.354C404.432 170.58 404.777 170.807 405.125 171.033C405.362 171.409 405.589 171.788 405.822 172.164ZM408.34 173.597C408.063 173.435 407.779 173.276 407.499 173.115C407.325 172.828 407.144 172.543 406.97 172.256C407.215 172.421 407.467 172.582 407.711 172.748C407.919 173.031 408.135 173.312 408.34 173.597ZM410.637 174.961L410.249 174.731L409.95 174.301L410.276 174.527C410.397 174.671 410.516 174.817 410.637 174.961ZM197.719 -230.41C196.974 -229.694 196.212 -228.97 195.485 -228.263C195.722 -228.559 195.975 -228.863 196.212 -229.16C196.934 -229.887 197.691 -230.631 198.431 -231.367L197.719 -230.41ZM204.892 -237.309L201.602 -234.146C201.968 -234.63 202.307 -235.103 202.677 -235.589C203.816 -236.721 204.942 -237.846 206.087 -238.98C205.695 -238.425 205.279 -237.861 204.892 -237.309ZM212.336 -244.363C211.007 -243.119 209.665 -241.87 208.373 -240.642C208.843 -241.299 209.309 -241.954 209.785 -242.615C211.051 -243.851 212.358 -245.109 213.653 -246.359C213.204 -245.69 212.775 -245.029 212.336 -244.363ZM220.119 -251.673C218.475 -250.138 216.88 -248.628 215.25 -247.101C215.784 -247.895 216.352 -248.702 216.895 -249.5C218.444 -250.992 219.958 -252.469 221.534 -253.973C221.052 -253.202 220.594 -252.44 220.119 -251.673ZM227.951 -258.876C226.163 -257.24 224.368 -255.599 222.62 -253.981C223.139 -254.808 223.636 -255.628 224.165 -256.459C225.904 -258.111 227.674 -259.777 229.442 -261.442C228.946 -260.587 228.435 -259.727 227.951 -258.876ZM236.094 -266.32C234.117 -264.528 232.19 -262.76 230.246 -260.983C230.767 -261.883 231.283 -262.78 231.816 -263.684C233.674 -265.425 235.558 -267.177 237.462 -268.94C236.997 -268.063 236.548 -267.192 236.094 -266.32ZM244.448 -273.826C242.306 -271.907 240.171 -269.992 238.066 -268.09C238.558 -269.025 239.097 -269.976 239.604 -270.915C241.642 -272.799 243.685 -274.686 245.745 -276.58C245.304 -275.659 244.876 -274.742 244.448 -273.826ZM252.985 -281.42C250.724 -279.423 248.482 -277.436 246.272 -275.464C246.72 -276.409 247.143 -277.346 247.604 -278.295C249.739 -280.244 251.955 -282.23 254.157 -284.21C253.764 -283.279 253.366 -282.346 252.985 -281.42ZM261.809 -289.187C259.392 -287.068 257.01 -284.966 254.623 -282.861C255.022 -283.821 255.454 -284.789 255.868 -285.753C258.181 -287.837 260.457 -289.903 262.809 -292.005C262.468 -291.064 262.136 -290.125 261.809 -289.187ZM270.82 -297C268.297 -294.828 265.767 -292.652 263.314 -290.513C263.65 -291.454 263.97 -292.391 264.317 -293.336C266.708 -295.464 269.159 -297.621 271.611 -299.779C271.335 -298.85 271.085 -297.927 270.82 -297ZM280.062 -304.968C277.395 -302.684 274.806 -300.436 272.172 -298.167C272.447 -299.118 272.735 -300.072 273.022 -301.026C275.553 -303.25 278.097 -305.48 280.677 -307.728C280.466 -306.807 280.261 -305.887 280.062 -304.968ZM382.584 163.968C381.798 163.663 381.004 163.362 380.21 163.061C380.227 162.149 380.251 161.237 380.262 160.327C381.011 160.656 381.754 160.988 382.497 161.32C382.532 162.201 382.557 163.085 382.584 163.968ZM385.904 165.272C385.142 164.969 384.373 164.668 383.603 164.368C383.577 163.504 383.558 162.639 383.524 161.776C384.252 162.104 384.969 162.436 385.689 162.766C385.767 163.6 385.834 164.436 385.904 165.272ZM389.176 166.599C388.436 166.295 387.697 165.99 386.95 165.689C386.883 164.876 386.812 164.063 386.739 163.249C387.437 163.573 388.134 163.897 388.825 164.223C388.945 165.014 389.065 165.805 389.176 166.599ZM392.385 167.934C391.678 167.635 390.971 167.335 390.255 167.039C390.15 166.272 390.032 165.508 389.915 164.745C390.584 165.063 391.256 165.38 391.917 165.701C392.077 166.444 392.236 167.188 392.385 167.934ZM395.527 169.277C394.856 168.984 394.173 168.695 393.494 168.405C393.353 167.691 393.209 166.978 393.058 166.266C393.702 166.582 394.342 166.901 394.978 167.221C395.169 167.904 395.346 168.591 395.527 169.277ZM398.62 170.646C397.983 170.359 397.334 170.075 396.689 169.791C396.517 169.131 396.343 168.471 396.163 167.813C396.769 168.12 397.359 168.433 397.958 168.743C398.181 169.377 398.408 170.009 398.62 170.646ZM401.624 172.023C401.03 171.747 400.438 171.471 399.84 171.198C399.641 170.596 399.431 169.997 399.222 169.398C399.788 169.695 400.345 169.995 400.904 170.294C401.151 170.868 401.386 171.446 401.624 172.023ZM404.567 173.412C404.017 173.147 403.472 172.882 402.915 172.62C402.701 172.09 402.49 171.56 402.27 171.033C402.773 171.306 403.281 171.578 403.778 171.853C404.041 172.373 404.31 172.89 404.567 173.412ZM407.399 174.787C406.928 174.552 406.445 174.322 405.969 174.089C405.744 173.624 405.508 173.162 405.274 172.7C405.725 172.954 406.177 173.207 406.622 173.463C406.887 173.903 407.142 174.345 407.399 174.787ZM410.145 176.177C409.743 175.97 409.335 175.767 408.93 175.562C408.713 175.184 408.496 174.805 408.277 174.428C408.648 174.646 409.016 174.865 409.385 175.085C409.637 175.449 409.895 175.812 410.145 176.177ZM412.738 177.536C412.444 177.379 412.15 177.222 411.854 177.066C411.669 176.789 411.485 176.512 411.298 176.236C411.575 176.406 411.846 176.579 412.122 176.75C412.333 177.01 412.531 177.275 412.738 177.536ZM415.13 178.821C414.982 178.74 414.841 178.657 414.691 178.576C414.582 178.433 414.467 178.291 414.357 178.148C414.483 178.23 414.605 178.313 414.732 178.395C414.864 178.537 414.999 178.678 415.13 178.821ZM186.291 -217.858C185.588 -217.184 184.869 -216.502 184.175 -215.833C184.38 -216.086 184.566 -216.329 184.771 -216.582C185.498 -217.308 186.261 -218.05 187.004 -218.783C186.769 -218.476 186.523 -218.164 186.291 -217.858ZM193.609 -224.862C192.565 -223.87 191.563 -222.899 190.526 -221.911C190.898 -222.391 191.259 -222.867 191.634 -223.349C192.678 -224.374 193.695 -225.386 194.745 -226.416C194.37 -225.899 193.982 -225.377 193.609 -224.862ZM201.245 -232.023C199.901 -230.768 198.545 -229.507 197.222 -228.262C197.712 -228.929 198.222 -229.604 198.72 -230.274C199.979 -231.494 201.276 -232.731 202.555 -233.961C202.107 -233.31 201.687 -232.672 201.245 -232.023ZM209.065 -239.303C207.422 -237.789 205.827 -236.298 204.212 -234.797C204.751 -235.575 205.32 -236.365 205.87 -237.147C207.423 -238.63 208.969 -240.11 210.554 -241.608C210.053 -240.838 209.555 -240.069 209.065 -239.303ZM216.947 -246.514C215.2 -244.918 213.449 -243.321 211.722 -241.735C212.259 -242.559 212.769 -243.373 213.318 -244.202C215.047 -245.83 216.794 -247.468 218.54 -249.103C218.018 -248.244 217.457 -247.369 216.947 -246.514ZM225.251 -254.031C223.285 -252.268 221.334 -250.511 219.414 -248.771C219.963 -249.676 220.531 -250.589 221.093 -251.5C222.913 -253.191 224.786 -254.906 226.657 -256.621C226.17 -255.751 225.726 -254.897 225.251 -254.031ZM233.692 -261.592C231.555 -259.685 229.445 -257.79 227.329 -255.892C227.847 -256.821 228.382 -257.758 228.916 -258.692C230.983 -260.587 233.009 -262.464 235.105 -264.372C234.629 -263.444 234.154 -262.516 233.692 -261.592ZM242.325 -269.202C240.079 -267.237 237.821 -265.265 235.635 -263.328C236.111 -264.264 236.575 -265.196 237.063 -266.138C239.202 -268.074 241.397 -270.036 243.587 -271.997C243.16 -271.063 242.74 -270.132 242.325 -269.202ZM251.237 -277.012C248.798 -274.891 246.429 -272.803 244.03 -270.699C244.469 -271.671 244.955 -272.658 245.41 -273.635C247.709 -275.69 250.007 -277.744 252.351 -279.821C251.974 -278.883 251.602 -277.946 251.237 -277.012ZM260.329 -284.848C257.806 -282.681 255.292 -280.519 252.822 -278.377C253.199 -279.329 253.562 -280.276 253.954 -281.232C256.371 -283.368 258.809 -285.513 261.27 -287.67C260.945 -286.726 260.64 -285.788 260.329 -284.848ZM269.642 -292.811C266.985 -290.554 264.362 -288.312 261.759 -286.081C262.086 -287.049 262.435 -288.023 262.775 -288.994C265.29 -291.192 267.858 -293.414 270.439 -295.642C270.175 -294.699 269.893 -293.751 269.642 -292.811ZM279.212 -300.912C276.44 -298.577 273.712 -296.262 270.985 -293.949C271.245 -294.9 271.518 -295.854 271.79 -296.808C274.461 -299.114 277.093 -301.401 279.801 -303.724C279.601 -302.786 279.4 -301.848 279.212 -300.912ZM382.671 167.402C381.825 167.117 380.977 166.834 380.124 166.553C380.153 165.621 380.176 164.691 380.196 163.762C381.002 164.071 381.807 164.381 382.606 164.693C382.633 165.595 382.656 166.498 382.671 167.402ZM386.157 168.596C385.332 168.311 384.513 168.021 383.681 167.739C383.667 166.856 383.648 165.974 383.624 165.093C384.407 165.401 385.194 165.707 385.968 166.018C386.036 166.876 386.099 167.736 386.157 168.596ZM389.591 169.805C388.794 169.52 387.995 169.235 387.189 168.954C387.133 168.117 387.078 167.28 387.014 166.445C387.775 166.753 388.536 167.061 389.288 167.372C389.396 168.181 389.491 168.994 389.591 169.805ZM392.978 171.029C392.21 170.746 391.428 170.467 390.651 170.187C390.556 169.395 390.459 168.604 390.357 167.814C391.091 168.12 391.814 168.43 392.54 168.74C392.69 169.502 392.839 170.264 392.978 171.029ZM396.295 172.276C395.559 171.996 394.817 171.718 394.074 171.441C393.941 170.695 393.793 169.952 393.648 169.21C394.356 169.515 395.055 169.824 395.754 170.132C395.94 170.845 396.118 171.56 396.295 172.276ZM399.55 173.539C398.84 173.26 398.137 172.98 397.419 172.703C397.255 172.016 397.091 171.329 396.916 170.645C397.585 170.943 398.254 171.241 398.915 171.541C399.131 172.206 399.342 172.872 399.55 173.539ZM402.742 174.817C402.073 174.545 401.406 174.272 400.73 174.003C400.534 173.367 400.33 172.734 400.125 172.1C400.754 172.389 401.387 172.677 402.009 172.969C402.258 173.584 402.505 174.199 402.742 174.817ZM405.848 176.095C405.231 175.836 404.601 175.581 403.977 175.323C403.757 174.745 403.538 174.167 403.31 173.59C403.901 173.873 404.487 174.156 405.072 174.441C405.336 174.991 405.591 175.543 405.848 176.095ZM408.893 177.406C408.325 177.159 407.751 176.914 407.177 176.668C406.94 176.147 406.691 175.629 406.447 175.11C406.989 175.379 407.518 175.653 408.054 175.923C408.337 176.417 408.618 176.91 408.893 177.406ZM411.826 178.714C411.317 178.484 410.815 178.253 410.301 178.025C410.062 177.583 409.83 177.138 409.585 176.698C410.056 176.941 410.522 177.187 410.99 177.432C411.272 177.858 411.549 178.285 411.826 178.714ZM414.656 180.015C414.234 179.817 413.815 179.618 413.39 179.422C413.159 179.056 412.915 178.694 412.678 178.33C413.067 178.538 413.464 178.743 413.848 178.953C414.12 179.306 414.39 179.66 414.656 180.015ZM417.323 181.285C417.016 181.135 416.7 180.989 416.391 180.84C416.197 180.578 416.008 180.314 415.812 180.053C416.093 180.21 416.378 180.366 416.656 180.525C416.88 180.778 417.103 181.03 417.323 181.285ZM419.824 182.53L419.363 182.3C419.254 182.169 419.149 182.037 419.038 181.907L419.453 182.152C419.58 182.277 419.697 182.405 419.824 182.53ZM174.563 -205.162C173.984 -204.607 173.392 -204.047 172.813 -203.493C173.007 -203.728 173.193 -203.958 173.388 -204.193C173.988 -204.786 174.611 -205.391 175.218 -205.986C175.005 -205.715 174.774 -205.434 174.563 -205.162ZM182.222 -212.433C181.194 -211.47 180.19 -210.521 179.182 -209.568C179.55 -210.03 179.923 -210.497 180.293 -210.961C181.306 -211.949 182.27 -212.912 183.298 -213.907C182.928 -213.41 182.587 -212.927 182.222 -212.433ZM189.888 -219.58C188.516 -218.298 187.13 -217.011 185.759 -215.731C186.259 -216.395 186.807 -217.08 187.314 -217.747C188.614 -218.996 189.939 -220.256 191.246 -221.508C190.788 -220.863 190.34 -220.222 189.888 -219.58ZM197.697 -226.779C196.148 -225.367 194.594 -223.953 193.086 -222.561C193.606 -223.288 194.086 -223.997 194.613 -224.728C196.14 -226.173 197.701 -227.635 199.268 -229.1C198.749 -228.329 198.206 -227.546 197.697 -226.779ZM205.806 -234.178C204.035 -232.569 202.299 -230.977 200.542 -229.375C201.101 -230.204 201.66 -231.034 202.23 -231.868C203.937 -233.464 205.625 -235.049 207.349 -236.652C206.826 -235.824 206.318 -235.001 205.806 -234.178ZM214.133 -241.645C212.168 -239.893 210.195 -238.138 208.277 -236.409C208.846 -237.312 209.462 -238.234 210.044 -239.142C211.876 -240.831 213.761 -242.545 215.638 -244.255C215.123 -243.38 214.634 -242.515 214.133 -241.645ZM222.637 -249.221C220.512 -247.342 218.441 -245.489 216.351 -243.627C216.883 -244.536 217.376 -245.429 217.921 -246.343C219.986 -248.221 222.041 -250.096 224.144 -251.994C223.645 -251.07 223.124 -250.139 222.637 -249.221ZM231.394 -256.899C229.139 -254.927 226.889 -252.958 224.673 -251.006C225.181 -251.952 225.697 -252.901 226.221 -253.853C228.365 -255.782 230.534 -257.722 232.714 -259.667C232.257 -258.738 231.837 -257.822 231.394 -256.899ZM240.36 -264.687C237.947 -262.606 235.553 -260.533 233.195 -258.478C233.668 -259.45 234.172 -260.433 234.661 -261.41C236.937 -263.432 239.261 -265.477 241.596 -267.527C241.178 -266.579 240.763 -265.631 240.36 -264.687ZM249.552 -272.601C247.023 -270.433 244.532 -268.283 242.036 -266.13C242.453 -267.092 242.86 -268.05 243.292 -269.017C245.733 -271.159 248.14 -273.287 250.615 -275.446C250.249 -274.494 249.904 -273.549 249.552 -272.601ZM258.943 -280.568C256.298 -278.337 253.638 -276.099 251.064 -273.902C251.429 -274.872 251.825 -275.85 252.205 -276.823C254.715 -279.003 257.294 -281.215 259.869 -283.426C259.559 -282.473 259.239 -281.518 258.943 -280.568ZM268.601 -288.717C265.82 -286.384 263.105 -284.083 260.365 -281.771C260.671 -282.732 260.981 -283.694 261.3 -284.659C263.956 -286.938 266.605 -289.215 269.31 -291.518C269.065 -290.582 268.835 -289.65 268.601 -288.717ZM278.448 -296.908C275.57 -294.523 272.707 -292.146 269.894 -289.792C270.135 -290.735 270.359 -291.674 270.61 -292.619C273.366 -294.961 276.149 -297.316 278.96 -299.685C278.778 -298.757 278.62 -297.834 278.448 -296.908ZM382.706 170.851C381.801 170.587 380.899 170.323 379.987 170.062C380.029 169.116 380.065 168.172 380.097 167.228C380.962 167.514 381.826 167.799 382.679 168.088C382.692 169.008 382.704 169.928 382.706 170.851ZM386.366 171.932C385.487 171.668 384.601 171.406 383.714 171.145C383.713 170.24 383.701 169.337 383.687 168.435C384.53 168.723 385.366 169.014 386.202 169.305C386.261 170.18 386.321 171.054 386.366 171.932ZM389.96 173.024C389.111 172.76 388.245 172.503 387.387 172.242C387.345 171.38 387.29 170.522 387.235 169.662C388.059 169.952 388.868 170.248 389.683 170.541C389.782 171.367 389.873 172.196 389.96 173.024ZM393.506 174.148C392.676 173.882 391.842 173.617 391.004 173.354C390.922 172.543 390.838 171.732 390.743 170.923C391.538 171.212 392.329 171.503 393.117 171.796C393.252 172.578 393.379 173.363 393.506 174.148ZM397.007 175.292C396.198 175.024 395.396 174.753 394.578 174.488C394.456 173.725 394.328 172.964 394.201 172.203C394.961 172.489 395.729 172.773 396.481 173.063C396.661 173.805 396.842 174.546 397.007 175.292ZM400.42 176.441C399.653 176.178 398.881 175.916 398.105 175.656C397.947 174.937 397.78 174.22 397.61 173.505C398.349 173.792 399.084 174.08 399.814 174.37C400.023 175.058 400.22 175.75 400.42 176.441ZM403.785 177.61C403.053 177.349 402.304 177.095 401.563 176.838C401.372 176.171 401.186 175.502 400.988 174.837C401.689 175.12 402.377 175.406 403.069 175.691C403.31 176.33 403.555 176.968 403.785 177.61ZM407.066 178.805C406.377 178.551 405.682 178.298 404.984 178.046C404.764 177.428 404.533 176.813 404.303 176.198C404.97 176.477 405.631 176.761 406.293 177.043C406.558 177.628 406.81 178.217 407.066 178.805ZM410.294 180.02C409.637 179.769 408.986 179.514 408.321 179.265C408.085 178.712 407.85 178.158 407.606 177.608C408.214 177.872 408.825 178.136 409.427 178.403C409.718 178.941 410.013 179.478 410.294 180.02ZM413.403 181.23C412.813 180.995 412.222 180.762 411.626 180.53C411.373 180.033 411.112 179.539 410.848 179.045C411.412 179.299 411.982 179.552 412.54 179.809C412.835 180.28 413.113 180.756 413.403 181.23ZM416.447 182.457C415.922 182.24 415.382 182.029 414.852 181.814C414.596 181.385 414.333 180.957 414.072 180.529C414.566 180.762 415.058 180.996 415.547 181.231C415.848 181.64 416.155 182.045 416.447 182.457ZM419.343 183.685C418.905 183.497 418.464 183.309 418.021 183.123C417.778 182.773 417.543 182.423 417.295 182.076C417.711 182.28 418.118 182.488 418.53 182.694C418.805 183.023 419.074 183.354 419.343 183.685ZM422.132 184.905C421.798 184.756 421.471 184.605 421.134 184.457C420.926 184.196 420.708 183.939 420.495 183.68C420.811 183.842 421.115 184.009 421.427 184.172C421.662 184.416 421.9 184.659 422.132 184.905ZM424.622 186.025C424.467 185.953 424.306 185.884 424.149 185.812L423.798 185.427C423.934 185.502 424.077 185.574 424.213 185.648L424.622 186.025ZM162.938 -192.696L161.171 -191.015L161.68 -191.618C162.258 -192.184 162.849 -192.757 163.427 -193.323C163.259 -193.112 163.105 -192.907 162.938 -192.696ZM170.531 -199.829C169.506 -198.877 168.468 -197.917 167.464 -196.974C167.852 -197.455 168.268 -197.949 168.66 -198.431C169.635 -199.374 170.629 -200.325 171.628 -201.279C171.256 -200.793 170.898 -200.312 170.531 -199.829ZM178.277 -207.038C176.919 -205.784 175.616 -204.557 174.272 -203.311C174.727 -203.901 175.14 -204.472 175.6 -205.065C176.958 -206.358 178.304 -207.647 179.671 -208.946C179.208 -208.311 178.733 -207.67 178.277 -207.038ZM186.089 -214.166C184.591 -212.802 183.081 -211.434 181.605 -210.082C182.151 -210.826 182.682 -211.563 183.236 -212.311C184.695 -213.681 186.2 -215.074 187.69 -216.461C187.163 -215.699 186.606 -214.924 186.089 -214.166ZM194.392 -221.693C192.607 -220.089 190.858 -218.504 189.107 -216.917C189.685 -217.75 190.292 -218.596 190.882 -219.434C192.562 -220.993 194.222 -222.541 195.932 -224.114C195.402 -223.3 194.914 -222.503 194.392 -221.693ZM202.769 -229.174C200.805 -227.424 198.844 -225.675 196.904 -223.936C197.484 -224.824 198.082 -225.721 198.676 -226.615C200.555 -228.337 202.462 -230.071 204.367 -231.805C203.829 -230.926 203.295 -230.048 202.769 -229.174ZM211.288 -236.696C209.217 -234.882 207.147 -233.069 205.129 -231.281C205.685 -232.193 206.219 -233.096 206.789 -234.014C208.79 -235.824 210.839 -237.657 212.893 -239.493C212.367 -238.564 211.801 -237.62 211.288 -236.696ZM220.214 -244.516C217.928 -242.525 215.701 -240.563 213.445 -238.586C213.985 -239.542 214.554 -240.51 215.108 -241.472C217.277 -243.409 219.413 -245.33 221.611 -247.281C221.127 -246.353 220.684 -245.44 220.214 -244.516ZM229.211 -252.267C226.824 -250.219 224.43 -248.168 222.101 -246.149C222.597 -247.11 223.091 -248.07 223.603 -249.036C225.883 -251.051 228.226 -253.096 230.564 -255.137C230.112 -254.18 229.648 -253.218 229.211 -252.267ZM238.495 -260.219C235.962 -258.062 233.474 -255.929 230.987 -253.796C231.441 -254.767 231.895 -255.739 232.364 -256.715C234.773 -258.819 237.189 -260.926 239.648 -263.054C239.249 -262.104 238.881 -261.164 238.495 -260.219ZM247.962 -268.225C245.31 -265.991 242.677 -263.764 240.073 -261.553C240.477 -262.53 240.904 -263.514 241.324 -264.496C243.865 -266.69 246.426 -268.894 249.01 -271.11C248.659 -270.148 248.299 -269.184 247.962 -268.225ZM257.68 -276.364C254.918 -274.062 252.163 -271.765 249.463 -269.494C249.81 -270.465 250.16 -271.436 250.522 -272.411C253.141 -274.648 255.822 -276.917 258.507 -279.187C258.217 -278.242 257.959 -277.305 257.68 -276.364ZM267.599 -284.615C264.711 -282.225 261.887 -279.866 259.041 -277.496C259.329 -278.455 259.612 -279.413 259.914 -280.376C262.7 -282.732 265.449 -285.071 268.281 -287.449C268.049 -286.503 267.82 -285.558 267.599 -284.615ZM277.73 -292.922C274.746 -290.486 271.753 -288.045 268.85 -285.649C269.078 -286.604 269.335 -287.566 269.574 -288.524C272.411 -290.899 275.319 -293.31 278.229 -295.722C278.061 -294.788 277.889 -293.854 277.73 -292.922ZM382.681 174.31C381.726 174.071 380.762 173.835 379.798 173.599C379.853 172.638 379.913 171.676 379.962 170.716C380.885 170.981 381.797 171.25 382.712 171.518C382.709 172.447 382.692 173.379 382.681 174.31ZM386.506 175.28C385.573 175.039 384.628 174.802 383.685 174.564C383.696 173.646 383.711 172.727 383.714 171.81C384.614 172.076 385.505 172.345 386.395 172.615C386.435 173.502 386.475 174.39 386.506 175.28ZM390.281 176.276C389.367 176.031 388.449 175.787 387.525 175.546C387.495 174.67 387.456 173.797 387.415 172.925C388.29 173.191 389.165 173.459 390.03 173.729C390.119 174.577 390.206 175.425 390.281 176.276ZM393.983 177.284C393.095 177.038 392.21 176.792 391.313 176.549C391.241 175.717 391.159 174.888 391.076 174.06C391.928 174.328 392.783 174.596 393.625 174.868C393.752 175.672 393.867 176.478 393.983 177.284ZM397.641 178.313C396.779 178.065 395.91 177.821 395.037 177.577C394.927 176.791 394.82 176.003 394.699 175.22C395.525 175.49 396.346 175.762 397.164 176.036C397.327 176.794 397.488 177.552 397.641 178.313ZM401.228 179.357C400.402 179.111 399.563 178.871 398.727 178.629C398.579 177.883 398.42 177.142 398.26 176.399C399.063 176.67 399.85 176.948 400.643 177.222C400.844 177.932 401.04 178.643 401.228 179.357ZM404.753 180.432C403.953 180.185 403.15 179.938 402.341 179.694C402.161 179.001 401.98 178.309 401.788 177.619C402.553 177.888 403.316 178.158 404.074 178.431C404.306 179.096 404.53 179.764 404.753 180.432ZM408.214 181.524C407.448 181.278 406.689 181.03 405.913 180.786C405.702 180.144 405.481 179.504 405.26 178.863C405.986 179.127 406.718 179.389 407.435 179.656C407.7 180.277 407.961 180.9 408.214 181.524ZM411.594 182.628C410.874 182.387 410.147 182.149 409.42 181.912C409.183 181.32 408.947 180.729 408.699 180.14C409.387 180.401 410.071 180.66 410.749 180.924C411.034 181.491 411.317 182.058 411.594 182.628ZM414.893 183.747C414.23 183.516 413.552 183.292 412.881 183.064C412.621 182.521 412.348 181.981 412.077 181.442C412.724 181.697 413.36 181.957 414.001 182.216C414.304 182.724 414.599 183.235 414.893 183.747ZM418.116 184.897C417.498 184.673 416.877 184.45 416.251 184.229C415.983 183.752 415.723 183.272 415.446 182.798C416.031 183.039 416.603 183.285 417.18 183.528C417.493 183.984 417.809 184.438 418.116 184.897ZM421.223 186.046C420.677 185.84 420.138 185.63 419.585 185.426C419.316 185.014 419.034 184.605 418.754 184.196C419.278 184.421 419.802 184.647 420.321 184.874C420.63 185.262 420.922 185.656 421.223 186.046ZM424.23 187.197C423.768 187.016 423.301 186.836 422.834 186.657C422.581 186.323 422.326 185.992 422.071 185.66C422.495 185.851 422.926 186.039 423.346 186.231C423.639 186.554 423.942 186.873 424.23 187.197ZM427.039 188.326C426.706 188.189 426.367 188.056 426.031 187.921C425.826 187.684 425.631 187.444 425.422 187.209C425.733 187.356 426.044 187.503 426.351 187.65C426.584 187.874 426.809 188.101 427.039 188.326ZM429.708 189.444L429.176 189.218C429.055 189.095 428.928 188.976 428.805 188.854L429.291 189.098C429.427 189.214 429.571 189.328 429.708 189.444ZM151.105 -180.161C150.442 -179.541 149.819 -178.94 149.165 -178.324L149.504 -178.719L151.526 -180.688L151.105 -180.161ZM158.597 -187.129C157.575 -186.176 156.536 -185.216 155.515 -184.264C155.875 -184.702 156.218 -185.132 156.582 -185.572C157.598 -186.547 158.651 -187.539 159.685 -188.523C159.323 -188.059 158.954 -187.591 158.597 -187.129ZM166.316 -194.254C165.082 -193.13 163.854 -192.008 162.649 -190.899C163.104 -191.477 163.538 -192.045 163.998 -192.626C165.278 -193.838 166.526 -195.033 167.828 -196.255C167.336 -195.593 166.802 -194.913 166.316 -194.254ZM174.439 -201.651C172.911 -200.262 171.389 -198.876 169.869 -197.49C170.425 -198.231 170.994 -198.979 171.56 -199.724C172.991 -201.06 174.445 -202.407 175.883 -203.746C175.382 -203.038 174.933 -202.354 174.439 -201.651ZM182.713 -209.08C180.935 -207.497 179.143 -205.908 177.412 -204.348C178.013 -205.192 178.673 -206.062 179.285 -206.91C180.934 -208.429 182.632 -209.971 184.327 -211.513C183.779 -210.697 183.25 -209.891 182.713 -209.08ZM191.163 -216.616C189.208 -214.886 187.317 -213.188 185.39 -211.471C185.967 -212.327 186.498 -213.164 187.087 -214.026C189.013 -215.779 190.904 -217.514 192.856 -219.279C192.295 -218.393 191.711 -217.497 191.163 -216.616ZM199.809 -224.192C197.73 -222.375 195.649 -220.557 193.609 -218.76C194.193 -219.683 194.779 -220.607 195.376 -221.536C197.351 -223.311 199.374 -225.11 201.392 -226.906C200.854 -225.997 200.334 -225.095 199.809 -224.192ZM208.751 -231.969C206.467 -229.997 204.211 -228.038 201.975 -226.09C202.543 -227.053 203.167 -228.04 203.749 -229.01C205.897 -230.917 208.056 -232.83 210.249 -234.76C209.736 -233.824 209.249 -232.899 208.751 -231.969ZM217.817 -239.771C215.442 -237.733 213.085 -235.703 210.739 -233.68C211.257 -234.633 211.736 -235.57 212.268 -236.529C214.591 -238.568 216.927 -240.614 219.282 -242.669C218.798 -241.706 218.286 -240.73 217.817 -239.771ZM227.183 -247.731C224.669 -245.607 222.144 -243.478 219.694 -241.386C220.18 -242.365 220.684 -243.351 221.185 -244.336C223.549 -246.389 225.986 -248.478 228.413 -250.563C227.983 -249.612 227.599 -248.678 227.183 -247.731ZM236.727 -255.794C234.062 -253.557 231.468 -251.354 228.848 -249.139C229.285 -250.117 229.728 -251.099 230.181 -252.084C232.743 -254.285 235.281 -256.475 237.887 -258.699C237.5 -257.73 237.099 -256.758 236.727 -255.794ZM246.501 -263.93C243.744 -261.642 240.986 -259.355 238.291 -257.097C238.677 -258.073 239.066 -259.051 239.466 -260.033C242.084 -262.26 244.76 -264.516 247.438 -266.772C247.108 -265.82 246.817 -264.879 246.501 -263.93ZM256.458 -272.165C253.586 -269.802 250.742 -267.453 247.929 -265.119C248.257 -266.09 248.59 -267.062 248.933 -268.037C251.689 -270.357 254.479 -272.694 257.294 -275.044C257.018 -274.085 256.721 -273.12 256.458 -272.165ZM266.686 -280.548C263.698 -278.108 260.74 -275.684 257.805 -273.269C258.077 -274.235 258.37 -275.207 258.656 -276.175C261.526 -278.569 264.405 -280.967 267.323 -283.383C267.107 -282.437 266.89 -281.491 266.686 -280.548ZM277.103 -288.992C274.024 -286.508 270.936 -284.018 267.933 -281.572C268.145 -282.522 268.353 -283.472 268.575 -284.425C271.508 -286.848 274.533 -289.317 277.547 -291.781C277.395 -290.851 277.246 -289.921 277.103 -288.992ZM267.663 -280.362C270.701 -282.841 273.814 -285.356 276.923 -287.87C264.049 -201.835 295.396 -123.165 326.706 -44.586C345.719 3.13116 364.715 50.8149 373.778 100.092C362.499 57.7342 343.129 16.8395 323.642 -24.2926C285.63 -104.531 247.201 -185.68 267.663 -280.362ZM257.437 -271.984C260.394 -274.418 263.397 -276.875 266.413 -279.339C246.452 -185.032 284.781 -104.136 322.678 -24.1409C343.224 19.2301 363.636 62.3366 374.562 107.169C361.637 68.2283 340.813 30.8709 319.783 -6.84274C274.912 -87.3056 229.128 -169.395 257.437 -271.984ZM175.456 -201.534C177.297 -203.198 179.154 -204.872 181.038 -206.559C75.3539 -44.7611 187.342 22.2266 292.572 85.1241C322.913 103.26 352.68 121.058 376.482 140.7M382.615 177.791C381.606 177.577 380.59 177.366 379.571 177.155C379.641 176.18 379.702 175.205 379.761 174.231C380.736 174.471 381.709 174.712 382.674 174.955C382.66 175.899 382.641 176.845 382.615 177.791ZM386.596 178.655C385.604 178.437 384.615 178.217 383.614 178.003C383.64 177.071 383.662 176.139 383.677 175.209C384.631 175.451 385.589 175.692 386.533 175.938C386.562 176.842 386.578 177.749 386.596 178.655ZM390.531 179.537C389.559 179.316 388.589 179.094 387.607 178.876C387.591 177.986 387.579 177.095 387.553 176.208C388.483 176.452 389.413 176.696 390.332 176.944C390.402 177.807 390.47 178.671 390.531 179.537ZM394.405 180.435C393.463 180.212 392.512 179.992 391.558 179.773C391.5 178.921 391.432 178.07 391.364 177.221C392.276 177.469 393.176 177.722 394.079 177.974C394.193 178.793 394.304 179.613 394.405 180.435ZM398.215 181.354C397.3 181.129 396.373 180.908 395.446 180.687C395.349 179.878 395.244 179.071 395.133 178.266C396.025 178.518 396.908 178.773 397.791 179.028C397.94 179.801 398.075 180.578 398.215 181.354ZM401.982 182.305C401.084 182.076 400.188 181.846 399.28 181.619C399.146 180.859 399.014 180.099 398.869 179.341C399.721 179.591 400.575 179.84 401.417 180.093C401.61 180.829 401.803 181.565 401.982 182.305ZM405.654 183.266C404.794 183.037 403.938 182.807 403.069 182.581C402.898 181.863 402.715 181.149 402.531 180.434C403.36 180.686 404.192 180.936 405.011 181.191C405.233 181.88 405.443 182.574 405.654 183.266ZM409.293 184.253C408.463 184.023 407.624 183.796 406.783 183.568C406.58 182.898 406.382 182.227 406.169 181.559C406.961 181.81 407.746 182.063 408.528 182.317C408.787 182.962 409.049 183.605 409.293 184.253ZM412.822 185.252C412.042 185.026 411.246 184.806 410.458 184.583C410.225 183.954 409.98 183.329 409.732 182.704C410.501 182.958 411.254 183.218 412.013 183.476C412.292 184.064 412.553 184.659 412.822 185.252ZM416.312 186.29C415.561 186.063 414.81 185.837 414.05 185.613C413.795 185.042 413.537 184.471 413.274 183.902C413.986 184.147 414.694 184.394 415.398 184.643C415.706 185.19 416.015 185.738 416.312 186.29ZM419.688 187.335C418.989 187.114 418.297 186.89 417.59 186.673C417.317 186.157 417.041 185.642 416.757 185.129C417.419 185.366 418.088 185.601 418.742 185.842C419.063 186.337 419.375 186.836 419.688 187.335ZM422.989 188.394C422.356 188.186 421.715 187.98 421.075 187.774C420.791 187.312 420.493 186.853 420.199 186.393C420.806 186.621 421.416 186.849 422.016 187.08C422.346 187.516 422.669 187.955 422.989 188.394ZM426.18 189.468C425.618 189.275 425.044 189.086 424.476 188.895C424.195 188.501 423.923 188.104 423.635 187.712C424.169 187.922 424.695 188.135 425.223 188.348C425.542 188.721 425.866 189.093 426.18 189.468ZM429.244 190.553C428.777 190.385 428.309 190.216 427.836 190.05C427.567 189.72 427.288 189.394 427.01 189.067C427.478 189.261 427.93 189.46 428.393 189.655C428.684 189.952 428.958 190.255 429.244 190.553ZM432.174 191.629C431.808 191.491 431.451 191.349 431.082 191.213C430.865 190.981 430.643 190.751 430.426 190.521C430.757 190.665 431.085 190.811 431.416 190.957C431.665 191.182 431.926 191.403 432.174 191.629ZM434.806 192.633C434.638 192.566 434.463 192.503 434.294 192.438C434.175 192.326 434.059 192.212 433.94 192.1C434.093 192.171 434.251 192.239 434.404 192.31L434.806 192.633ZM288.002 -300.321C287.912 -299.403 287.813 -298.485 287.732 -297.568C284.523 -294.997 281.413 -292.473 278.268 -289.933C278.415 -290.866 278.556 -291.8 278.715 -292.736C281.801 -295.26 284.858 -297.769 288.002 -300.321ZM288.394 -304.127C288.293 -303.213 288.199 -302.3 288.106 -301.388C284.997 -298.866 281.964 -296.381 278.907 -293.885C279.071 -294.828 279.255 -295.775 279.428 -296.719C282.4 -299.18 285.37 -301.64 288.394 -304.127ZM288.851 -307.966C288.736 -307.052 288.631 -306.14 288.527 -305.227C285.539 -302.773 282.581 -300.333 279.648 -297.905C279.825 -298.845 280.002 -299.783 280.19 -300.725C283.039 -303.12 285.945 -305.544 288.851 -307.966ZM289.372 -311.842C289.243 -310.922 289.105 -310.001 288.985 -309.082C286.13 -306.703 283.246 -304.311 280.448 -301.959C280.64 -302.899 280.834 -303.838 281.038 -304.78C283.763 -307.109 286.587 -309.485 289.372 -311.842ZM289.938 -315.746C289.797 -314.829 289.665 -313.913 289.533 -312.997C286.774 -310.663 283.996 -308.321 281.298 -306.015C281.505 -306.953 281.737 -307.895 281.955 -308.835C284.588 -311.126 287.243 -313.426 289.938 -315.746ZM290.568 -319.644C290.416 -318.746 290.276 -317.848 290.133 -316.951C287.467 -314.659 284.868 -312.398 282.26 -310.133C282.483 -311.071 282.698 -312.008 282.931 -312.947C285.418 -315.153 288.02 -317.41 290.568 -319.644ZM291.275 -323.615C291.106 -322.7 290.929 -321.784 290.77 -320.87C288.292 -318.7 285.719 -316.486 283.294 -314.342C283.529 -315.26 283.769 -316.179 284.014 -317.098C286.393 -319.252 288.838 -321.434 291.275 -323.615ZM292.033 -327.603C291.852 -326.697 291.679 -325.79 291.508 -324.884C289.131 -322.762 286.705 -320.617 284.385 -318.521C284.635 -319.44 284.906 -320.362 285.167 -321.283C287.43 -323.379 289.712 -325.483 292.033 -327.603ZM292.863 -331.629C292.668 -330.728 292.488 -329.827 292.305 -328.927C290.053 -326.872 287.795 -324.814 285.595 -322.783C285.857 -323.685 286.105 -324.584 286.375 -325.488C288.53 -327.531 290.655 -329.562 292.863 -331.629ZM293.779 -335.701C293.57 -334.799 293.357 -333.898 293.159 -332.998C291.035 -331.013 288.947 -329.044 286.875 -327.082C287.151 -327.983 287.435 -328.884 287.722 -329.787C289.747 -331.761 291.705 -333.706 293.779 -335.701ZM294.738 -339.737C294.523 -338.865 294.309 -337.993 294.104 -337.121C292.108 -335.205 290.183 -333.321 288.235 -331.426C288.526 -332.321 288.84 -333.22 289.14 -334.117C291.006 -335.99 292.832 -337.847 294.738 -339.737ZM295.759 -343.785C295.539 -342.953 295.339 -342.123 295.129 -341.291C293.285 -339.467 291.543 -337.685 289.74 -335.879C290.037 -336.741 290.318 -337.602 290.624 -338.466C292.322 -340.234 294.022 -342.002 295.759 -343.785ZM296.884 -347.893C296.656 -347.076 296.428 -346.259 296.209 -345.443C294.549 -343.744 292.961 -342.076 291.331 -340.389C291.638 -341.237 291.949 -342.086 292.267 -342.936C293.781 -344.579 295.334 -346.236 296.884 -347.893ZM298.066 -351.999C297.831 -351.211 297.59 -350.421 297.364 -349.633C295.893 -348.069 294.459 -346.519 293.015 -344.965C293.33 -345.792 293.673 -346.624 293.997 -347.452C295.32 -348.956 296.709 -350.483 298.066 -351.999ZM299.296 -356.086C299.068 -355.356 298.857 -354.627 298.635 -353.898C297.375 -352.498 296.123 -351.1 294.887 -349.71C295.186 -350.455 295.48 -351.201 295.787 -351.948C296.932 -353.318 298.125 -354.706 299.296 -356.086ZM300.637 -360.22C300.415 -359.547 300.2 -358.874 299.983 -358.202C298.957 -357.002 297.915 -355.795 296.907 -354.602C297.175 -355.237 297.439 -355.871 297.712 -356.507C298.683 -357.743 299.646 -358.977 300.637 -360.22ZM301.993 -364.214C301.799 -363.657 301.599 -363.1 301.41 -362.543C300.65 -361.598 299.858 -360.642 299.111 -359.701C299.321 -360.179 299.541 -360.658 299.756 -361.136C300.503 -362.163 301.231 -363.183 301.993 -364.214ZM303.27 -367.86C303.161 -367.564 303.062 -367.268 302.956 -366.972C302.5 -366.363 302.024 -365.747 301.574 -365.14C301.679 -365.364 301.792 -365.589 301.897 -365.813L303.27 -367.86ZM374.819 173.042C374.715 174.07 374.608 175.098 374.493 176.128C341.322 169.553 303.555 164.716 265.06 159.791C190.159 150.209 112.524 140.276 60.9963 116.454C-14.5435 81.5301 -34.0372 16.655 93.0659 -120.876C-22.5859 11.0486 2.37842 73.8353 79.0116 108.995C128.36 131.636 199.096 142.795 267.503 153.586C305.338 159.555 342.454 165.414 374.819 173.042ZM375.183 169.373C375.09 170.388 374.983 171.405 374.88 172.422C342.536 164.829 305.51 158.983 267.765 153.03C199.46 142.254 128.826 131.111 79.6353 108.543C0.783264 72.3646 -23.01 6.72852 105.929 -133.997C-11.6981 1.52863 18.1743 65.1658 98.5243 101.729C145.1 122.923 208.607 134.997 270.177 146.702C307.268 153.753 343.651 160.671 375.183 169.373ZM375.482 165.724C375.405 166.726 375.325 167.728 375.236 168.731C343.74 160.077 307.465 153.181 270.492 146.152C209.002 134.462 145.581 122.405 99.1433 101.274C16.4573 63.6485 -12.4483 -2.84192 118.999 -147.473C-1.34009 -7.49756 34.5023 57.0892 119.218 95.2966C162.479 114.808 218.452 127.421 272.874 139.684C309.196 147.869 344.815 155.901 375.482 165.724ZM375.748 162.09C375.682 163.081 375.613 164.072 375.536 165.065C344.914 155.301 309.422 147.299 273.238 139.146C218.88 126.896 162.973 114.298 119.833 94.8419C33.1059 55.7271 -2.16632 -11.1798 130.162 -158.983L130.842 -159.645C8.58441 -15.2665 51.9949 49.9817 141.587 89.9994C180.772 107.502 228.771 120.167 275.593 132.52C311.124 141.895 345.969 151.092 375.748 162.09ZM375.979 158.481C375.923 159.456 375.855 160.433 375.791 161.409C346.068 150.485 311.379 141.327 276.01 131.995C229.241 119.655 181.296 107.005 142.198 89.5423C51.5788 49.0652 8.45151 -17.3732 137.413 -166.036C138.09 -166.69 138.73 -167.325 139.414 -167.983C18.4724 -20.6061 71.7848 44.4714 166.538 86.351C200.534 101.377 239.845 113.409 278.34 125.192C313.062 135.819 347.115 146.245 375.979 158.481ZM376.15 154.889C376.108 155.847 376.067 156.804 376.016 157.763C347.218 145.621 313.341 135.25 278.806 124.68C240.347 112.908 201.074 100.887 167.145 85.8913C71.6477 43.6834 18.3994 -22.1905 144.458 -172.784C145.47 -173.747 146.499 -174.719 147.51 -175.684C-4.77869 16.8294 143.476 69.1415 281.11 117.674C314.999 129.624 348.231 141.349 376.15 154.889ZM376.292 151.31C376.26 152.251 376.224 153.193 376.185 154.136C348.342 140.709 315.31 129.056 281.632 117.18C143.278 68.3943 -5.80319 15.7654 152.192 -180.124C153.307 -181.172 154.47 -182.243 155.615 -183.305C15.3433 1.4234 154.472 57.6297 283.918 109.943C316.95 123.292 349.349 136.389 376.292 151.31ZM376.396 147.761C376.373 148.678 376.345 149.596 376.316 150.514C349.458 135.731 317.287 122.725 284.489 109.47C154.471 56.9256 14.7476 0.405151 159.654 -187.058C161.144 -188.44 162.595 -189.802 164.103 -191.193C35.4134 -14.0489 165.41 45.9734 286.76 101.968C318.921 116.809 350.461 131.369 376.396 147.761ZM376.452 144.218C376.443 145.111 376.436 146.004 376.418 146.899C350.576 130.677 319.281 116.234 287.383 101.516C165.611 45.3256 35.0746 -14.91 167.344 -194.151C169.041 -195.706 170.779 -197.28 172.507 -198.85C55.47 -29.4236 176.386 34.1899 289.64 93.7102C320.901 110.139 351.565 126.26 376.452 144.218ZM376.469 137.194C376.473 138.02 376.477 138.845 376.479 139.672C352.779 120.28 323.313 102.667 293.294 84.7236C187.738 21.6313 75.395 -45.5954 183.713 -208.944C185.702 -210.722 187.697 -212.504 189.706 -214.293C95.1043 -60.0692 198.28 10.0552 295.557 76.1555C324.952 96.1295 353.8 115.738 376.469 137.194ZM376.418 133.704C376.435 134.493 376.455 135.281 376.463 136.071C353.893 114.91 325.375 95.5238 296.321 75.782C198.749 9.48154 95.2487 -60.8815 192.147 -216.463C194.274 -218.343 196.474 -220.258 198.662 -222.168C114.763 -75.4183 209.187 -2.37616 298.603 66.7338C327.027 88.7024 354.932 110.277 376.418 133.704ZM376.345 130.237C376.366 130.964 376.376 131.693 376.392 132.421C355.001 109.356 327.454 88.064 299.408 66.3873C209.743 -2.91461 115.006 -76.1644 200.798 -224.037C203.104 -226.052 205.397 -228.061 207.746 -230.097C134.205 -90.7609 220.068 -15.1215 301.721 56.7701C329.152 80.921 356.099 104.65 376.345 130.237ZM376.221 126.774C376.244 127.443 376.272 128.111 376.294 128.781C356.132 103.631 329.582 80.2447 302.559 56.4529C220.684 -15.6356 134.576 -91.5007 209.732 -231.806C212.122 -233.871 214.55 -235.955 216.985 -238.043C153.49 -106.115 230.937 -28.2376 304.923 46.1522C331.328 72.7018 357.284 98.8092 376.221 126.774ZM376.073 123.33C376.103 123.916 376.135 124.502 376.16 125.089C357.291 97.6521 331.755 71.9724 305.789 45.8643C231.6 -28.7288 153.918 -106.83 218.79 -239.596C221.322 -241.763 223.903 -243.953 226.497 -246.15C172.607 -121.576 241.768 -41.8367 308.218 34.733C333.574 63.9513 358.525 92.7115 376.073 123.33ZM375.898 119.905C375.925 120.374 375.945 120.845 375.971 121.314C358.464 91.3515 333.983 63.1337 309.112 34.4749C242.481 -42.3029 173.122 -122.27 228.16 -247.556C230.809 -249.799 233.445 -252.036 236.133 -254.299C191.448 -137.108 252.572 -56.0255 311.62 22.3185C335.903 54.5368 359.833 86.2914 375.898 119.905ZM375.679 116.465L375.743 117.436C359.682 84.6501 336.28 53.5896 312.537 22.0876C253.324 -56.475 192.046 -137.803 237.697 -255.612C240.428 -257.902 243.248 -260.235 246.05 -262.561C210.12 -152.822 263.348 -70.9695 315.152 8.64288C338.33 44.2631 361.216 79.437 375.679 116.465ZM375.443 113.075L375.465 113.339C360.941 77.3802 338.655 43.1203 316.089 8.43903C264.141 -71.3976 210.759 -153.488 247.479 -263.75C250.341 -266.127 253.213 -268.509 256.13 -270.913C228.459 -168.761 274.088 -86.9018 318.832 -6.66574C340.891 32.8943 362.732 72.0612 375.443 113.075ZM330.917 -69.2746C348.591 -15.9882 366.392 37.688 373.387 92.8553C363.861 46.0915 345.78 0.703033 327.681 -44.7151C296.274 -123.542 264.841 -202.462 278.088 -288.81C281.261 -291.376 284.404 -293.927 287.647 -296.527C281.108 -219.461 305.88 -144.758 330.917 -69.2746ZM377.073 123.222L377.026 122.307L377.181 122.636C377.219 122.963 377.262 123.29 377.298 123.618L377.073 123.222ZM377.222 126.652C377.203 126.189 377.191 125.725 377.171 125.262C377.296 125.483 377.425 125.703 377.548 125.924L377.696 127.352L377.222 126.652ZM377.345 130.092C377.328 129.508 377.303 128.924 377.282 128.34C377.491 128.652 377.691 128.965 377.896 129.278C377.951 129.847 377.995 130.419 378.047 130.989C377.813 130.69 377.582 130.39 377.345 130.092ZM377.419 133.543L377.38 131.561L378.188 132.602C378.245 133.259 378.307 133.916 378.358 134.574C378.045 134.231 377.734 133.886 377.419 133.543ZM377.472 137.018C377.466 136.288 377.457 135.559 377.445 134.831C377.781 135.202 378.122 135.571 378.454 135.943C378.505 136.661 378.558 137.378 378.605 138.096C378.231 137.736 377.851 137.377 377.472 137.018ZM377.486 140.506C377.486 139.719 377.48 138.934 377.477 138.149C377.886 138.541 378.287 138.935 378.692 139.327C378.739 140.09 378.777 140.853 378.819 141.615C378.374 141.246 377.932 140.875 377.486 140.506ZM377.459 144.003C377.468 143.181 377.486 142.359 377.491 141.538C377.951 141.923 378.42 142.306 378.877 142.692C378.921 143.502 378.966 144.313 379 145.125C378.49 144.75 377.976 144.376 377.459 144.003ZM377.409 147.529C377.428 146.663 377.438 145.799 377.447 144.934C377.982 145.324 378.506 145.716 379.035 146.107C379.066 146.944 379.097 147.781 379.123 148.619C378.554 148.255 377.982 147.892 377.409 147.529ZM377.305 151.055C377.333 150.166 377.36 149.277 377.383 148.388C377.976 148.765 378.569 149.141 379.155 149.52C379.178 150.388 379.191 151.257 379.209 152.126C378.577 151.768 377.944 151.41 377.305 151.055ZM377.168 154.613C377.209 153.695 377.248 152.777 377.281 151.86C377.933 152.224 378.577 152.591 379.223 152.957C379.24 153.849 379.256 154.74 379.262 155.632C378.569 155.291 377.867 154.952 377.168 154.613ZM377 158.182C377.052 157.242 377.091 156.305 377.132 155.366C377.845 155.714 378.555 156.064 379.261 156.415C379.262 157.327 379.264 158.239 379.257 159.152C378.506 158.828 377.756 158.504 377 158.182ZM376.774 161.769C376.837 160.813 376.9 159.856 376.957 158.901C377.726 159.23 378.494 159.558 379.257 159.888C379.247 160.818 379.228 161.751 379.212 162.682C378.402 162.376 377.592 162.071 376.774 161.769ZM376.517 165.38C376.593 164.403 376.664 163.426 376.729 162.45C377.56 162.759 378.378 163.071 379.197 163.383C379.179 164.329 379.16 165.274 379.131 166.221C378.265 165.938 377.388 165.66 376.517 165.38ZM376.219 169.005C376.306 168.015 376.385 167.027 376.462 166.038C377.347 166.323 378.229 166.609 379.105 166.897C379.071 167.858 379.035 168.82 378.991 169.783C378.07 169.522 377.148 169.262 376.219 169.005ZM375.864 172.651C375.965 171.65 376.072 170.648 376.166 169.649C377.103 169.909 378.037 170.17 378.967 170.433C378.92 171.407 378.861 172.383 378.804 173.358C377.829 173.121 376.85 172.885 375.864 172.651ZM375.476 176.324C375.59 175.306 375.698 174.288 375.802 173.271C376.799 173.508 377.782 173.749 378.768 173.99C378.711 174.976 378.65 175.961 378.58 176.949C377.551 176.738 376.514 176.531 375.476 176.324ZM341.844 285.518C361.029 248.358 371.34 212.252 375.403 176.933C376.45 177.142 377.494 177.354 378.532 177.568C375.989 212.223 366.604 247.984 347.311 285.353L348.271 285.518C367.558 248.161 376.958 212.414 379.522 177.774C380.55 177.987 381.578 178.199 382.595 178.415C381.584 212.381 373.139 247.778 353.74 285.353L354.701 285.518C374.091 247.961 382.552 212.582 383.593 178.634C384.603 178.851 385.608 179.071 386.607 179.292C387.155 212.553 379.673 247.573 360.167 285.353L361.127 285.518C380.623 247.758 388.13 212.756 387.62 179.512C388.614 179.735 389.596 179.963 390.581 180.189C392.719 212.731 386.207 247.366 366.593 285.353L367.555 285.518C387.153 247.558 393.697 212.944 391.609 180.425C392.571 180.649 393.527 180.874 394.48 181.102C398.244 212.911 392.745 247.15 373.022 285.353L373.981 285.518C393.688 247.35 399.222 213.137 395.523 181.353C396.464 181.58 397.407 181.806 398.338 182.037C403.757 213.098 399.287 246.933 379.451 285.353L380.411 285.518C400.224 247.143 404.745 213.34 399.405 182.307C400.32 182.537 401.235 182.767 402.139 183.001C409.245 213.297 405.827 246.714 385.878 285.353L386.838 285.518C406.76 246.933 410.239 213.549 403.227 183.282C404.118 183.516 404.995 183.753 405.876 183.991C414.706 213.505 412.368 246.492 392.304 285.353L393.264 285.518C413.294 246.724 415.711 213.775 407.004 184.292C407.865 184.527 408.713 184.766 409.563 185.005C420.15 213.721 418.914 246.267 398.734 285.353L399.694 285.518C419.831 246.516 421.162 214.015 410.727 185.334C411.548 185.568 412.37 185.802 413.181 186.04C425.562 213.942 425.46 246.036 405.161 285.353L406.121 285.518C426.364 246.311 426.599 214.269 414.412 186.408C415.186 186.639 415.967 186.867 416.732 187.102C430.949 214.171 432.009 245.801 411.588 285.353L412.548 285.518C432.9 246.1 431.995 214.532 418.021 187.505C418.766 187.737 419.507 187.973 420.243 188.209C436.318 214.424 438.554 245.573 418.016 285.353L418.975 285.518C439.432 245.897 437.388 214.816 421.606 188.643C422.298 188.869 422.973 189.103 423.656 189.332C441.643 214.677 445.108 245.332 424.444 285.353L425.404 285.518C445.961 245.703 442.75 215.13 425.142 189.831C425.775 190.049 426.402 190.269 427.027 190.49C446.956 214.945 451.659 245.092 430.871 285.353L431.832 285.518C452.483 245.519 448.09 215.472 428.644 191.067C429.194 191.266 429.753 191.461 430.299 191.662C452.227 215.21 458.215 244.838 437.298 285.353L438.258 285.518C458.992 245.36 453.434 215.856 432.153 192.368C432.607 192.54 433.065 192.711 433.513 192.886C457.469 215.503 464.773 244.591 443.727 285.353L444.688 285.518C465.49 245.228 458.761 216.293 435.664 193.74C436.01 193.879 436.355 194.02 436.699 194.16C462.698 215.823 471.322 244.357 450.155 285.353L451.115 285.518C471.96 245.143 464.083 216.809 439.221 195.211C439.396 195.286 439.569 195.363 439.742 195.438C467.872 216.13 477.884 244.093 456.582 285.353L457.542 285.518C478.229 245.449 469.578 217.86 443.534 197.289C473.218 216.948 484.253 244.205 463.01 285.353L463.969 285.518C484.22 246.294 475.356 219.624 449.019 200.123C479.01 218.704 490.247 245.048 469.438 285.353L470.398 285.518C490.197 247.168 481.191 221.394 454.701 202.905C484.854 220.47 496.224 245.921 475.865 285.353L476.825 285.518C499.287 242.014 483.459 215.42 446.44 197.667C444.665 196.649 442.818 195.662 440.93 194.69C439.208 193.632 437.444 192.59 435.611 191.576C433.961 190.488 432.246 189.424 430.494 188.376C428.864 187.219 427.191 186.077 425.46 184.959C423.921 183.78 422.333 182.62 420.702 181.476C419.184 180.213 417.615 178.969 416.003 177.741C414.582 176.458 413.126 175.188 411.621 173.935C410.236 172.566 408.796 171.216 407.326 169.876C406.003 168.443 404.644 167.022 403.242 165.617C402.031 164.172 400.787 162.738 399.505 161.317C398.344 159.775 397.135 158.248 395.903 156.73C394.806 155.102 393.673 153.487 392.507 151.881C391.501 150.2 390.469 148.527 389.4 146.865C388.493 145.143 387.565 143.427 386.601 141.721C385.781 139.922 384.939 138.13 384.063 136.346C383.337 134.475 382.587 132.609 381.811 130.752C381.179 128.802 380.528 126.857 379.848 124.918C379.334 122.957 378.794 121.001 378.238 119.049C377.809 116.937 377.354 114.83 376.882 112.727C376.566 110.578 376.228 108.433 375.872 106.291C370.28 46.3428 351.018 -11.7481 331.902 -69.3836C306.781 -145.117 281.923 -220.063 288.723 -297.386C342.36 -340.357 404.698 -387.601 476.736 -439.593L475.958 -439.953C404.311 -388.245 342.273 -341.233 288.827 -298.438C288.91 -299.359 289.003 -300.281 289.097 -301.203C340.726 -343.063 400.785 -389.03 470.311 -439.593L469.528 -439.953C400.4 -389.68 340.64 -343.949 289.201 -302.27C289.299 -303.193 289.407 -304.117 289.513 -305.041C339.124 -345.785 396.891 -390.471 463.884 -439.594L463.098 -439.952C396.519 -391.133 339.056 -346.695 289.643 -306.141C289.753 -307.059 289.851 -307.978 289.971 -308.896C337.548 -348.522 393.018 -391.922 457.457 -439.596L456.671 -439.951C392.664 -392.598 337.503 -349.454 290.128 -310.032C290.251 -310.958 290.385 -311.885 290.518 -312.812C336.038 -351.301 389.194 -393.403 451.031 -439.597L450.24 -439.95C388.843 -394.086 335.994 -352.245 290.679 -313.968C290.817 -314.899 290.967 -315.831 291.114 -316.763C334.559 -354.102 385.407 -394.906 444.607 -439.598L443.812 -439.949C385.077 -395.608 334.536 -355.079 291.309 -317.968C291.455 -318.869 291.593 -319.771 291.748 -320.673C333.131 -356.892 381.579 -396.373 438.18 -439.599L437.38 -439.948C381.254 -397.085 333.144 -357.901 291.977 -321.921C292.141 -322.843 292.311 -323.765 292.485 -324.688C331.761 -359.747 377.841 -397.901 431.756 -439.6L430.952 -439.947C377.515 -398.617 331.778 -360.77 292.717 -325.957C292.896 -326.881 293.09 -327.806 293.279 -328.731C330.435 -362.624 374.13 -399.444 425.331 -439.602L424.523 -439.944C373.82 -400.177 330.486 -363.684 293.551 -330.054C293.743 -330.969 293.929 -331.884 294.13 -332.8C329.151 -365.523 370.445 -401 418.904 -439.604L418.092 -439.943C370.153 -401.753 329.239 -366.628 294.447 -334.188C294.652 -335.101 294.858 -336.014 295.074 -336.928C327.937 -368.466 366.803 -402.582 412.479 -439.606L411.663 -439.941C366.514 -403.344 328.038 -369.594 295.406 -338.355C295.627 -339.269 295.868 -340.186 296.098 -341.102C326.785 -371.444 363.196 -404.185 406.052 -439.608L405.233 -439.938C362.928 -404.97 326.925 -372.624 296.477 -342.604C296.705 -343.485 296.937 -344.367 297.175 -345.25C325.684 -374.414 359.585 -405.771 399.63 -439.61L398.803 -439.936C359.378 -406.621 325.876 -375.698 297.632 -346.912C297.865 -347.755 298.089 -348.599 298.331 -349.443C324.642 -377.418 356.014 -407.381 393.204 -439.614L392.37 -439.933C355.837 -408.272 324.89 -378.788 298.856 -351.233C299.099 -352.059 299.349 -352.885 299.6 -353.712C323.686 -380.479 352.496 -409.025 386.78 -439.616L385.941 -439.931C352.338 -409.948 323.973 -381.92 300.168 -355.609C300.417 -356.41 300.687 -357.212 300.944 -358.013C322.786 -383.567 349.017 -410.689 380.358 -439.62L379.508 -439.926C348.909 -411.679 323.169 -385.154 301.63 -360.128C301.875 -360.872 302.118 -361.615 302.371 -362.36C321.945 -386.689 345.578 -412.375 373.933 -439.625L373.075 -439.922C345.54 -413.46 322.459 -388.473 303.211 -364.767C303.447 -365.441 303.676 -366.115 303.918 -366.79C321.197 -389.875 342.201 -414.099 367.513 -439.63L366.642 -439.917C342.248 -415.311 321.871 -391.923 304.947 -369.592C305.16 -370.167 305.375 -370.744 305.593 -371.32C320.55 -393.136 338.883 -415.866 361.09 -439.636L360.209 -439.91C339.066 -417.28 321.464 -395.601 306.907 -374.746C307.039 -375.083 307.178 -375.421 307.312 -375.757C319.942 -396.343 335.558 -417.602 354.669 -439.645L353.776 -439.902C336.241 -419.677 321.651 -400.112 309.597 -381.12C319.795 -400.187 332.531 -419.674 348.25 -439.654L347.336 -439.892C333.861 -422.762 322.577 -405.995 313.194 -389.544C320.751 -406.086 330.198 -422.784 341.83 -439.667L340.902 -439.88C327.072 -419.809 316.314 -400 308.163 -380.405C306.462 -377.206 304.822 -374.016 303.261 -370.84C301.253 -367.449 299.355 -364.084 297.501 -360.729C295.268 -357.253 293.105 -353.796 291.042 -350.366C288.532 -346.724 286.097 -343.104 283.783 -339.522C281.119 -335.845 278.581 -332.211 276.105 -328.598C273.326 -324.922 270.635 -321.276 268.039 -317.665C264.996 -313.797 262.042 -309.963 259.209 -306.175C255.948 -302.16 252.83 -298.201 249.798 -294.276C246.623 -290.463 243.546 -286.69 240.574 -282.96C237.324 -279.153 234.161 -275.382 231.111 -271.659C227.141 -267.129 223.364 -262.682 219.692 -258.281C216.194 -254.339 212.8 -250.445 209.522 -246.601C206.003 -242.706 202.59 -238.858 199.278 -235.056C195.124 -230.536 191.093 -226.07 187.214 -221.676C183.298 -217.468 179.502 -213.316 175.838 -209.225C171.832 -204.973 167.94 -200.775 164.192 -196.645C160.058 -192.307 156.035 -188.021 152.169 -183.811C148.109 -179.587 144.149 -175.411 140.335 -171.306C136.306 -167.155 132.383 -163.056 128.591 -159.02C124.507 -154.856 120.557 -150.758 116.714 -146.713C-37.3739 8.87372 -20.0359 79.7296 60.3739 116.904C112.086 140.811 189.833 150.758 264.843 160.355C303.409 165.289 341.241 170.134 374.42 176.737C370.375 212.068 360.073 248.185 340.884 285.353L341.844 285.518Z" fill="url(#paint0_linear_0_571)"/>
<defs>
<linearGradient id="paint0_linear_0_571" x1="-408.906" y1="-195.013" x2="165.247" y2="513.963" gradientUnits="userSpaceOnUse">
<stop stop-color="#0A767B"/>
<stop offset="1" stop-color="#00A7D6"/>
</linearGradient>
</defs>
</svg>
