<svg width="1440" height="489" viewBox="0 0 1440 489" fill="none" xmlns="http://www.w3.org/2000/svg">
<path d="M1416.22 182.405L1412.39 183.744C1412.82 183.64 1413.25 183.544 1413.68 183.44C1415.1 182.988 1416.52 182.534 1417.95 182.071C1417.38 182.185 1416.8 182.292 1416.22 182.405ZM1391.98 189.519C1390.99 189.883 1390 190.255 1389.01 190.615L1389.42 190.508L1393.15 189.26L1391.98 189.519ZM1405.78 184.435C1403.6 185.246 1401.45 186.024 1399.27 186.832C1400.4 186.573 1401.54 186.295 1402.66 186.034C1404.79 185.304 1406.95 184.54 1409.09 183.792C1407.98 184.004 1406.88 184.226 1405.78 184.435ZM1367.31 197.211C1366.48 197.524 1365.68 197.814 1364.85 198.125L1364.87 198.119C1365.82 197.788 1366.78 197.442 1367.73 197.107L1367.31 197.211ZM1380.94 191.965C1379 192.717 1377.04 193.479 1375.1 194.222C1375.99 193.998 1376.87 193.782 1377.76 193.556C1379.96 192.767 1382.13 192.018 1384.35 191.217C1383.21 191.464 1382.08 191.722 1380.94 191.965ZM1395.44 186.335C1392.7 187.416 1390 188.456 1387.27 189.518C1388.68 189.208 1390.09 188.895 1391.5 188.579C1394.22 187.584 1396.96 186.568 1399.69 185.562C1398.27 185.823 1396.86 186.078 1395.44 186.335ZM296.098 111.575L297.057 111.838C297.786 111.861 298.513 111.888 299.241 111.914L298.351 111.71C297.601 111.664 296.849 111.621 296.098 111.575ZM1341.5 205.622L1340.65 205.953C1341.04 205.812 1341.42 205.68 1341.81 205.54L1341.5 205.622ZM1355.98 199.965C1354.17 200.688 1352.39 201.388 1350.59 202.093C1351.3 201.901 1352 201.717 1352.7 201.524C1354.61 200.819 1356.53 200.097 1358.43 199.392C1357.61 199.589 1356.8 199.771 1355.98 199.965ZM1370.34 194.184C1367.73 195.236 1365.11 196.297 1362.5 197.341C1363.94 196.991 1365.39 196.625 1366.83 196.271C1369.4 195.298 1371.99 194.298 1374.58 193.296C1373.17 193.593 1371.75 193.891 1370.34 194.184ZM1385.07 188.173C1381.94 189.471 1378.83 190.751 1375.74 192.011C1377.32 191.677 1378.89 191.361 1380.47 191.022C1383.67 189.78 1386.86 188.559 1390.06 187.314C1388.4 187.609 1386.74 187.885 1385.07 188.173ZM287.779 111.081C288.336 111.259 288.89 111.444 289.448 111.624L292.659 111.712C292.117 111.566 291.578 111.415 291.035 111.27C289.95 111.207 288.865 111.142 287.779 111.081ZM282.859 109.529L283.953 109.871L286.141 109.987L285.184 109.736C284.408 109.667 283.635 109.595 282.859 109.529ZM278.304 108.115L278.458 108.161L279.146 108.217L278.304 108.115ZM1330.15 208.576C1328.46 209.253 1326.76 209.943 1325.06 210.627L1327.58 209.894C1329.23 209.266 1330.91 208.602 1332.57 207.958C1331.77 208.166 1330.96 208.368 1330.15 208.576ZM1344.79 202.583C1342.31 203.617 1339.84 204.659 1337.4 205.655C1338.6 205.343 1339.81 205.002 1341.01 204.684C1343.64 203.658 1346.26 202.648 1348.9 201.621C1347.53 201.938 1346.15 202.269 1344.79 202.583ZM1359.78 196.325L1350.53 200.184C1352.19 199.796 1353.83 199.419 1355.49 199.025C1358.47 197.843 1361.49 196.614 1364.5 195.398C1362.92 195.717 1361.35 196.012 1359.78 196.325ZM1374.81 189.921C1371.35 191.419 1367.88 192.924 1364.48 194.362C1366.26 194.002 1368.06 193.613 1369.85 193.243C1373.38 191.811 1376.88 190.416 1380.43 188.964C1378.55 189.281 1376.68 189.612 1374.81 189.921ZM279.69 110.656C280.389 110.916 281.091 111.172 281.788 111.435C283.094 111.463 284.401 111.489 285.704 111.521C285.005 111.298 284.3 111.083 283.599 110.861C282.296 110.793 280.994 110.721 279.69 110.656ZM274.912 108.888C275.46 109.087 276.004 109.29 276.551 109.491C277.613 109.542 278.673 109.596 279.734 109.65L278.082 109.144C277.025 109.058 275.97 108.971 274.912 108.888ZM270.206 107.206L271.291 107.594C272.025 107.648 272.761 107.702 273.493 107.76C273.165 107.662 272.839 107.562 272.51 107.464C271.741 107.38 270.975 107.29 270.206 107.206ZM265.787 105.658L266.026 105.741L266.897 105.83L266.835 105.812L265.787 105.658ZM1303.91 217.669C1302.39 218.299 1300.87 218.943 1299.36 219.561C1299.85 219.411 1300.35 219.254 1300.84 219.102C1302.6 218.418 1304.33 217.753 1306.09 217.066L1303.91 217.669ZM1318.73 211.494C1316.33 212.5 1313.94 213.485 1311.54 214.488C1312.73 214.157 1313.89 213.847 1315.08 213.513C1317.51 212.546 1319.97 211.543 1322.42 210.555C1321.19 210.862 1319.95 211.19 1318.73 211.494ZM1333.88 205.021C1330.95 206.291 1328.01 207.571 1325.11 208.798C1326.63 208.416 1328.15 208.026 1329.66 207.635C1332.71 206.4 1335.71 205.203 1338.78 203.944C1337.14 204.311 1335.51 204.661 1333.88 205.021ZM1349.28 198.386C1345.79 199.9 1342.34 201.376 1338.86 202.875C1340.67 202.469 1342.48 202.058 1344.29 201.642C1347.71 200.23 1351.15 198.785 1354.59 197.345C1352.82 197.687 1351.04 198.051 1349.28 198.386ZM1364.8 191.511C1361.05 193.19 1357.28 194.887 1353.58 196.502C1355.48 196.134 1357.39 195.759 1359.29 195.382C1363.03 193.806 1366.78 192.217 1370.55 190.601C1368.63 190.91 1366.72 191.21 1364.8 191.511ZM271.761 110.286C272.523 110.615 273.281 110.948 274.041 111.279C275.546 111.305 277.049 111.338 278.552 111.369C277.756 111.073 276.96 110.775 276.162 110.483C274.696 110.415 273.227 110.352 271.761 110.286ZM267.076 108.302C267.757 108.588 268.438 108.873 269.117 109.16C270.413 109.216 271.706 109.276 273.001 109.335C272.297 109.079 271.59 108.829 270.885 108.577C269.616 108.483 268.345 108.393 267.076 108.302ZM262.484 106.397C263.044 106.626 263.61 106.849 264.17 107.081C265.222 107.154 266.271 107.233 267.321 107.308C266.75 107.108 266.174 106.915 265.602 106.717L262.484 106.397ZM258.028 104.591C258.393 104.736 258.754 104.886 259.118 105.032C259.871 105.106 260.62 105.187 261.373 105.263L260.316 104.903C259.554 104.799 258.793 104.692 258.028 104.591ZM253.737 102.909L254.078 103.042C254.399 103.083 254.722 103.122 255.043 103.164L254.866 103.106C254.488 103.041 254.114 102.973 253.737 102.909ZM1277.49 227.145C1275.99 227.782 1274.54 228.362 1273.04 228.99C1273.36 228.889 1273.67 228.798 1273.98 228.697C1275.58 228.06 1277.2 227.4 1278.81 226.758C1278.37 226.885 1277.93 227.02 1277.49 227.145ZM1292.23 220.827C1290.01 221.779 1287.78 222.744 1285.57 223.681C1286.68 223.354 1287.79 223.034 1288.9 222.703C1291.22 221.76 1293.52 220.843 1295.86 219.879C1294.64 220.206 1293.44 220.503 1292.23 220.827ZM1307.82 214.126C1304.79 215.447 1301.83 216.699 1298.81 218C1300.34 217.588 1301.89 217.148 1303.42 216.73C1306.33 215.523 1309.27 214.291 1312.2 213.069C1310.74 213.426 1309.28 213.777 1307.82 214.126ZM1323 207.395C1319.69 208.872 1316.36 210.357 1313.08 211.797C1314.81 211.374 1316.52 210.978 1318.26 210.547C1321.62 209.127 1325.02 207.685 1328.43 206.221C1326.62 206.612 1324.81 207.014 1323 207.395ZM1339.02 200.274C1335.19 201.996 1331.43 203.653 1327.63 205.344C1329.55 204.931 1331.48 204.5 1333.4 204.075C1337.13 202.478 1340.86 200.867 1344.6 199.251C1342.74 199.598 1340.88 199.936 1339.02 200.274ZM1354.85 193.035C1350.82 194.886 1346.78 196.746 1342.8 198.545C1344.8 198.174 1346.79 197.822 1348.8 197.442C1352.74 195.722 1356.75 193.938 1360.75 192.153C1358.78 192.455 1356.82 192.742 1354.85 193.035ZM263.861 109.956C264.684 110.362 265.511 110.762 266.33 111.173C267.965 111.192 269.599 111.21 271.234 111.234C270.386 110.87 269.537 110.51 268.688 110.149C267.08 110.08 265.47 110.017 263.861 109.956ZM259.4 107.773C260.152 108.135 260.902 108.503 261.651 108.868C263.108 108.922 264.566 108.97 266.021 109.027C265.254 108.707 264.492 108.378 263.725 108.061C262.285 107.96 260.842 107.866 259.4 107.773ZM254.952 105.658C255.619 105.971 256.28 106.29 256.945 106.605C258.205 106.685 259.468 106.763 260.728 106.846C260.035 106.565 259.345 106.281 258.652 106.002C257.422 105.883 256.185 105.775 254.952 105.658ZM250.547 103.621C251.102 103.876 251.658 104.128 252.212 104.385L255.305 104.673C254.738 104.45 254.167 104.229 253.6 104.007C252.584 103.876 251.565 103.749 250.547 103.621ZM246.269 101.685C246.661 101.859 247.058 102.028 247.449 102.204C248.192 102.295 248.93 102.392 249.672 102.486C249.285 102.338 248.895 102.196 248.509 102.051C247.762 101.929 247.017 101.804 246.269 101.685ZM242.217 99.8994L242.62 100.076C242.965 100.129 243.311 100.18 243.655 100.234L243.371 100.129L242.217 99.8994ZM1250.07 237.196C1248.88 237.7 1247.69 238.212 1246.5 238.719C1246.95 238.57 1247.4 238.427 1247.85 238.277C1249.06 237.785 1250.29 237.275 1251.51 236.771C1251.03 236.918 1250.55 237.051 1250.07 237.196ZM1265.62 230.506C1263.48 231.448 1261.35 232.377 1259.23 233.291C1260.13 233.013 1261.03 232.729 1261.93 232.451C1264.18 231.52 1266.44 230.577 1268.69 229.649C1267.66 229.939 1266.64 230.219 1265.62 230.506ZM1280.83 223.801C1277.98 225.056 1275.12 226.322 1272.28 227.567C1273.84 227.122 1275.41 226.665 1276.98 226.212C1279.74 225.047 1282.56 223.826 1285.37 222.615C1283.86 223.009 1282.34 223.414 1280.83 223.801ZM1296.61 216.779C1293.31 218.27 1290.04 219.726 1286.77 221.182C1288.42 220.75 1290.07 220.329 1291.72 219.89L1301.72 215.6C1300.01 216.002 1298.31 216.385 1296.61 216.779ZM1312.46 209.567C1308.74 211.266 1305.02 212.963 1301.33 214.631C1303.32 214.163 1305.33 213.662 1307.33 213.184C1310.88 211.639 1314.5 210.013 1318.11 208.405C1316.23 208.796 1314.34 209.186 1312.46 209.567ZM1328.69 202.118C1324.66 203.991 1320.66 205.825 1316.67 207.654C1318.62 207.25 1320.56 206.864 1322.52 206.448C1326.56 204.658 1330.57 202.888 1334.63 201.08C1332.64 201.434 1330.67 201.774 1328.69 202.118ZM1344.98 194.483C1340.69 196.503 1336.4 198.517 1332.15 200.494C1334.27 200.12 1336.41 199.714 1338.53 199.327C1342.66 197.472 1346.88 195.518 1351.08 193.587C1349.05 193.886 1347.01 194.197 1344.98 194.483ZM264.529 114.599C305.652 138.966 342.741 168.97 380.529 199.553C519.166 311.757 667.37 431.611 1060.33 307.39M256.034 109.669C256.864 110.137 257.687 110.617 258.511 111.091C260.271 111.104 262.031 111.12 263.788 111.14C262.922 110.711 262.054 110.283 261.185 109.858C259.469 109.793 257.755 109.726 256.034 109.669ZM251.748 107.287C252.541 107.725 253.332 108.163 254.121 108.605C255.734 108.655 257.342 108.711 258.951 108.769C258.126 108.371 257.294 107.981 256.465 107.587C254.895 107.485 253.324 107.38 251.748 107.287ZM247.498 104.975C248.238 105.373 248.982 105.764 249.719 106.165C251.151 106.248 252.584 106.331 254.013 106.42C253.25 106.062 252.483 105.711 251.718 105.357C250.313 105.227 248.906 105.099 247.498 104.975ZM243.292 102.738C243.946 103.08 244.599 103.426 245.25 103.771C246.476 103.875 247.707 103.97 248.93 104.079C248.262 103.775 247.6 103.465 246.931 103.165C245.722 103.018 244.505 102.88 243.292 102.738ZM239.105 100.577C239.65 100.855 240.191 101.138 240.735 101.418L243.765 101.77C243.205 101.524 242.648 101.274 242.087 101.031L239.105 100.577ZM234.981 98.5114L236.159 99.0954C236.898 99.2032 237.63 99.3192 238.366 99.4309L237.197 98.9356C236.458 98.7955 235.721 98.649 234.981 98.5114ZM231.171 96.6384L231.63 96.8574L232.644 97.0393L232.246 96.8786C231.889 96.7961 231.528 96.7197 231.171 96.6384ZM1222.9 247.415C1221.88 247.859 1220.85 248.314 1219.84 248.752L1220.1 248.662C1221.36 248.141 1222.6 247.635 1223.86 247.113L1222.9 247.415ZM1238.32 240.67C1236.13 241.628 1233.94 242.584 1231.74 243.549C1232.77 243.217 1233.83 242.858 1234.87 242.524C1236.98 241.637 1239.12 240.713 1241.25 239.806C1240.27 240.094 1239.29 240.385 1238.32 240.67ZM1253.62 233.854C1251.02 235.029 1248.42 236.218 1245.86 237.354C1247.1 236.985 1248.32 236.638 1249.55 236.263C1252.45 235.024 1255.31 233.821 1258.22 232.57C1256.69 232.989 1255.14 233.44 1253.62 233.854ZM1269.65 226.61L1259.86 231.032C1261.61 230.549 1263.36 230.058 1265.11 229.568C1268.23 228.21 1271.39 226.803 1274.55 225.407C1272.91 225.82 1271.29 226.205 1269.65 226.61ZM1285.64 219.268C1282.02 220.955 1278.39 222.642 1274.82 224.276C1276.64 223.817 1278.48 223.336 1280.31 222.868C1284.04 221.215 1287.72 219.62 1291.48 217.943C1289.53 218.386 1287.58 218.835 1285.64 219.268ZM1301.97 211.662C1297.99 213.519 1294.03 215.367 1290.07 217.208C1292.08 216.751 1294.09 216.303 1296.12 215.835C1299.96 214.107 1303.86 212.317 1307.76 210.537C1305.82 210.925 1303.9 211.285 1301.97 211.662ZM1318.48 203.859C1314.23 205.891 1309.99 207.911 1305.79 209.885C1307.84 209.479 1309.91 209.043 1311.96 208.625C1316.22 206.68 1320.44 204.771 1324.74 202.792C1322.65 203.148 1320.56 203.515 1318.48 203.859ZM1335.31 195.796C1330.8 197.965 1326.31 200.115 1321.83 202.255C1323.95 201.898 1326.07 201.538 1328.2 201.169C1332.56 199.148 1337 197.054 1341.43 194.969C1339.39 195.253 1337.35 195.522 1335.31 195.796ZM248.211 109.444C249.041 109.98 249.873 110.512 250.7 111.053C252.552 111.057 254.402 111.069 256.251 111.08C255.375 110.584 254.496 110.088 253.616 109.597C251.815 109.545 250.013 109.493 248.211 109.444ZM244.184 106.876C244.984 107.379 245.785 107.882 246.583 108.39C248.292 108.435 249.999 108.485 251.706 108.536C250.87 108.073 250.039 107.605 249.2 107.148C247.528 107.056 245.857 106.963 244.184 106.876ZM240.156 104.362C240.912 104.826 241.661 105.299 242.413 105.768C243.979 105.848 245.539 105.936 247.102 106.024C246.306 105.597 245.512 105.166 244.713 104.744C243.195 104.615 241.679 104.483 240.156 104.362ZM236.1 101.915C236.808 102.337 237.511 102.764 238.215 103.191C239.619 103.299 241.02 103.417 242.419 103.534C241.675 103.146 240.926 102.762 240.179 102.376C238.82 102.22 237.462 102.063 236.1 101.915ZM232.077 99.5507C232.721 99.9249 233.368 100.294 234.011 100.672C235.214 100.801 236.422 100.923 237.623 101.057C236.946 100.715 236.262 100.382 235.583 100.043C234.417 99.873 233.245 99.7166 232.077 99.5507ZM228.105 97.2701C228.649 97.5774 229.192 97.8817 229.733 98.1904C230.718 98.3266 231.701 98.468 232.686 98.6052C232.135 98.3353 231.587 98.0629 231.035 97.7952C230.058 97.6206 229.084 97.4421 228.105 97.2701ZM224.219 95.1032C224.606 95.3162 224.989 95.5325 225.374 95.7468C226.09 95.8697 226.804 95.994 227.518 96.1212C227.129 95.9363 226.744 95.7496 226.356 95.5681C225.644 95.4116 224.933 95.2567 224.219 95.1032ZM220.533 93.1147L221.02 93.3759L222.065 93.5927L221.631 93.3967L220.533 93.1147ZM1195.71 257.885L1195.5 257.975L1195.75 257.871L1195.71 257.885ZM1210.47 251.281C1208.56 252.132 1206.65 252.998 1204.75 253.84C1205.55 253.576 1206.33 253.332 1207.12 253.066C1209.34 252.122 1211.49 251.23 1213.72 250.269C1212.64 250.6 1211.54 250.953 1210.47 251.281ZM1226.54 244.091C1223.83 245.312 1221.19 246.473 1218.5 247.688C1219.8 247.285 1221.09 246.885 1222.4 246.476C1224.97 245.356 1227.58 244.207 1230.17 243.074C1228.95 243.427 1227.75 243.743 1226.54 244.091ZM1242.3 236.837C1239.13 238.304 1235.95 239.781 1232.83 241.21C1234.47 240.732 1236.14 240.225 1237.79 239.742C1240.99 238.327 1244.17 236.936 1247.41 235.491C1245.7 235.947 1244 236.389 1242.3 236.837ZM1258.51 229.348C1254.9 231.026 1251.32 232.666 1247.71 234.34C1249.51 233.857 1251.29 233.409 1253.11 232.916C1256.71 231.3 1260.35 229.65 1263.98 228.005C1262.16 228.449 1260.33 228.915 1258.51 229.348ZM1274.89 221.607C1271.02 223.453 1267.14 225.314 1263.33 227.101C1265.27 226.63 1267.2 226.152 1269.14 225.672C1273.01 223.91 1276.87 222.157 1280.78 220.357C1278.8 220.788 1276.85 221.185 1274.89 221.607ZM1291.6 213.657C1287.35 215.686 1283.13 217.685 1278.88 219.707C1280.96 219.253 1283.05 218.789 1285.14 218.323C1289.29 216.406 1293.48 214.449 1297.67 212.491C1295.64 212.878 1293.61 213.28 1291.6 213.657ZM1308.49 205.461C1304.07 207.629 1299.63 209.812 1295.28 211.906C1297.35 211.512 1299.41 211.118 1301.48 210.714C1305.88 208.653 1310.28 206.586 1314.72 204.478C1312.64 204.817 1310.57 205.134 1308.49 205.461ZM1325.69 197.05C1320.98 199.364 1316.3 201.639 1311.6 203.941C1313.73 203.599 1315.85 203.264 1317.99 202.911C1322.58 200.724 1327.22 198.496 1331.87 196.261C1329.81 196.531 1327.75 196.79 1325.69 197.05ZM240.402 109.256C241.216 109.853 242.022 110.458 242.831 111.062C244.753 111.057 246.677 111.045 248.599 111.045C247.743 110.489 246.887 109.932 246.028 109.382C244.155 109.334 242.279 109.296 240.402 109.256ZM236.623 106.504C237.413 107.071 238.196 107.649 238.981 108.221C240.78 108.258 242.58 108.287 244.374 108.329C243.535 107.797 242.689 107.274 241.845 106.746C240.107 106.66 238.363 106.583 236.623 106.504ZM232.8 103.807C233.569 104.344 234.338 104.882 235.104 105.425C236.768 105.499 238.432 105.573 240.095 105.653C239.281 105.151 238.46 104.66 237.643 104.163C236.031 104.041 234.415 103.923 232.8 103.807ZM228.964 101.163C229.705 101.666 230.45 102.164 231.187 102.672C232.701 102.78 234.212 102.894 235.724 103.007C234.956 102.548 234.19 102.087 233.418 101.633C231.935 101.474 230.452 101.313 228.964 101.163ZM225.155 98.5994C225.838 99.0501 226.515 99.5076 227.194 99.9634C228.556 100.098 229.913 100.241 231.27 100.384C230.552 99.9677 229.84 99.5467 229.119 99.1342C227.799 98.9525 226.477 98.7743 225.155 98.5994ZM221.346 96.1171C221.963 96.5133 222.574 96.9184 223.188 97.3167C224.355 97.4685 225.527 97.6126 226.693 97.7683C226.047 97.4047 225.399 97.0441 224.75 96.684C223.618 96.4915 222.481 96.3049 221.346 96.1171ZM217.526 93.7075C218.061 94.0396 218.595 94.3707 219.126 94.707C220.1 94.8655 221.071 95.0317 222.044 95.1927C221.49 94.8932 220.932 94.5996 220.376 94.3022C219.426 94.104 218.48 93.9011 217.526 93.7075ZM213.865 91.45C214.26 91.6905 214.663 91.9236 215.056 92.1646C215.749 92.3009 216.445 92.4296 217.137 92.5694C216.733 92.357 216.322 92.1536 215.917 91.9434C215.236 91.7746 214.548 91.6166 213.865 91.45ZM210.372 89.3589L210.865 89.6544C211.227 89.739 211.585 89.8278 211.947 89.9137C211.8 89.8404 211.657 89.7646 211.51 89.6906L210.372 89.3589ZM1167.13 269.054L1164.42 270.252L1164.63 270.178C1165.61 269.764 1166.61 269.321 1167.59 268.899L1167.13 269.054ZM1182.81 262.044C1181.15 262.808 1179.46 263.585 1177.82 264.323L1179.38 263.797C1181.23 262.991 1183.1 262.179 1184.95 261.383C1184.23 261.611 1183.53 261.818 1182.81 262.044ZM1198.63 254.817C1196.05 255.992 1193.46 257.182 1190.89 258.354C1192.31 257.897 1193.75 257.417 1195.18 256.955C1197.61 255.888 1200.08 254.767 1202.55 253.661C1201.23 254.054 1199.94 254.428 1198.63 254.817ZM1214.84 247.362C1211.64 248.851 1208.51 250.286 1205.34 251.748C1206.87 251.287 1208.4 250.82 1209.94 250.351C1213.15 248.915 1216.37 247.472 1219.58 246.036C1218 246.478 1216.41 246.927 1214.84 247.362ZM1230.84 239.824C1227.38 241.458 1223.91 243.101 1220.47 244.707C1222.32 244.189 1224.15 243.687 1226.01 243.158C1229.43 241.606 1232.9 240.003 1236.37 238.397C1234.53 238.874 1232.68 239.356 1230.84 239.824ZM1247.69 231.865C1243.71 233.767 1239.81 235.585 1235.85 237.463C1237.81 236.955 1239.8 236.418 1241.78 235.899C1245.63 234.127 1249.48 232.349 1253.33 230.564C1251.44 231.009 1249.57 231.432 1247.69 231.865ZM1264.16 223.883C1260.04 225.886 1255.92 227.895 1251.86 229.846C1253.9 229.366 1255.94 228.905 1257.99 228.412C1262.09 226.499 1266.23 224.534 1270.39 222.56C1268.31 222.996 1266.22 223.459 1264.16 223.883ZM1281.46 215.495C1276.94 217.703 1272.52 219.824 1268.02 222.011C1270.13 221.569 1272.26 221.114 1274.38 220.66C1278.75 218.588 1283.13 216.51 1287.52 214.412C1285.49 214.785 1283.48 215.133 1281.46 215.495ZM1298.53 207.008C1293.91 209.314 1289.28 211.633 1284.75 213.868C1286.86 213.484 1288.97 213.108 1291.1 212.711C1295.65 210.521 1300.26 208.283 1304.88 206.03C1302.76 206.359 1300.64 206.69 1298.53 207.008ZM1316.15 198.231C1311.24 200.69 1306.38 203.087 1301.48 205.539C1303.64 205.209 1305.82 204.852 1307.99 204.51C1312.79 202.172 1317.59 199.827 1322.42 197.454C1320.33 197.714 1318.24 197.983 1316.15 198.231ZM232.567 109.104C233.355 109.767 234.138 110.433 234.92 111.101C236.921 111.085 238.92 111.074 240.919 111.068C240.079 110.446 239.233 109.832 238.389 109.215C236.449 109.175 234.51 109.135 232.567 109.104ZM229.023 106.174C229.801 106.811 230.583 107.442 231.355 108.085C233.228 108.111 235.098 108.145 236.968 108.181C236.147 107.587 235.326 106.993 234.501 106.408C232.678 106.326 230.852 106.246 229.023 106.174ZM225.465 103.3C226.224 103.904 226.981 104.508 227.735 105.119C229.48 105.185 231.224 105.253 232.966 105.328C232.166 104.765 231.371 104.197 230.565 103.641C228.869 103.522 227.168 103.411 225.465 103.3ZM221.893 100.481C222.623 101.047 223.344 101.625 224.07 102.196C225.68 102.299 227.293 102.397 228.901 102.506C228.126 101.975 227.348 101.448 226.568 100.924C225.012 100.773 223.452 100.627 221.893 100.481ZM218.25 97.7091C218.957 98.241 219.659 98.7794 220.362 99.316C221.846 99.4514 223.325 99.5958 224.806 99.7367C224.056 99.2396 223.297 98.7541 222.542 98.2626C221.113 98.0757 219.686 97.8861 218.25 97.7091ZM214.639 95.0383C215.302 95.5219 215.968 96.0012 216.627 96.4907C217.946 96.6495 219.264 96.8142 220.577 96.9819C219.874 96.5302 219.167 96.0827 218.46 95.6357C217.19 95.431 215.913 95.2362 214.639 95.0383ZM211.032 92.438C211.636 92.8661 212.242 93.2921 212.842 93.7241C213.975 93.8971 215.109 94.07 216.239 94.2465C215.62 93.8614 215.008 93.4703 214.386 93.0899C213.268 92.8722 212.153 92.651 211.032 92.438ZM207.463 89.9354C207.965 90.2813 208.459 90.6367 208.959 90.984C209.902 91.1598 210.84 91.3446 211.779 91.5272C211.243 91.2066 210.709 90.8822 210.171 90.5634C209.27 90.3515 208.367 90.143 207.463 89.9354ZM203.936 87.5618L205.08 88.33C205.76 88.4813 206.442 88.6335 207.121 88.7878L205.942 88.1117L203.936 87.5618ZM200.569 85.3501L201.122 85.704L202.145 85.9753L201.619 85.6887L200.569 85.3501ZM1154.92 273.061C1153.24 273.836 1151.56 274.604 1149.9 275.361L1151.63 274.754C1153.35 273.996 1155.11 273.208 1156.86 272.438C1156.21 272.65 1155.57 272.85 1154.92 273.061ZM1170.72 265.781C1168.12 266.976 1165.51 268.185 1162.91 269.381C1164.11 268.981 1165.36 268.544 1166.57 268.14C1169.27 266.939 1171.92 265.781 1174.63 264.575C1173.32 264.978 1172.02 265.382 1170.72 265.781ZM1186.68 258.339C1183.75 259.724 1180.82 261.111 1177.93 262.457C1179.4 261.999 1180.84 261.566 1182.32 261.101C1185.32 259.745 1188.37 258.337 1191.41 256.944C1189.84 257.402 1188.24 257.89 1186.68 258.339ZM1203.25 250.51C1199.77 252.16 1196.29 253.8 1192.81 255.442C1194.57 254.927 1196.34 254.404 1198.11 253.879C1201.59 252.283 1205.03 250.727 1208.51 249.126C1206.74 249.606 1205.01 250.04 1203.25 250.51ZM1219.82 242.551C1215.99 244.412 1212.14 246.285 1208.36 248.09C1210.33 247.556 1212.34 246.975 1214.32 246.428C1218.02 244.704 1221.8 242.91 1225.56 241.129C1223.64 241.609 1221.73 242.082 1219.82 242.551ZM1236.74 234.374C1232.57 236.404 1228.49 238.359 1224.35 240.361C1226.35 239.863 1228.33 239.389 1230.34 238.879C1234.52 236.906 1238.66 234.964 1242.85 232.981C1240.81 233.444 1238.76 233.923 1236.74 234.374ZM1253.82 225.937C1249.43 228.114 1245.03 230.295 1240.7 232.419C1242.85 231.934 1245.02 231.421 1247.19 230.924C1251.4 228.909 1255.7 226.805 1259.98 224.719C1257.92 225.135 1255.87 225.531 1253.82 225.937ZM1271.18 217.309C1266.54 219.634 1261.95 221.909 1257.35 224.189C1259.46 223.768 1261.54 223.37 1263.65 222.937C1268.3 220.683 1272.91 218.458 1277.57 216.19C1275.44 216.563 1273.31 216.949 1271.18 217.309ZM1288.8 208.42C1283.95 210.877 1279.11 213.324 1274.31 215.732C1276.52 215.349 1278.75 214.94 1280.96 214.544C1285.62 212.255 1290.38 209.87 1295.13 207.501C1293.02 207.812 1290.91 208.121 1288.8 208.42ZM1306.67 199.312C1301.64 201.893 1296.63 204.458 1291.66 206.978C1293.79 206.67 1295.91 206.37 1298.04 206.051C1303.03 203.562 1307.99 201.105 1313.01 198.598C1310.89 198.846 1308.78 199.076 1306.67 199.312ZM224.726 109.015C225.48 109.738 226.236 110.459 226.985 111.189C229.031 111.16 231.075 111.14 233.119 111.12C232.319 110.44 231.521 109.757 230.715 109.084C228.72 109.058 226.725 109.034 224.726 109.015ZM221.44 105.898C222.185 106.594 222.924 107.296 223.662 107.998C225.601 108.013 227.536 108.039 229.471 108.063C228.677 107.408 227.88 106.754 227.08 106.104C225.202 106.032 223.323 105.961 221.44 105.898ZM218.128 102.84C218.859 103.504 219.578 104.178 220.303 104.849C222.132 104.907 223.956 104.977 225.781 105.048C224.994 104.415 224.198 103.793 223.405 103.167C221.649 103.055 219.891 102.943 218.128 102.84ZM214.77 99.8469C215.491 100.482 216.21 101.12 216.924 101.762C218.621 101.858 220.318 101.959 222.01 102.064C221.238 101.461 220.46 100.867 219.683 100.271C218.049 100.123 216.409 99.9866 214.77 99.8469ZM211.382 96.9033C212.091 97.5095 212.804 98.1093 213.507 98.7224C215.059 98.8532 216.612 98.9778 218.16 99.1129C217.42 98.5533 216.683 97.9903 215.94 97.4371C214.421 97.2562 212.904 97.0774 211.382 96.9033ZM207.986 94.0303C208.658 94.5885 209.326 95.1519 209.993 95.7148C211.423 95.8762 212.845 96.0471 214.27 96.2162C213.557 95.6937 212.85 95.1677 212.133 94.6524C210.753 94.4412 209.372 94.2313 207.986 94.0303ZM204.595 91.2482C205.223 91.7538 205.84 92.2705 206.463 92.7812C207.734 92.9625 209.008 93.1413 210.275 93.3303C209.601 92.8519 208.925 92.3787 208.246 91.9068C207.033 91.6824 205.813 91.467 204.595 91.2482ZM201.132 88.5148C201.717 88.9707 202.3 89.4275 202.88 89.8881C203.994 90.0846 205.104 90.2888 206.214 90.4888C205.596 90.0659 204.967 89.6538 204.345 89.2352C203.275 88.9936 202.208 88.7486 201.132 88.5148ZM197.762 85.9294C198.264 86.308 198.771 86.6781 199.27 87.0602C200.162 87.2493 201.058 87.4319 201.946 87.6257C201.424 87.2812 200.899 86.9423 200.374 86.6C199.507 86.3716 198.632 86.1535 197.762 85.9294ZM194.439 83.4458C194.814 83.7188 195.183 83.9995 195.558 84.2754C196.22 84.4418 196.877 84.6163 197.539 84.784C197.157 84.5429 196.783 84.2946 196.4 84.0548C195.745 83.8536 195.096 83.6437 194.439 83.4458ZM191.275 81.181L191.808 81.5636L192.802 81.8523L192.278 81.532C191.946 81.4145 191.609 81.299 191.275 81.181ZM1126.57 284.441C1124.93 285.203 1123.27 285.982 1121.65 286.725C1122.33 286.482 1123.03 286.221 1123.71 285.977C1125.38 285.238 1127.08 284.464 1128.77 283.706L1126.57 284.441ZM1142.38 277.104L1135.13 280.469C1136.24 280.092 1137.33 279.741 1138.44 279.359C1141.03 278.194 1143.61 277.041 1146.21 275.869C1144.94 276.274 1143.65 276.703 1142.38 277.104ZM1158.54 269.493C1155.69 270.85 1152.83 272.222 1150.01 273.544C1151.52 273.058 1153.02 272.577 1154.54 272.085C1157.37 270.79 1160.25 269.452 1163.12 268.128C1161.58 268.593 1160.07 269.037 1158.54 269.493ZM1175.28 261.535C1171.77 263.217 1168.31 264.847 1164.81 266.513C1166.63 265.96 1168.48 265.373 1170.32 264.811C1173.73 263.227 1177.12 261.678 1180.56 260.066C1178.79 260.567 1177.04 261.043 1175.28 261.535ZM1191.78 253.533C1188.03 255.359 1184.28 257.193 1180.57 258.98C1182.47 258.441 1184.35 257.925 1186.26 257.376C1190.04 255.598 1193.86 253.788 1197.67 251.981C1195.71 252.497 1193.74 253.028 1191.78 253.533ZM1208.83 245.213C1204.73 247.232 1200.68 249.201 1196.61 251.187C1198.67 250.645 1200.74 250.108 1202.81 249.553C1206.8 247.654 1210.81 245.728 1214.85 243.782C1212.83 244.268 1210.84 244.738 1208.83 245.213ZM1226.02 236.68C1221.63 238.868 1217.24 241.049 1212.89 243.199C1215.03 242.684 1217.22 242.123 1219.37 241.593C1223.69 239.511 1228.01 237.423 1232.35 235.319C1230.24 235.781 1228.13 236.231 1226.02 236.68ZM1243.42 227.963C1238.84 230.272 1234.29 232.561 1229.78 234.818C1231.95 234.347 1234.1 233.902 1236.28 233.418C1240.74 231.237 1245.29 228.974 1249.83 226.725C1247.69 227.141 1245.54 227.56 1243.42 227.963ZM1261.2 218.956C1256.35 221.423 1251.54 223.855 1246.72 226.291C1248.92 225.869 1251.15 225.415 1253.36 224.978C1258.13 222.615 1262.87 220.29 1267.68 217.888C1265.52 218.251 1263.36 218.606 1261.2 218.956ZM1279.09 209.759C1274.12 212.333 1269.14 214.915 1264.24 217.419C1266.4 217.06 1268.56 216.718 1270.73 216.349C1275.6 213.907 1280.54 211.405 1285.48 208.901C1283.35 209.2 1281.22 209.472 1279.09 209.759ZM1297.34 200.328C1292.11 203.049 1286.96 205.691 1281.77 208.379C1283.95 208.081 1286.15 207.771 1288.34 207.461C1293.43 204.878 1298.54 202.281 1303.69 199.647C1301.57 199.88 1299.45 200.107 1297.34 200.328ZM216.869 108.971C217.579 109.75 218.28 110.536 218.982 111.324C221.08 111.285 223.18 111.239 225.275 111.207C224.509 110.465 223.738 109.731 222.966 108.995C220.937 108.981 218.903 108.977 216.869 108.971ZM213.832 105.682C214.539 106.437 215.238 107.199 215.938 107.962C217.927 107.967 219.918 107.966 221.904 107.979C221.142 107.259 220.372 106.55 219.604 105.838C217.683 105.78 215.758 105.733 213.832 105.682ZM210.746 102.442C211.453 103.175 212.161 103.906 212.862 104.647C214.736 104.694 216.608 104.746 218.481 104.799C217.729 104.109 216.976 103.42 216.218 102.737C214.397 102.636 212.573 102.534 210.746 102.442ZM207.639 99.2646C208.335 99.9648 209.033 100.665 209.721 101.374C211.487 101.46 213.247 101.56 215.006 101.659C214.265 100.998 213.529 100.334 212.783 99.6801C211.071 99.5378 209.358 99.3967 207.639 99.2646ZM204.515 96.1548C205.197 96.8195 205.869 97.4949 206.544 98.1673C208.189 98.2917 209.832 98.4182 211.472 98.5528C210.736 97.9163 209.997 97.2832 209.254 96.6549C207.679 96.4801 206.095 96.3202 204.515 96.1548ZM201.332 93.0946C202 93.7254 202.659 94.3673 203.32 95.0055C204.841 95.1621 206.362 95.3201 207.879 95.4844C207.165 94.8859 206.439 94.3028 205.719 93.7115C204.258 93.5037 202.8 93.2917 201.332 93.0946ZM198.132 90.124C198.772 90.7114 199.413 91.2962 200.048 91.8883C201.437 92.0731 202.817 92.2686 204.198 92.4628C203.509 91.9048 202.813 91.3541 202.12 90.8025C200.794 90.5695 199.462 90.348 198.132 90.124ZM194.903 87.2136C195.518 87.7575 196.135 88.2964 196.745 88.8472C197.965 89.0481 199.187 89.2465 200.403 89.4543C199.769 88.9581 199.139 88.4568 198.5 87.9658C197.301 87.7149 196.107 87.4585 194.903 87.2136ZM191.71 84.4146C192.254 84.8807 192.79 85.3579 193.33 85.8287C194.403 86.0427 195.469 86.2669 196.535 86.4898C195.945 86.0454 195.358 85.5997 194.764 85.1604C193.75 84.906 192.728 84.6614 191.71 84.4146ZM188.481 81.7025C188.961 82.0988 189.434 82.5027 189.91 82.9025C190.783 83.1104 191.657 83.318 192.527 83.5285C192.021 83.163 191.512 82.7997 191.004 82.4365C190.162 82.1925 189.325 81.9434 188.481 81.7025ZM185.326 79.1416C185.69 79.4321 186.055 79.7217 186.416 80.0144C187.056 80.1929 187.696 80.3697 188.334 80.5504C187.939 80.2776 187.538 80.0105 187.141 79.7386C186.54 79.5342 185.929 79.3422 185.326 79.1416ZM182.343 76.7803C182.532 76.9261 182.724 77.0659 182.912 77.213C183.243 77.3196 183.57 77.4304 183.901 77.5374C183.711 77.4128 183.519 77.2934 183.329 77.1684C183.001 77.0397 182.673 76.9077 182.343 76.7803ZM1097.8 296.167C1096.25 296.886 1094.69 297.621 1093.16 298.331C1093.74 298.12 1094.3 297.928 1094.88 297.717C1096.54 296.973 1098.24 296.192 1099.92 295.432C1099.21 295.674 1098.5 295.927 1097.8 296.167ZM1113.84 288.682C1111.57 289.75 1109.35 290.775 1107.08 291.836C1108.18 291.452 1109.27 291.08 1110.38 290.693C1112.73 289.625 1115.05 288.584 1117.41 287.509C1116.22 287.897 1115.02 288.297 1113.84 288.682ZM1130.25 280.876C1127.37 282.251 1124.48 283.636 1121.63 284.988C1123.16 284.483 1124.71 283.957 1126.25 283.443C1129.04 282.154 1131.88 280.829 1134.7 279.52C1133.2 279.984 1131.74 280.419 1130.25 280.876ZM1146.93 272.884C1143.46 274.563 1140.04 276.193 1136.6 277.843C1138.39 277.286 1140.2 276.698 1141.99 276.13C1145.39 274.541 1148.78 272.961 1152.21 271.339C1150.45 271.859 1148.68 272.376 1146.93 272.884ZM1163.44 264.83C1159.79 266.615 1156.13 268.404 1152.49 270.169C1154.39 269.612 1156.25 269.082 1158.16 268.514C1161.89 266.747 1165.64 264.961 1169.38 263.176C1167.41 263.719 1165.4 264.3 1163.44 264.83ZM1180.66 256.348C1176.62 258.355 1172.6 260.349 1168.61 262.31C1170.69 261.739 1172.78 261.15 1174.88 260.566C1178.75 258.706 1182.68 256.792 1186.6 254.88C1184.61 255.388 1182.65 255.852 1180.66 256.348ZM1197.98 247.727C1193.61 249.91 1189.27 252.065 1184.92 254.226C1187.05 253.686 1189.2 253.128 1191.35 252.572C1195.69 250.461 1199.99 248.389 1204.36 246.249C1202.23 246.746 1200.1 247.243 1197.98 247.727ZM1215.4 238.914C1210.9 241.207 1206.39 243.511 1201.95 245.743C1204.1 245.245 1206.24 244.759 1208.4 244.248C1212.84 242.063 1217.33 239.821 1221.82 237.585C1219.68 238.035 1217.54 238.477 1215.4 238.914ZM1233.29 229.816C1228.43 232.305 1223.65 234.724 1218.83 237.173C1221.06 236.711 1223.33 236.201 1225.57 235.723C1230.28 233.375 1234.99 231.028 1239.74 228.635C1237.59 229.035 1235.43 229.429 1233.29 229.816ZM1251.23 220.538C1246.27 223.113 1241.32 225.678 1236.41 228.199C1238.6 227.799 1240.78 227.413 1242.97 226.999C1247.86 224.531 1252.78 222.042 1257.72 219.53C1255.55 219.877 1253.39 220.205 1251.23 220.538ZM1269.47 211.037C1264.3 213.747 1259.16 216.423 1254.05 219.079C1256.28 218.729 1258.52 218.357 1260.75 217.993C1265.78 215.426 1270.87 212.806 1275.97 210.172C1273.8 210.459 1271.63 210.763 1269.47 211.037ZM1288.01 201.274C1282.67 204.101 1277.37 206.884 1272.07 209.666C1274.26 209.384 1276.45 209.088 1278.64 208.793C1283.92 206.068 1289.16 203.381 1294.48 200.618C1292.32 200.84 1290.17 201.063 1288.01 201.274ZM208.964 108.966C209.628 109.805 210.289 110.646 210.945 111.493C213.089 111.441 215.23 111.397 217.369 111.354C216.648 110.556 215.926 109.758 215.2 108.966C213.124 108.96 211.046 108.959 208.964 108.966ZM206.179 105.509C206.845 106.327 207.519 107.138 208.179 107.964C210.211 107.957 212.241 107.955 214.268 107.958C213.553 107.182 212.84 106.403 212.115 105.636C210.14 105.589 208.16 105.546 206.179 105.509ZM203.361 102.104C204.026 102.894 204.689 103.686 205.346 104.485C207.273 104.521 209.2 104.556 211.123 104.601C210.405 103.847 209.688 103.093 208.964 102.349C207.101 102.259 205.229 102.184 203.361 102.104ZM200.508 98.7455C201.168 99.5068 201.818 100.282 202.471 101.053C204.295 101.128 206.117 101.207 207.937 101.29C207.223 100.564 206.502 99.8474 205.782 99.1296C204.027 98.997 202.27 98.8666 200.508 98.7455ZM197.604 95.459C198.255 96.1881 198.903 96.9228 199.549 97.6596C201.268 97.7747 202.978 97.9052 204.688 98.0327C203.979 97.3322 203.262 96.6404 202.545 95.9485C200.901 95.7791 199.254 95.6182 197.604 95.459ZM194.662 92.2336C195.312 92.9368 195.965 93.6336 196.609 94.345C198.191 94.4929 199.775 94.6405 201.351 94.7991C200.659 94.1367 199.967 93.4751 199.268 92.8212C197.736 92.6209 196.2 92.4258 194.662 92.2336ZM191.689 89.0722C192.321 89.7344 192.956 90.3958 193.582 91.0653C195.048 91.2458 196.509 91.4349 197.97 91.6245C197.297 91.0022 196.629 90.3765 195.95 89.7614C194.532 89.5273 193.113 89.2949 191.689 89.0722ZM188.714 85.997C189.318 86.6081 189.911 87.2317 190.51 87.8496C191.844 88.0554 193.177 88.2607 194.506 88.475C193.85 87.8907 193.192 87.3116 192.529 86.7333C191.261 86.4832 189.987 86.2412 188.714 85.997ZM185.664 82.9837C186.241 83.5455 186.811 84.1136 187.381 84.6814C188.583 84.9063 189.778 85.1428 190.975 85.3745C190.352 84.8392 189.716 84.3163 189.087 83.7874C187.948 83.5155 186.809 83.2462 185.664 82.9837ZM182.624 80.082C183.158 80.5852 183.696 81.0819 184.226 81.5898C185.246 81.8183 186.273 82.0399 187.289 82.2744C186.723 81.809 186.153 81.3491 185.583 80.8875C184.6 80.6157 183.613 80.3487 182.624 80.082ZM179.6 77.2825C180.059 77.7002 180.522 78.1146 180.979 78.5344C181.824 78.7567 182.66 78.9922 183.5 79.2208C183.016 78.8365 182.539 78.4448 182.052 78.0652C181.237 77.8018 180.42 77.5403 179.6 77.2825ZM176.65 74.6465C176.998 74.9491 177.337 75.2623 177.682 75.5674C178.288 75.7548 178.897 75.9383 179.501 76.1278C179.136 75.8505 178.774 75.5689 178.407 75.2945C177.821 75.0773 177.237 74.8604 176.65 74.6465ZM173.757 72.1751L174.293 72.6302C174.594 72.7367 174.899 72.8384 175.2 72.9462L174.632 72.5372C174.343 72.4132 174.048 72.2986 173.757 72.1751ZM1068.69 308.197C1067.42 308.788 1066.14 309.393 1064.87 309.985C1065.41 309.787 1065.94 309.595 1066.48 309.394C1067.83 308.78 1069.22 308.143 1070.59 307.521C1069.96 307.741 1069.32 307.979 1068.69 308.197ZM1085.35 300.365C1083.15 301.416 1080.97 302.442 1078.79 303.472C1079.85 303.094 1080.92 302.71 1081.98 302.328C1084.25 301.292 1086.45 300.305 1088.73 299.253C1087.59 299.635 1086.48 299.988 1085.35 300.365ZM1101.72 292.529C1098.79 293.932 1095.84 295.348 1092.91 296.75C1094.43 296.234 1096 295.67 1097.53 295.146C1100.39 293.817 1103.28 292.462 1106.15 291.125C1104.67 291.598 1103.2 292.062 1101.72 292.529ZM1118.21 284.549C1114.98 286.132 1111.74 287.719 1108.55 289.26C1110.22 288.723 1111.85 288.226 1113.52 287.681C1116.83 286.121 1120.18 284.525 1123.54 282.923C1121.77 283.46 1119.97 284.021 1118.21 284.549ZM1135.16 276.264C1131.48 278.073 1127.83 279.848 1124.16 281.642C1126.06 281.064 1127.97 280.485 1129.88 279.895C1133.54 278.15 1137.17 276.425 1140.84 274.662C1138.94 275.205 1137.05 275.732 1135.16 276.264ZM1152.26 267.76C1148.25 269.766 1144.23 271.781 1140.27 273.741C1142.34 273.15 1144.46 272.512 1146.54 271.908C1150.41 270.036 1154.34 268.11 1158.25 266.193C1156.25 266.728 1154.26 267.238 1152.26 267.76ZM1169.61 259.076C1165.31 261.245 1161.07 263.361 1156.8 265.495C1158.89 264.941 1160.94 264.427 1163.04 263.861C1167.34 261.751 1171.63 259.652 1175.98 257.503C1173.86 258.024 1171.72 258.567 1169.61 259.076ZM1187.2 250.137C1182.68 252.439 1178.17 254.736 1173.7 256.998C1175.87 256.468 1178.05 255.928 1180.24 255.383C1184.66 253.192 1189.1 250.977 1193.55 248.751C1191.42 249.23 1189.32 249.672 1187.2 250.137ZM1205.03 240.986C1200.26 243.449 1195.52 245.892 1190.81 248.298C1193.04 247.802 1195.3 247.275 1197.55 246.763C1202.18 244.439 1206.86 242.066 1211.55 239.682C1209.38 240.123 1207.2 240.561 1205.03 240.986ZM1223.15 231.606C1218.19 234.186 1213.26 236.729 1208.33 239.276C1210.54 238.836 1212.75 238.406 1214.97 237.951C1219.87 235.46 1224.74 233.002 1229.69 230.475C1227.5 230.864 1225.33 231.232 1223.15 231.606ZM1241.39 222.026C1236.29 224.724 1231.16 227.437 1226.13 230.063C1228.36 229.675 1230.61 229.256 1232.84 228.852C1237.83 226.291 1242.9 223.66 1247.96 221.032C1245.77 221.365 1243.58 221.707 1241.39 222.026ZM1260.05 212.174C1254.71 215.011 1249.44 217.78 1244.15 220.576C1246.36 220.247 1248.57 219.914 1250.79 219.572C1256 216.862 1261.22 214.158 1266.49 211.4C1264.34 211.667 1262.2 211.919 1260.05 212.174ZM1278.8 202.133C1273.34 205.068 1267.9 207.987 1262.51 210.856C1264.68 210.592 1266.84 210.346 1269.01 210.073C1274.37 207.261 1279.77 204.423 1285.19 201.555C1283.06 201.76 1280.93 201.94 1278.8 202.133ZM201.026 109.013C201.642 109.912 202.258 110.808 202.868 111.713C205.045 111.648 207.218 111.59 209.392 111.535C208.724 110.678 208.059 109.82 207.384 108.974C205.267 108.983 203.148 108.993 201.026 109.013ZM198.499 105.379C199.116 106.252 199.729 107.131 200.338 108.012C202.421 107.992 204.499 107.982 206.577 107.974C205.904 107.138 205.226 106.309 204.546 105.48C202.533 105.442 200.519 105.403 198.499 105.379ZM195.947 101.811C196.563 102.654 197.165 103.513 197.774 104.365C199.758 104.387 201.735 104.421 203.714 104.456C203.038 103.639 202.35 102.837 201.665 102.029C199.763 101.95 197.855 101.879 195.947 101.811ZM193.323 98.2916C193.944 99.1157 194.563 99.9428 195.176 100.775C197.044 100.838 198.913 100.902 200.775 100.978C200.102 100.19 199.424 99.406 198.742 98.625C196.939 98.5086 195.132 98.3999 193.323 98.2916ZM190.654 94.818C191.28 95.6208 191.911 96.4168 192.529 97.2282C194.287 97.3319 196.04 97.4415 197.793 97.5512C197.127 96.7972 196.466 96.0368 195.791 95.291C194.081 95.1286 192.372 94.9658 190.654 94.818ZM187.975 91.4332C188.589 92.1941 189.199 92.9597 189.805 93.7292C191.462 93.8696 193.113 94.0202 194.762 94.1726C194.094 93.4407 193.422 92.7131 192.748 91.9897C191.162 91.7972 189.568 91.6167 187.975 91.4332ZM185.248 88.0956C185.856 88.8217 186.449 89.565 187.049 90.2993C188.586 90.4745 190.127 90.6445 191.659 90.827C191.003 90.1327 190.336 89.4514 189.672 88.7665C188.199 88.5402 186.729 88.3104 185.248 88.0956ZM182.464 84.8439C183.056 85.5269 183.645 86.2154 184.232 86.9078C185.658 87.1122 187.076 87.3294 188.494 87.5448C187.844 86.8837 187.184 86.2294 186.527 85.5751C185.179 85.3232 183.82 85.0851 182.464 84.8439ZM179.633 81.6449C180.219 82.2957 180.812 82.9401 181.391 83.5994C182.666 83.8228 183.944 84.0443 185.213 84.2754C184.599 83.6737 183.986 83.0691 183.365 82.473C182.123 82.195 180.883 81.9127 179.633 81.6449ZM176.816 78.5647C177.363 79.1493 177.905 79.7347 178.445 80.3252C179.592 80.5664 180.733 80.8153 181.873 81.0677C181.281 80.5095 180.694 79.9458 180.096 79.394C179.01 79.1101 177.91 78.843 176.816 78.5647ZM173.961 75.5498C174.465 76.0703 174.957 76.6045 175.458 77.13C176.448 77.3758 177.434 77.628 178.422 77.8789C177.881 77.3907 177.338 76.9038 176.792 76.4207C175.848 76.1299 174.911 75.8317 173.961 75.5498ZM171.104 72.6832C171.542 73.1172 171.978 73.5535 172.412 73.9923C173.218 74.2269 174.028 74.4533 174.83 74.6925C174.355 74.2813 173.871 73.8795 173.393 73.4726C172.633 73.2054 171.868 72.9449 171.104 72.6832ZM168.266 69.9237C168.613 70.2539 168.964 70.5776 169.308 70.9104C169.911 71.113 170.505 71.3247 171.104 71.5308C170.727 71.2192 170.341 70.9188 169.962 70.6115C169.397 70.3821 168.835 70.1493 168.266 69.9237ZM165.662 67.46C165.83 67.6132 165.99 67.7729 166.158 67.9279L167.047 68.2702C166.875 68.1357 166.707 67.9948 166.536 67.8607L165.662 67.46ZM1040.12 320.117L1036.27 321.924L1037.65 321.401C1038.95 320.81 1040.26 320.204 1041.56 319.613C1041.07 319.786 1040.6 319.945 1040.12 320.117ZM1056.46 312.355C1054.28 313.402 1052.08 314.463 1049.92 315.49C1051.02 315.09 1052.16 314.662 1053.26 314.259C1055.42 313.262 1057.6 312.246 1059.79 311.224C1058.67 311.607 1057.57 311.976 1056.46 312.355ZM1072.97 304.438C1070.1 305.825 1067.29 307.158 1064.44 308.531C1065.79 308.063 1067.1 307.636 1068.46 307.162C1071.42 305.773 1074.38 304.397 1077.35 302.998C1075.89 303.476 1074.42 303.966 1072.97 304.438ZM1089.3 296.457C1086.18 297.987 1083.04 299.529 1079.95 301.037C1081.65 300.474 1083.34 299.925 1085.06 299.354C1088.2 297.862 1091.39 296.324 1094.57 294.801C1092.82 295.346 1091.04 295.921 1089.3 296.457ZM1106.54 287.975C1102.87 289.798 1099.24 291.584 1095.6 293.373C1097.51 292.776 1099.45 292.148 1101.38 291.538C1104.95 289.821 1108.5 288.125 1112.1 286.378C1110.23 286.927 1108.4 287.434 1106.54 287.975ZM1123.67 279.42C1119.67 281.425 1115.66 283.429 1111.68 285.41C1113.72 284.809 1115.77 284.189 1117.83 283.574C1121.77 281.654 1125.74 279.706 1129.71 277.759C1127.7 278.318 1125.68 278.873 1123.67 279.42ZM1140.9 270.723C1136.75 272.837 1132.59 274.95 1128.5 277.01C1130.59 276.432 1132.67 275.877 1134.77 275.285C1138.92 273.241 1143.12 271.149 1147.32 269.051C1145.19 269.6 1143.02 270.187 1140.9 270.723ZM1158.81 261.611C1154.25 263.944 1149.75 266.218 1145.23 268.52C1147.42 267.958 1149.64 267.366 1151.85 266.789C1156.29 264.574 1160.69 262.393 1165.16 260.148C1163.03 260.655 1160.93 261.119 1158.81 261.611ZM1176.56 252.43C1171.87 254.866 1167.17 257.308 1162.55 259.685C1164.75 259.167 1166.96 258.65 1169.18 258.115C1173.79 255.787 1178.47 253.395 1183.15 251.008C1180.95 251.483 1178.74 251.971 1176.56 252.43ZM1194.76 242.957C1189.83 245.542 1184.94 248.08 1180.06 250.618C1182.29 250.14 1184.52 249.663 1186.76 249.171C1191.58 246.712 1196.41 244.246 1201.28 241.737C1199.1 242.159 1196.94 242.549 1194.76 242.957ZM1213.1 233.3C1207.98 236.005 1202.88 238.691 1197.82 241.348C1200.06 240.92 1202.32 240.47 1204.58 240.027C1209.61 237.434 1214.65 234.821 1219.73 232.184C1217.51 232.558 1215.3 232.94 1213.1 233.3ZM1231.73 223.389C1226.46 226.206 1221.2 229.015 1216 231.769C1218.23 231.399 1220.46 231.026 1222.71 230.641C1227.83 227.969 1233.02 225.233 1238.22 222.495C1236.05 222.807 1233.89 223.088 1231.73 223.389ZM1250.62 213.274C1245.15 216.219 1239.75 219.099 1234.32 222.002C1236.53 221.691 1238.73 221.385 1240.94 221.06C1246.34 218.218 1251.69 215.413 1257.13 212.525C1254.96 212.78 1252.79 213.031 1250.62 213.274ZM1269.64 202.946C1264.06 205.988 1258.47 209.038 1252.99 211.999C1255.18 211.748 1257.39 211.468 1259.6 211.206C1265.04 208.313 1270.55 205.348 1276.08 202.38C1273.93 202.571 1271.78 202.765 1269.64 202.946ZM193.064 109.12C193.624 110.07 194.176 111.028 194.728 111.987C196.94 111.908 199.155 111.825 201.364 111.754C200.745 110.837 200.116 109.931 199.49 109.022C197.351 109.048 195.206 109.087 193.064 109.12ZM190.791 105.318C191.356 106.246 191.911 107.185 192.468 108.123C194.581 108.09 196.696 108.053 198.807 108.027C198.186 107.134 197.556 106.25 196.927 105.366C194.884 105.347 192.839 105.329 190.791 105.318ZM188.458 101.567C189.032 102.476 189.603 103.387 190.168 104.306C192.183 104.315 194.193 104.333 196.203 104.354C195.58 103.485 194.955 102.617 194.324 101.757C192.371 101.689 190.418 101.622 188.458 101.567ZM186.1 97.8899C186.675 98.7722 187.252 99.6511 187.819 100.542C189.735 100.594 191.644 100.656 193.552 100.72C192.925 99.8744 192.3 99.0253 191.665 98.1899C189.814 98.0821 187.957 97.9862 186.1 97.8899ZM183.694 94.2565C184.273 95.1128 184.844 95.9756 185.414 96.8423C187.225 96.9344 189.039 97.0222 190.844 97.1246C190.214 96.3048 189.578 95.4902 188.94 94.679C187.194 94.5344 185.447 94.3912 183.694 94.2565ZM181.254 90.6942C181.828 91.5145 182.389 92.3478 182.956 93.1784C184.673 93.3084 186.382 93.4495 188.093 93.5919C187.46 92.7955 186.814 92.0146 186.173 91.2285C184.538 91.0445 182.898 90.8653 181.254 90.6942ZM178.743 87.1956C179.32 87.9892 179.897 88.7861 180.466 89.5891C182.063 89.7534 183.659 89.9178 185.249 90.0933C184.621 89.3342 183.991 88.5782 183.355 87.8264C181.822 87.6108 180.284 87.4022 178.743 87.1956ZM176.193 83.7602C176.768 84.5206 177.347 85.2738 177.915 86.0437C179.396 86.239 180.872 86.4454 182.348 86.6505C181.734 85.9316 181.123 85.2051 180.501 84.4952C179.069 84.2447 177.633 83.9988 176.193 83.7602ZM173.618 80.4066C174.179 81.1213 174.735 81.8421 175.289 82.5637C176.652 82.7861 178.017 83.0085 179.373 83.242C178.767 82.5608 178.162 81.8826 177.549 81.2109C176.24 80.94 174.932 80.6703 173.618 80.4066ZM171.008 77.1348C171.545 77.7921 172.069 78.4648 172.601 79.1306C173.854 79.3775 175.098 79.6376 176.343 79.8956C175.748 79.2542 175.142 78.6245 174.54 77.99C173.367 77.6989 172.188 77.416 171.008 77.1348ZM168.327 73.9394C168.849 74.5523 169.368 75.1672 169.883 75.7878C170.984 76.0447 172.091 76.2931 173.185 76.5591C172.626 75.9793 172.054 75.4142 171.488 74.843C170.435 74.5405 169.386 74.2351 168.327 73.9394ZM165.649 70.8594C166.13 71.4009 166.619 71.9343 167.094 72.4826C168.046 72.742 168.989 73.0138 169.933 73.2842C169.409 72.7661 168.886 72.2472 168.357 71.7342C167.46 71.4344 166.551 71.1516 165.649 70.8594ZM162.969 67.8802C163.391 68.3378 163.809 68.8009 164.228 69.2637C164.998 69.5079 165.764 69.7552 166.531 70.002C166.086 69.5829 165.65 69.1564 165.202 68.7415C164.456 68.4559 163.718 68.1607 162.969 67.8802ZM160.343 65.0986C160.66 65.4282 160.971 65.7642 161.285 66.0964C161.832 66.2954 162.386 66.485 162.93 66.6883C162.588 66.381 162.247 66.0733 161.905 65.7698C161.387 65.5421 160.863 65.3229 160.343 65.0986ZM157.74 62.456L158.267 62.983C158.55 63.1003 158.826 63.2252 159.109 63.345L158.541 62.8651C158.272 62.7312 158.009 62.5904 157.74 62.456ZM1011.39 332.248C1009.97 332.925 1008.59 333.563 1007.18 334.231L1008.09 333.883L1012.6 331.814L1011.39 332.248ZM1027.35 324.59C1025.17 325.635 1022.97 326.697 1020.79 327.741C1021.79 327.37 1022.78 327.017 1023.79 326.643C1026.02 325.603 1028.29 324.527 1030.55 323.47C1029.48 323.843 1028.41 324.223 1027.35 324.59ZM1043.67 316.702C1041.1 317.963 1038.53 319.217 1035.99 320.449C1037.31 319.981 1038.62 319.533 1039.95 319.059C1042.72 317.75 1045.46 316.474 1048.26 315.142C1046.74 315.651 1045.18 316.201 1043.67 316.702ZM1060.61 308.404C1057.43 309.965 1054.26 311.519 1051.08 313.073C1052.78 312.499 1054.5 311.912 1056.21 311.328C1059.27 309.866 1062.35 308.379 1065.42 306.91C1063.8 307.428 1062.23 307.893 1060.61 308.404ZM1077.63 299.954C1074 301.769 1070.36 303.598 1066.79 305.366C1068.73 304.745 1070.72 304.065 1072.67 303.433C1076.15 301.748 1079.68 300.013 1083.21 298.282C1081.34 298.849 1079.49 299.397 1077.63 299.954ZM1094.89 291.325C1090.92 293.321 1087.04 295.251 1083.1 297.219C1085.07 296.622 1086.99 296.071 1088.97 295.462C1092.98 293.494 1096.96 291.562 1101 289.568C1098.97 290.15 1096.91 290.755 1094.89 291.325ZM1112.24 282.498C1108.08 284.621 1103.91 286.745 1099.8 288.827C1101.92 288.222 1104.04 287.614 1106.17 286.995C1110.23 284.978 1114.35 282.911 1118.47 280.851C1116.38 281.411 1114.31 281.953 1112.24 282.498ZM1130.05 273.372C1125.53 275.703 1121.04 278.005 1116.58 280.287C1118.79 279.697 1121.06 279.049 1123.29 278.444C1127.65 276.251 1132.03 274.046 1136.45 271.808C1134.31 272.343 1132.18 272.852 1130.05 273.372ZM1147.91 264.121C1143.24 266.544 1138.6 268.95 1133.96 271.343C1136.15 270.803 1138.3 270.301 1140.5 269.746C1145.17 267.375 1149.86 264.99 1154.57 262.587C1152.35 263.094 1150.11 263.629 1147.91 264.121ZM1166.14 254.566C1161.27 257.13 1156.4 259.706 1151.61 262.206C1153.86 261.696 1156.12 261.169 1158.38 260.644C1163.09 258.232 1167.87 255.745 1172.64 253.268C1170.46 253.721 1168.31 254.127 1166.14 254.566ZM1184.6 244.831C1179.48 247.548 1174.43 250.195 1169.36 252.868C1171.61 252.408 1173.86 251.941 1176.12 251.464C1181.17 248.85 1186.18 246.26 1191.27 243.601C1189.05 244.012 1186.81 244.435 1184.6 244.831ZM1203.22 234.864C1197.99 237.675 1192.75 240.487 1187.58 243.235C1189.82 242.827 1192.07 242.414 1194.33 241.991C1199.43 239.32 1204.59 236.591 1209.76 233.859C1207.57 234.212 1205.4 234.525 1203.22 234.864ZM1222.08 224.711C1216.67 227.639 1211.29 230.539 1205.95 233.408C1208.18 233.056 1210.41 232.7 1212.65 232.334C1217.97 229.523 1223.32 226.678 1228.69 223.806C1226.49 224.106 1224.27 224.425 1222.08 224.711ZM1241.27 214.284C1235.68 217.33 1230.13 220.345 1224.61 223.338C1226.83 223.043 1229.06 222.727 1231.29 222.418C1236.76 219.491 1242.26 216.555 1247.79 213.58C1245.61 213.818 1243.44 214.057 1241.27 214.284ZM1260.6 203.667C1254.91 206.805 1249.21 209.952 1243.61 213.012C1245.8 212.779 1247.98 212.548 1250.17 212.303C1255.72 209.313 1261.37 206.229 1267.01 203.156C1264.87 203.331 1262.73 203.502 1260.6 203.667ZM1240.83 213.311C1246.5 210.215 1252.26 207.042 1258.02 203.873C1060.11 218.795 878.702 189.321 697.502 159.882C587.469 142.006 477.513 124.147 363.993 116.256C461.609 126.527 555.942 144.923 650.822 163.43C835.91 199.53 1023.1 236.025 1240.83 213.311ZM1221.65 223.737C1227.22 220.721 1232.85 217.66 1238.49 214.585C1021.62 236.791 835.01 200.388 650.483 164.398C550.438 144.884 451.003 125.499 347.694 115.641C437.462 127.638 523.668 147.572 610.696 167.703C796.371 210.657 985.8 254.485 1221.65 223.737ZM1060.33 307.39C1064.15 305.509 1067.98 303.612 1071.84 301.688C700.504 411.217 545.152 300.829 399.285 197.102C357.227 167.194 315.951 137.852 270.492 114.519M185.051 109.269C185.554 110.273 186.051 111.284 186.545 112.298C188.79 112.204 191.033 112.121 193.275 112.039C192.713 111.069 192.148 110.102 191.578 109.143C189.405 109.179 187.229 109.221 185.051 109.269ZM183.021 105.309C183.534 106.296 184.049 107.279 184.553 108.275C186.698 108.227 188.842 108.183 190.982 108.146C190.416 107.197 189.852 106.245 189.276 105.307C187.195 105.3 185.107 105.305 183.021 105.309ZM180.95 101.396C181.47 102.362 181.99 103.327 182.501 104.303C184.55 104.298 186.601 104.289 188.644 104.294C188.072 103.37 187.501 102.446 186.921 101.533C184.934 101.483 182.944 101.435 180.95 101.396ZM178.842 97.5429C179.366 98.4793 179.881 99.4254 180.396 100.373C182.358 100.411 184.316 100.459 186.273 100.507C185.692 99.601 185.101 98.7074 184.512 97.8104C182.625 97.7152 180.737 97.6239 178.842 97.5429ZM176.687 93.7552C177.216 94.6644 177.733 95.5864 178.252 96.5075C180.115 96.5854 181.973 96.6711 183.829 96.7628C183.24 95.8772 182.643 95.0002 182.047 94.1236C180.266 93.993 178.475 93.8765 176.687 93.7552ZM174.459 90.0104C174.997 90.9028 175.536 91.7936 176.066 92.6959C177.818 92.8124 179.569 92.9263 181.315 93.0527C180.732 92.2065 180.149 91.3591 179.557 90.5232C177.862 90.3472 176.165 90.1715 174.459 90.0104ZM172.21 86.3613C172.746 87.2164 173.285 88.0664 173.813 88.9301C175.467 89.0841 177.114 89.2505 178.761 89.4173C178.173 88.5946 177.589 87.7684 176.992 86.9555C175.404 86.7495 173.806 86.5562 172.21 86.3613ZM169.9 82.7463C170.439 83.5713 170.97 84.4048 171.502 85.2396C173.048 85.4266 174.595 85.6089 176.133 85.8061C175.548 85.0203 174.957 84.2413 174.365 83.4653C172.878 83.2217 171.396 82.9746 169.9 82.7463ZM167.565 79.2417C168.093 80.0158 168.608 80.8061 169.129 81.5888C170.578 81.8069 172.021 82.037 173.461 82.2701C172.869 81.5073 172.262 80.7611 171.661 80.0077C170.304 79.7428 168.931 79.4963 167.565 79.2417ZM165.139 75.7761C165.669 76.5221 166.198 77.2674 166.72 78.0216C168.038 78.2631 169.355 78.5077 170.668 78.7574C170.096 78.0508 169.52 77.3494 168.941 76.651C167.677 76.3562 166.413 76.0601 165.139 75.7761ZM162.7 72.4253C163.215 73.1189 163.737 73.8056 164.244 74.5073C165.436 74.768 166.624 75.0321 167.807 75.3031C167.253 74.6477 166.708 73.9842 166.146 73.3361C165.003 73.0265 163.851 72.7259 162.7 72.4253ZM160.227 69.1496C160.713 69.7777 161.194 70.4139 161.674 71.0492C162.741 71.3222 163.8 71.6093 164.862 71.8917C164.33 71.29 163.799 70.6863 163.262 70.091C162.254 69.7715 161.242 69.4593 160.227 69.1496ZM157.721 65.9842C158.172 66.5413 158.614 67.1116 159.059 67.6747C159.969 67.9464 160.885 68.2087 161.791 68.4876C161.301 67.9581 160.805 67.438 160.31 66.915C159.447 66.6042 158.588 66.2891 157.721 65.9842ZM155.192 62.946C155.584 63.4095 155.978 63.8733 156.366 64.3423C157.128 64.6036 157.881 64.8744 158.636 65.1451C158.186 64.6815 157.721 64.2344 157.267 63.7763C156.581 63.4917 155.881 63.2251 155.192 62.946ZM152.685 60.0422C153.006 60.4049 153.337 60.7582 153.654 61.1239C154.19 61.3353 154.721 61.5519 155.254 61.7638C154.919 61.4365 154.579 61.1113 154.24 60.7845C153.72 60.5402 153.208 60.2843 152.685 60.0422ZM150.348 57.4339C150.502 57.6008 150.65 57.7742 150.802 57.9412C151.061 58.0583 151.324 58.1707 151.583 58.2877C151.418 58.1366 151.259 57.9794 151.094 57.8287L150.348 57.4339ZM1286.56 192.499C1284.45 192.611 1282.34 192.731 1280.23 192.834C1274.34 196.104 1268.56 199.274 1262.75 202.479C1264.9 202.31 1267.04 202.147 1269.2 201.965C1274.98 198.82 1280.72 195.704 1286.56 192.499ZM1295.32 192.016C1293.22 192.139 1291.11 192.255 1289.01 192.369C1283.24 195.538 1277.56 198.63 1271.84 201.747C1274.01 201.56 1276.19 201.353 1278.36 201.157C1283.99 198.128 1289.63 195.099 1295.32 192.016ZM1304.15 191.468C1302.05 191.605 1299.95 191.731 1297.85 191.857C1292.23 194.903 1286.64 197.919 1281.09 200.91C1283.25 200.71 1285.41 200.511 1287.57 200.3C1293.06 197.395 1298.6 194.431 1304.15 191.468ZM1313.07 190.854C1310.95 191.006 1308.83 191.165 1306.72 191.307C1301.27 194.219 1295.79 197.159 1290.41 200.013C1292.57 199.799 1294.73 199.582 1296.9 199.356C1302.23 196.575 1307.67 193.696 1313.07 190.854ZM1322.05 190.195C1319.94 190.358 1317.83 190.512 1315.72 190.666C1310.38 193.48 1305.02 196.313 1299.74 199.067C1301.89 198.838 1304.06 198.583 1306.22 198.342C1311.47 195.655 1316.73 192.945 1322.05 190.195ZM1331.01 189.473C1328.95 189.646 1326.88 189.808 1324.82 189.972C1319.57 192.692 1314.39 195.345 1309.21 198.006C1311.36 197.762 1313.52 197.524 1315.68 197.269C1320.73 194.729 1325.9 192.074 1331.01 189.473ZM1340.15 188.671C1338.04 188.862 1335.93 189.061 1333.83 189.241C1328.86 191.771 1323.79 194.397 1318.88 196.872C1320.99 196.616 1323.11 196.354 1325.22 196.087C1330.15 193.657 1335.15 191.161 1340.15 188.671ZM1349.32 187.819C1347.23 188.021 1345.15 188.215 1343.06 188.408C1338.2 190.835 1333.29 193.312 1328.49 195.682C1330.6 195.411 1332.72 195.118 1334.84 194.835C1339.64 192.521 1344.46 190.19 1349.32 187.819ZM1358.58 186.893C1356.5 187.109 1354.43 187.311 1352.36 187.515C1347.65 189.816 1342.94 192.123 1338.29 194.37C1340.36 194.087 1342.43 193.818 1344.51 193.526C1349.19 191.323 1353.84 189.15 1358.58 186.893ZM1367.94 185.88C1365.87 186.11 1363.79 186.345 1361.72 186.564C1357.18 188.735 1352.67 190.87 1348.17 192.988C1350.24 192.691 1352.31 192.386 1354.39 192.078C1358.91 190.006 1363.37 188.001 1367.94 185.88ZM1377.22 184.825C1375.22 185.061 1373.21 185.295 1371.21 185.522C1366.82 187.563 1362.5 189.532 1358.16 191.525C1360.21 191.213 1362.28 190.878 1364.34 190.556C1368.63 188.646 1372.89 186.776 1377.22 184.825ZM1386.53 183.708C1384.62 183.947 1382.71 184.167 1380.79 184.397C1376.61 186.284 1372.53 188.069 1368.39 189.914C1370.37 189.597 1372.35 189.295 1374.34 188.969C1378.39 187.229 1382.44 185.486 1386.53 183.708ZM1395.97 182.485C1394.09 182.733 1392.22 182.98 1390.34 183.218C1386.45 184.919 1382.62 186.546 1378.76 188.216C1380.71 187.889 1382.66 187.558 1384.61 187.22C1388.38 185.667 1392.17 184.074 1395.97 182.485ZM1405.41 181.206C1403.6 181.459 1401.78 181.719 1399.97 181.964C1396.39 183.472 1392.83 184.942 1389.27 186.423C1391.17 186.088 1393.08 185.726 1394.99 185.383C1398.43 184.024 1401.94 182.598 1405.41 181.206ZM1414.81 179.878C1413.13 180.123 1411.45 180.352 1409.78 180.591C1406.57 181.884 1403.36 183.17 1400.17 184.438C1401.89 184.122 1403.6 183.81 1405.32 183.485C1408.46 182.308 1411.64 181.082 1414.81 179.878ZM1424.31 178.438C1422.76 178.677 1421.21 178.908 1419.67 179.141C1416.92 180.195 1414.15 181.266 1411.41 182.302C1412.87 182.019 1414.33 181.74 1415.79 181.451C1418.63 180.452 1421.46 179.459 1424.31 178.438ZM1433.49 176.988C1432.21 177.195 1430.93 177.408 1429.65 177.611C1427.48 178.393 1425.29 179.208 1423.13 179.977C1424.23 179.755 1425.33 179.524 1426.43 179.298C1428.78 178.526 1431.12 177.774 1433.49 176.988ZM1441.87 175.624C1441.19 175.74 1440.51 175.846 1439.83 175.959C1438.43 176.429 1437.02 176.92 1435.62 177.384C1436.14 177.274 1436.65 177.156 1437.17 177.046L1441.87 175.624ZM196.062 116.952C193.697 117.08 191.332 117.212 188.963 117.352C204.441 150.364 215.965 188.014 227.699 226.39C250.53 301.058 274.197 378.453 329.564 429.411C410.733 504.116 560.266 522.064 875.525 391.695C573.053 510.48 428.27 487.011 346.547 411.219C293.92 362.412 267.502 291.946 241.955 223.799C227.826 186.108 213.956 149.134 196.062 116.952ZM204.505 116.5C202.169 116.618 199.829 116.749 197.49 116.876C215.301 149.037 229.14 185.923 243.235 223.523C268.743 291.568 295.123 361.933 347.581 410.585C431.672 488.571 583.001 510.801 905.593 378.52C594.853 499.366 448.063 471.01 363.069 391.535C313.803 345.465 285.355 282.249 257.776 220.961C241.162 184.04 224.86 147.823 204.505 116.5ZM212.901 116.114C210.595 116.215 208.29 116.32 205.981 116.432C226.226 147.72 242.476 183.83 259.038 220.634C286.581 281.842 314.99 344.973 364.111 390.905C451.573 472.691 604.921 500.012 936.478 365.131C615.523 488.794 466.484 454.491 377.662 370.689C332.303 327.894 302.691 272.225 273.9 218.098C254.685 181.972 235.828 146.546 212.901 116.114ZM221.263 115.762C218.982 115.852 216.701 115.945 214.418 116.045C237.208 146.433 255.994 181.732 275.137 217.721C303.894 271.785 333.471 327.389 378.702 370.063C469.634 455.855 624.007 489.533 962.858 353.694L964.374 352.998C633.303 478.685 482.664 436.83 389.624 348.195C348.931 309.428 319.283 261.733 290.363 215.208C268.417 179.902 246.885 145.278 221.263 115.762ZM229.567 115.445C227.323 115.525 225.076 115.616 222.83 115.703C248.282 145.164 269.721 179.634 291.567 214.779C320.454 261.252 350.069 308.893 390.67 347.573C484.778 437.224 638.154 478.768 979.018 346.276C980.515 345.583 981.97 344.928 983.478 344.228C645.492 468.671 495.143 416.91 397.764 323.158C362.825 289.521 334.722 250.5 307.202 212.287C282.381 177.82 258.031 144.016 229.567 115.445ZM237.834 115.189C235.63 115.254 233.427 115.317 231.22 115.392C259.468 143.898 283.688 177.527 308.377 211.808C335.87 249.986 363.947 288.971 398.816 322.541C496.958 417.028 649.139 468.706 994.476 339.07C996.684 338.035 998.91 336.984 1001.12 335.949C559.562 492.811 437.616 345.81 324.479 209.338C296.622 175.735 269.29 142.784 237.834 115.189ZM246.071 114.961C243.904 115.016 241.737 115.074 239.568 115.135C270.762 142.657 297.926 175.411 325.61 208.805C439.338 345.99 562.022 493.811 1011.29 331.162C1013.69 330.022 1016.15 328.834 1018.58 327.664C594.816 472.324 464 334.54 342.246 206.347C311.176 173.633 280.695 141.548 246.071 114.961ZM254.239 114.773C252.128 114.818 250.016 114.868 247.904 114.919C282.208 141.424 312.479 173.283 343.328 205.764C465.621 334.524 597.166 472.895 1027.18 323.536C1030.34 322.013 1033.46 320.529 1036.65 318.988C630.223 451.887 490.718 323.326 360.572 203.315C326.08 171.508 292.238 140.316 254.239 114.773ZM262.394 114.632C260.338 114.663 258.282 114.691 256.224 114.731C293.83 140.185 327.399 171.135 361.607 202.681C492.207 323.109 632.208 452.205 1043.42 315.677C1046.99 313.942 1050.59 312.167 1054.19 310.402C665.406 431.465 517.728 312.069 379.552 200.238C341.412 169.37 303.988 139.092 262.394 114.632ZM278.562 114.449C276.66 114.464 274.761 114.48 272.859 114.498C317.739 137.735 358.586 166.78 400.199 196.371C546.518 300.42 702.424 411.156 1077.3 298.957C1081.38 296.925 1085.46 294.888 1089.55 292.836C735.537 391.104 573.056 289.602 419.898 193.904C373.618 164.986 328.185 136.606 278.562 114.449ZM286.597 114.417C284.78 114.418 282.966 114.417 281.148 114.427C330.089 136.494 375.007 164.548 420.75 193.131C574.371 289.12 737.405 390.94 1094.53 290.344C1098.83 288.172 1103.22 285.927 1107.59 283.694C770.665 371.08 601.558 278.4 441.554 190.633C390.692 162.734 340.743 135.344 286.597 114.417ZM294.577 114.407C292.902 114.403 291.225 114.411 289.549 114.412C342.861 135.253 392.157 162.292 442.343 189.821C602.791 277.831 772.379 370.82 1111.87 281.513C1116.49 279.16 1121.08 276.819 1125.75 274.422C805.779 351.275 630.783 267.216 464.457 187.278C408.582 160.424 353.683 134.043 294.577 114.407ZM302.55 114.449C301.009 114.441 299.47 114.43 297.93 114.423C356.029 133.986 410.134 159.977 465.178 186.433C631.96 266.589 807.479 350.887 1129.66 272.395C1134.39 269.956 1139.16 267.479 1143.94 264.994C840.923 331.625 660.861 256.036 488.864 183.824C427.478 158.052 367.115 132.719 302.55 114.449ZM310.478 114.515C309.129 114.499 307.78 114.481 306.429 114.469C369.779 132.684 429.153 157.608 489.518 182.952C661.985 255.361 842.565 331.18 1147.5 263.152C1152.46 260.569 1157.47 257.936 1162.5 255.29C876.314 312.141 692.052 244.882 515.115 180.258C447.597 155.598 381.138 131.333 310.478 114.515ZM318.363 114.608C317.283 114.592 316.201 114.583 315.12 114.569C384.269 131.362 449.475 155.17 515.7 179.357C693.118 244.158 877.905 311.61 1165.72 253.593C1170.86 250.891 1175.98 248.202 1181.16 245.46C911.871 292.932 724.601 233.74 543.656 176.56C469.244 153.045 395.903 129.872 318.363 114.608ZM326.285 114.745L324.048 114.704C399.682 129.985 471.42 152.646 544.178 175.638C725.628 232.978 913.465 292.317 1184.17 243.865C1189.41 241.079 1194.75 238.204 1200.08 235.347C947.848 273.887 758.888 222.609 575.098 172.703C492.867 150.374 411.666 128.326 326.285 114.745ZM334.091 114.9L333.482 114.885C416.403 128.552 495.494 150.021 575.558 171.761C759.865 221.807 949.376 273.232 1202.8 233.89C1208.24 230.972 1213.7 228.042 1219.2 225.069C984.347 255.17 795.45 211.491 610.298 168.659C519.009 147.543 428.628 126.635 334.091 114.9ZM754.288 155.084C631.449 138.679 507.712 122.157 380.654 116.475C488.394 124.888 593.058 141.888 697.79 158.905C879.559 188.434 1061.55 217.987 1260.17 202.686C1266.04 199.452 1271.88 196.248 1277.83 192.944C1100.51 201.317 928.297 178.324 754.288 155.084ZM310.717 113.512L312.823 113.537L312.065 113.39C311.312 113.36 310.558 113.325 309.803 113.296L310.717 113.512ZM302.819 113.445C303.885 113.453 304.955 113.454 306.021 113.462C305.511 113.343 305.003 113.219 304.493 113.102L301.204 112.988L302.819 113.445ZM294.9 113.404C296.246 113.407 297.589 113.418 298.933 113.425C298.213 113.223 297.49 113.031 296.768 112.834C295.457 112.792 294.141 112.761 292.827 112.723C293.519 112.95 294.211 113.174 294.9 113.404ZM286.955 113.412L291.519 113.404L289.113 112.621C287.6 112.579 286.089 112.533 284.572 112.497C285.366 112.802 286.162 113.105 286.955 113.412ZM278.957 113.442C280.636 113.43 282.315 113.422 283.992 113.416C283.134 113.089 282.281 112.757 281.421 112.434C279.769 112.4 278.116 112.364 276.463 112.334C277.296 112.7 278.126 113.072 278.957 113.442ZM270.929 113.511C272.738 113.492 274.546 113.479 276.353 113.464C275.448 113.064 274.536 112.672 273.628 112.277C271.873 112.248 270.115 112.228 268.36 112.204C269.215 112.64 270.074 113.073 270.929 113.511ZM262.879 113.62C264.769 113.592 266.662 113.554 268.552 113.53C267.662 113.079 266.775 112.619 265.882 112.172C264.016 112.147 262.15 112.121 260.279 112.107C261.148 112.608 262.013 113.113 262.879 113.62ZM254.762 113.755C256.755 113.715 258.744 113.685 260.735 113.655C259.833 113.129 258.925 112.614 258.019 112.095C256.091 112.083 254.164 112.073 252.235 112.067C253.08 112.627 253.921 113.191 254.762 113.755ZM246.648 113.943C248.694 113.894 250.74 113.846 252.785 113.801C251.911 113.217 251.04 112.633 250.161 112.056C248.164 112.054 246.162 112.061 244.162 112.064C244.993 112.688 245.824 113.312 246.648 113.943ZM238.459 114.164C240.572 114.102 242.683 114.041 244.794 113.986C243.949 113.342 243.098 112.707 242.249 112.07C240.197 112.074 238.145 112.079 236.091 112.095C236.884 112.779 237.671 113.473 238.459 114.164ZM230.244 114.417C232.408 114.343 234.566 114.281 236.726 114.218C235.918 113.514 235.105 112.811 234.289 112.114C232.19 112.135 230.09 112.155 227.989 112.183C228.742 112.927 229.496 113.669 230.244 114.417ZM221.992 114.729C224.192 114.643 226.393 114.557 228.591 114.477C227.826 113.716 227.064 112.956 226.295 112.201C224.154 112.233 222.008 112.274 219.864 112.313C220.576 113.115 221.286 113.918 221.992 114.729ZM213.683 115.072C215.931 114.973 218.178 114.878 220.424 114.789C219.705 113.966 218.978 113.155 218.25 112.344C216.075 112.384 213.898 112.426 211.718 112.478C212.378 113.337 213.029 114.207 213.683 115.072ZM205.341 115.456C207.618 115.345 209.893 115.243 212.167 115.142C211.502 114.264 210.836 113.389 210.163 112.52C207.951 112.576 205.738 112.636 203.521 112.702C204.131 113.617 204.739 114.533 205.341 115.456ZM196.952 115.897C199.254 115.772 201.56 115.642 203.86 115.524C203.25 114.593 202.64 113.666 202.025 112.742C199.783 112.812 197.538 112.895 195.295 112.974C195.851 113.944 196.404 114.917 196.952 115.897ZM188.502 116.373C190.844 116.234 193.186 116.102 195.525 115.975C194.97 114.983 194.405 114.006 193.84 113.025C191.572 113.106 189.303 113.19 187.031 113.283C187.526 114.308 188.014 115.34 188.502 116.373ZM-62.4974 152.601C22.8415 132.533 105.845 121.363 187.1 116.46C186.607 115.418 186.109 114.38 185.606 113.347C105.862 116.714 23.6435 126.95 -62.1735 147.131L-62.5638 146.175C23.2258 126 105.412 115.75 185.122 112.362C184.621 111.339 184.123 110.316 183.614 109.304C105.44 111.123 24.0495 120.41 -62.2396 140.702L-62.6303 139.746C23.6192 119.462 104.969 110.16 183.101 108.311C182.59 107.306 182.074 106.307 181.555 105.313C104.987 105.557 24.4542 113.871 -62.3064 134.276L-62.6967 133.319C24.0196 112.927 104.51 104.586 181.036 104.306C180.514 103.316 179.979 102.341 179.448 101.361C104.52 99.9974 24.8639 107.333 -62.3725 127.85L-62.7632 126.893C24.413 106.392 104.019 99.0243 178.895 100.338C178.37 99.3812 177.841 98.4313 177.306 97.4836C104.049 94.477 25.2923 100.79 -62.4393 121.422L-62.8296 120.466C24.8223 99.8521 103.518 93.5037 176.719 96.4469C176.187 95.511 175.657 94.5739 175.115 93.6484C103.562 88.9682 25.726 94.2431 -62.5054 114.993L-62.8961 114.037C25.2313 93.3115 102.995 87.9864 174.481 92.5875C173.943 91.678 173.405 90.7686 172.857 89.8703C103.046 83.4851 26.1623 87.6985 -62.5715 108.566L-62.9625 107.61C25.6487 86.7705 102.456 82.4981 172.198 88.7893C171.652 87.9033 171.095 87.0322 170.539 86.1565C102.511 78.0294 26.6047 81.1525 -62.6386 102.141L-63.029 101.184C26.0607 80.2321 101.88 77.031 169.834 85.0365C169.285 84.1811 168.725 83.3385 168.166 82.4946C101.957 72.5913 27.0547 74.6018 -62.7051 95.7106L-63.0954 94.7547C26.4721 73.6907 101.27 71.5867 167.397 81.3379C166.85 80.5224 166.302 79.7065 165.746 78.9012C101.393 67.1848 27.5187 68.0505 -62.7712 89.2846L-63.1619 88.3278C26.8775 67.1536 100.63 66.1554 164.887 77.6787C164.348 76.9103 163.815 76.1354 163.267 75.3755C100.81 61.8039 27.9931 61.4966 -62.8377 82.8577L-63.2283 81.9013C27.2958 60.6121 99.968 60.766 162.325 74.0961C161.782 73.3566 161.233 72.6213 160.681 71.8908C100.172 56.4406 28.4504 54.9462 -62.9041 76.4295L-63.2948 75.4752C27.6959 54.0764 99.2603 55.3801 159.668 70.5383C159.14 69.8517 158.596 69.1826 158.061 68.5045C99.5343 51.1219 28.9377 48.3871 -62.9709 70.0018L-63.3612 69.0458C28.0746 47.543 98.4822 50.0263 156.896 67.0309C156.39 66.4031 155.876 65.7817 155.362 65.162C98.8645 45.8163 29.4221 41.8309 -63.0374 63.5757L-63.4277 62.6189C28.431 41.017 97.6391 44.6948 154.016 63.5586C153.553 63.0135 153.098 62.4586 152.629 61.9178C98.1998 40.5517 29.9378 35.2689 -63.1035 57.1488L-63.4941 56.1924C28.7291 34.504 96.6991 39.3601 150.985 60.0806C150.583 59.6305 150.185 59.1768 149.779 58.7326C97.4703 35.3163 30.4387 28.7054 -63.1699 50.7198L-63.5606 49.7633C28.9658 28.0039 95.6381 34.0436 147.79 56.6022C147.466 56.2595 147.139 55.9181 146.812 55.578C96.6788 30.0955 30.9111 22.1515 -63.2364 44.2929L-63.6271 43.3365C29.0936 21.5321 94.3968 28.7345 144.367 53.0803C144.193 52.9071 144.014 52.7366 143.84 52.5652C95.9186 24.9288 31.4487 15.5829 -63.3028 37.8664L-63.6935 36.9099C28.3248 15.2708 91.9189 23.2645 139.539 48.8175C93.981 19.6031 31.1254 9.21679 -63.3693 31.4386L-63.7599 30.4835C26.3187 9.29959 87.7996 17.5287 132.96 43.4006C89.8783 13.8532 29.1243 3.24341 -63.4358 25.0105L-63.8264 24.0545C24.245 3.34397 83.6641 11.7362 126.497 37.7846C85.7543 8.05116 27.0523 -2.71272 -63.5022 18.5839L-63.8929 17.6276C36.0131 -5.86798 97.3923 9.32608 138.639 45.9205C141 47.6709 143.292 49.495 145.548 51.359C148.002 53.0563 150.419 54.7955 152.773 56.6038C155.295 58.2281 157.761 59.9171 160.191 61.6448C162.872 63.2467 165.516 64.8927 168.107 66.5965C170.838 68.1075 173.525 69.6677 176.176 71.272C179.099 72.7598 181.978 74.2989 184.821 75.8817C187.789 77.2721 190.727 78.6982 193.626 80.173C196.793 81.5253 199.915 82.9332 203.014 84.3711C206.325 85.6595 209.611 86.9847 212.859 88.3536C216.198 89.5296 219.512 90.7398 222.797 91.9882C226.358 93.1126 229.885 94.285 233.393 95.4809C237.151 96.5392 240.881 97.633 244.588 98.7611C248.468 99.7269 252.33 100.719 256.166 101.749C260.14 102.614 264.099 103.502 268.036 104.425C272.186 105.202 276.319 106.002 280.436 106.835C284.75 107.516 289.051 108.222 293.336 108.954C297.83 109.539 302.313 110.144 306.784 110.778C311.304 111.245 315.812 111.739 320.31 112.248C325.176 112.627 330.031 113.031 334.877 113.453C339.826 113.718 344.767 114.005 349.702 114.311C487.749 118.475 621.664 136.354 754.529 154.097C929.113 177.414 1101.88 200.487 1279.8 191.847C1378.15 137.191 1486.26 73.7319 1605.19 0.459949L1606.03 1.23C1487.74 74.1029 1380.17 137.257 1282.22 191.719C1284.34 191.613 1286.46 191.498 1288.58 191.383C1384.4 138.76 1489.59 77.6101 1605.26 6.8847L1606.09 7.65901C1491.09 77.9797 1386.44 138.825 1291.03 191.253C1293.16 191.134 1295.28 191.003 1297.41 190.876C1390.68 140.298 1492.95 81.4698 1605.33 13.3116L1606.16 14.0893C1494.47 81.826 1392.78 140.344 1299.94 190.719C1302.05 190.587 1304.17 190.467 1306.28 190.326C1397 141.808 1496.33 85.3085 1605.4 19.7376L1606.22 20.5158C1497.88 85.6465 1399.15 141.831 1308.89 190.141C1311.02 189.996 1313.16 189.841 1315.29 189.686C1403.41 143.252 1499.77 89.0972 1605.46 26.1632L1606.29 26.9457C1501.35 89.4316 1405.59 143.273 1317.95 189.497C1320.09 189.336 1322.23 189.165 1324.37 188.996C1409.87 144.665 1503.27 92.848 1605.53 32.5871L1606.35 33.3735C1504.89 93.1612 1412.12 144.663 1327.15 188.772C1329.22 188.604 1331.29 188.445 1333.37 188.268C1416.31 146.026 1506.69 96.6405 1605.6 39.0136L1606.41 39.8051C1508.33 96.9483 1418.63 145.988 1336.24 188.009C1338.36 187.824 1340.48 187.632 1342.6 187.436C1422.9 147.327 1510.25 100.342 1605.67 45.4375L1606.48 46.2329C1511.9 100.651 1425.25 147.286 1345.52 187.174C1347.65 186.973 1349.77 186.757 1351.9 186.546C1429.53 148.585 1513.84 104.016 1605.74 51.8622L1606.54 52.6616C1515.52 104.309 1431.97 148.509 1354.94 186.242C1357.05 186.028 1359.15 185.82 1361.26 185.598C1436.22 149.8 1517.45 107.664 1605.81 58.2891L1606.6 59.0923C1519.19 107.938 1438.76 149.686 1364.45 185.248C1366.55 185.021 1368.65 184.793 1370.75 184.556C1443.01 150.944 1521.13 111.269 1605.88 64.7134L1606.66 65.5214C1522.89 111.539 1445.6 150.816 1374.03 184.19C1376.13 183.947 1378.24 183.684 1380.35 183.432C1449.87 152.025 1524.86 114.837 1605.96 71.1398L1606.72 71.9509C1526.67 115.087 1452.59 151.856 1383.8 183.017C1385.83 182.768 1387.86 182.516 1389.88 182.257C1456.72 153.055 1528.55 118.41 1606.03 77.5611L1606.79 78.3808C1530.51 118.596 1459.67 152.832 1393.71 181.76C1395.65 181.507 1397.58 181.263 1399.52 181.001C1463.65 154.026 1532.29 121.943 1606.1 83.9867L1606.85 84.8137C1534.34 122.098 1466.8 153.745 1403.64 180.433C1405.54 180.171 1407.44 179.901 1409.34 179.631C1470.7 154.909 1536.11 125.421 1606.17 90.4106L1606.91 91.242C1538.24 125.557 1474.02 154.588 1413.7 179.017C1415.54 178.749 1417.38 178.461 1419.22 178.184C1477.82 155.735 1539.98 128.861 1606.25 96.8318L1606.96 97.675C1542.26 128.945 1481.47 155.315 1424.09 177.448C1425.79 177.186 1427.5 176.924 1429.22 176.654C1485.01 156.502 1543.89 132.259 1606.33 103.256L1607.02 104.108C1546.39 132.271 1489.12 155.945 1434.75 175.757C1436.3 175.504 1437.85 175.26 1439.4 175.002C1492.36 157.174 1547.9 135.594 1606.4 109.677L1607.07 110.541C1550.69 135.519 1497.06 156.451 1445.84 173.906C1447.16 173.679 1448.48 173.45 1449.81 173.219C1499.87 157.744 1552 138.871 1606.48 116.099L1607.13 116.974C1555.25 138.654 1505.53 156.771 1457.68 171.824C1458.45 171.684 1459.23 171.537 1460 171.395C1507.26 158.275 1556.03 142.154 1606.57 122.519L1607.17 123.406C1560.8 141.422 1515.92 156.476 1472.32 168.982C1516.11 158.33 1560.83 145.132 1606.66 128.938L1607.22 129.846C1567.93 143.728 1529.45 155.41 1491.68 165.184C1529.68 157.234 1568.01 147.391 1606.75 135.357L1607.25 136.28C1561.2 150.587 1515.71 161.815 1470.69 170.433C1463.35 172.21 1456.02 173.926 1448.73 175.562C1440.94 177.65 1433.22 179.629 1425.51 181.562C1417.53 183.878 1409.6 186.123 1401.73 188.268C1393.37 190.864 1385.06 193.385 1376.84 195.784C1368.4 198.536 1360.06 201.161 1351.77 203.722C1343.34 206.588 1334.97 209.366 1326.69 212.048C1317.82 215.183 1309.02 218.227 1300.33 221.15C1291.13 224.507 1282.04 227.719 1273.04 230.845C1264.3 234.11 1255.64 237.276 1247.09 240.337C1238.36 243.678 1229.71 246.93 1221.17 250.069C1210.79 254.146 1200.59 258.029 1190.5 261.806C1181.46 265.397 1172.53 268.884 1163.72 272.253C1154.79 275.864 1145.97 279.369 1137.25 282.771C1126.89 287.033 1116.65 291.17 1106.58 295.153C1096.93 299.169 1087.41 303.064 1078.03 306.825C1068.29 310.932 1058.66 314.924 1049.2 318.769C1039.25 323.007 1029.43 327.131 1019.78 331.097C1010.1 335.258 1000.53 339.317 991.117 343.228C981.604 347.356 972.209 351.376 962.959 355.264C953.416 359.447 944.024 363.494 934.752 367.434C578.212 525.216 414.934 509.565 328.533 430.044C272.969 378.904 249.268 301.398 226.404 226.62C214.647 188.173 203.104 150.459 187.563 117.439C106.277 122.325 23.2481 133.485 -62.107 153.558L-62.4974 152.601Z" fill="url(#paint0_linear_0_196)"/>
<defs>
<linearGradient id="paint0_linear_0_196" x1="1051.37" y1="891.876" x2="435.911" y2="-227.515" gradientUnits="userSpaceOnUse">
<stop stop-color="#0A767B"/>
<stop offset="1" stop-color="#00A7D6"/>
</linearGradient>
</defs>
</svg>
